<svg width="262" height="262" viewBox="0 0 262 262" fill="none" xmlns="http://www.w3.org/2000/svg">
<g clip-path="url(#clip0_1_670)">
<path fill-rule="evenodd" clip-rule="evenodd" d="M49.858 186.349H92.9297C92.9297 186.349 103.655 168.051 98.2352 139.477C98.2352 139.477 89.5456 131.201 95.5825 126.275C95.5825 126.275 98.5463 125.351 99.5615 126.275V113.073C99.5615 113.073 90.8883 112.719 92.2692 98.5492C92.2692 98.5492 92.7223 89.9036 97.4711 88.7617C97.7217 88.7005 97.9775 88.6622 98.2352 88.6475C103.699 88.2995 119.61 90.2516 127.394 82.0464C127.394 82.0464 136.362 67.936 125.401 51.6779C125.401 51.6779 118.185 61.7754 125.401 80.7251C125.401 80.7251 105.091 75.5486 120.101 33.8538C120.101 33.8538 125.052 25.964 122.088 19.9882C122.088 19.9882 143.61 41.1238 138.66 63.5589C138.66 63.5589 137.852 71.2094 134.68 76.1032C134.68 76.1032 154.096 61.9113 162.513 87.3262L163.839 95.2486C162.462 96.6266 161.395 98.2811 160.71 100.102C160.025 101.923 159.737 103.868 159.865 105.808L159.199 106.472L158.539 98.5492L157.873 117.695L157.212 118.353L155.886 100.528L154.56 103.171C154.56 103.171 154.347 141.087 155.226 146.078C156.656 146.797 157.816 147.956 158.531 149.383C159.247 150.811 159.482 152.43 159.199 154.001C158.359 159.765 156.552 162.581 156.552 162.581C156.552 162.581 158.392 171.51 161.186 175.126C163.981 178.741 167.818 183.706 167.818 183.706C167.818 183.706 167.763 185.239 165.826 185.027H212.877L200.284 204.831H146.607C146.607 204.831 142.169 232.312 142.633 235.862C142.633 235.862 121.886 237.678 116.788 235.199C116.788 235.199 113.933 206.663 112.814 205.494H60.4581L49.858 186.349ZM130.996 0.244629C203.346 0.244629 261.996 58.6706 261.996 130.745C261.996 202.819 203.346 261.245 130.996 261.245C58.6459 261.245 -0.00390625 202.819 -0.00390625 130.745C-0.00390625 58.6706 58.6459 0.244629 130.996 0.244629Z" fill="#FF6666"/>
</g>
<defs>
<clipPath id="clip0_1_670">
<rect width="262" height="261" fill="white" transform="translate(0 0.25)"/>
</clipPath>
</defs>
</svg>
