<svg width="248" height="249" viewBox="0 0 248 249" fill="none" xmlns="http://www.w3.org/2000/svg">
<g clip-path="url(#clip0_1_696)">
<path fill-rule="evenodd" clip-rule="evenodd" d="M153.369 69.7459C158.636 74.7389 162.53 80.0015 165.866 88.6704C162.733 88.9661 159.576 88.886 156.462 88.432C156.829 85.2589 155.553 82.0806 154.944 78.4928C155.269 75.47 152.822 71.7369 153.369 69.7459ZM77.3798 117.705C77.3798 117.705 64.2049 117.902 57.2505 116.264C53.1013 115.201 45.1152 115.942 48.2208 109.275C55.5067 92.0612 59.0337 84.8441 66.3552 74.293C66.2245 78.2853 64.3929 83.0137 63.7489 87.6385C63.2402 92.0042 62.5034 96.3749 62.5044 101.378C65.5511 103.286 70.6077 102.737 74.8463 102.944C81.2915 102.343 90.7106 104.303 94.5676 100.357C96.3022 96.9661 100.637 95.4987 107.09 96.095C124.255 98.4904 138.039 89.1942 155.786 88.712C158.177 91.8591 157.934 97.7646 158.549 102.789C152.879 102.763 147.214 100.762 141.275 101.228C137.361 100.3 137.774 103.007 136.416 105.506C135.337 108.285 136.447 111.064 136.798 113.791C142.948 114.007 149.063 114.806 155.063 116.176C160.558 116.922 167.483 121.05 171.965 117.327C172.801 108.943 169.832 99.0348 166.455 91.6102C166.458 90.9904 166.37 90.3736 166.192 89.7801C172.631 89.3394 179.391 92.6679 184.668 94.9492C198.343 101.835 208.103 111.675 217.857 122.574C218.585 122.242 218.121 123.103 218.007 123.517C192.673 148.503 167.338 173.487 142.003 198.469L141.621 198.837C138.719 202.103 132.765 208.071 132.765 208.071L131.66 208.724C131.321 209.412 130.904 210.058 130.415 210.648C126.971 208.916 125.737 201.015 125.029 196.577C125.112 190.593 123.932 185.17 123.903 179.741C128.371 176.61 134.991 175.163 138.203 171.492C141.198 168.262 142.448 159.93 142.985 154.009C142.861 153.672 142.003 153.211 142.334 153.937C140.449 163.036 137.604 169.118 132.264 170.637C126.785 174.831 119.258 175.194 117.935 182.36C115.86 187.996 113.862 189.639 109.636 191.257C102.767 196.037 96.4158 189.09 89.3132 191.723C87.8807 189.857 88.1828 186.637 89.4563 185.745C89.5678 181.94 88.2386 181.447 85.528 180.27C86.0924 173.737 88.7209 170.409 90.8614 167.749C91.9706 160.423 90.9884 153.807 91.573 147.191C92.4431 138.548 87.9381 136.381 86.5025 130.325C85.2827 125.493 86.8386 120.764 86.9295 116.772C86.2992 116.934 85.6513 117.016 85.0008 117.016C82.9832 120.972 83.5946 125.451 83.2905 129.164C82.8156 129.283 82.3267 129.337 81.8373 129.325C77.8559 128.163 75.6968 125.145 73.2909 123.284C72.4301 121.423 71.5564 121.485 71.5145 119.805C72.8491 119.35 74.1539 118.812 75.4211 118.193L77.3798 117.705ZM141.347 119.997C141.347 119.997 154.128 115.828 162.303 121.977C158.771 126.943 153.579 130.467 147.673 131.907C147.673 131.907 154.469 126.084 154.789 123.17C154.789 123.17 153.524 121.309 141.347 119.997ZM101.212 180.934C101.706 180.927 102.199 180.959 102.687 181.033C104.071 181.748 104.948 182.417 104.984 185.206C104.577 187.176 100.948 188.333 98.1442 186.995C96.8671 183.122 99.5689 181.992 101.212 180.934ZM127.311 134.058C128.231 134.094 129.155 134.8 130.079 134.883C130.118 135.873 130.023 136.863 129.795 137.828C129.661 140.881 124.302 139.938 121.774 141.633C121.558 141.66 121.34 141.638 121.134 141.569C120.929 141.5 120.741 141.386 120.586 141.234C119.863 141.566 120.322 140.705 120.306 140.145C121.853 137.615 122.911 134.763 127.311 134.058ZM124.002 0L248.004 124.497L124.002 249L0 124.497L124.002 0Z" fill="#C08775"/>
</g>
<defs>
<clipPath id="clip0_1_696">
<rect width="248" height="249" fill="white"/>
</clipPath>
</defs>
</svg>
