<svg width="261" height="261" viewBox="0 0 261 261" fill="none" xmlns="http://www.w3.org/2000/svg">
<g clip-path="url(#clip0_1_672)">
<path fill-rule="evenodd" clip-rule="evenodd" d="M130.503 0.25C202.579 0.25 261.005 58.4527 261.005 130.253C261.005 202.053 202.579 260.255 130.503 260.255C58.4266 260.255 0 202.053 0 130.253C0 58.4527 58.4266 0.25 130.503 0.25ZM130.503 10.7784C196.74 10.7784 250.437 64.2692 250.437 130.253C250.437 196.236 196.74 249.727 130.503 249.727C64.2654 249.727 10.5688 196.236 10.5688 130.253C10.5688 64.2692 64.2654 10.7784 130.503 10.7784ZM129.405 86.1368C140.531 84.9289 152.951 90.4352 158.49 95.3702C164.831 100.496 169.67 106.862 173.253 116.786C176.527 127.546 176.04 139.093 171.872 149.541C165.126 162.398 156.125 171.311 137.62 175.821C122.9 178.575 109.026 172.453 101.778 166.115C95.9939 160.124 91.8265 156.435 87.9212 145.635C82.2736 130.77 87.7355 111.53 95.1583 103.211C102.669 94.4398 110.468 87.1869 129.405 86.1368ZM36.5842 118.62C45.591 117.559 50.8453 121.144 58.6286 123.751C65.975 127.048 75.5335 122.75 78.6523 119.686C79.9304 119.001 78.5539 120.959 79.9467 120.834C80.7878 122.706 78.3682 122.537 79.2421 124.969C78.1606 124.48 78.8489 125.753 78.0624 126.732C78.0624 130.449 78.0623 134.165 77.3523 137.729C73.2613 138.741 70.3119 141.113 64.342 140.008C58.3229 137.892 53.9806 135.057 48.3111 132.032C43.2806 128.941 31.8487 126.629 26.4632 129.883C26.1682 127.663 28.5933 124.376 29.8605 122.739C31.6411 121.03 32.7609 119.599 36.5842 118.62ZM65.1011 95.6259C66.5945 95.5942 68.0881 95.6761 69.569 95.8708C76.7733 97.5793 76.2272 104.707 83.9558 106.187C85.0373 105.697 84.3491 106.97 84.6331 108.037C82.9508 109.686 82.2899 112.357 80.3454 114.463C69.4652 113.696 71.7757 102.074 63.3369 99.1462H60.9773C61.6655 97.873 59.7047 99.2442 60.4803 97.4051C61.0757 96.5672 64.4184 96.9535 65.1011 95.6259ZM62.4357 49.1921C75.0365 49.6437 79.985 53.8006 83.0109 64.8786C86.015 77.7303 89.8329 84.0202 100.746 87.1107C97.1082 91.8988 92.2088 95.4301 87.4897 99.7339C86.6298 99.7435 85.7729 99.6317 84.9445 99.402C78.5267 96.3659 74.5394 84.9343 73.9878 73.5952C74.0588 60.738 69.58 54.9922 60.9064 52.3751C59.4863 51.0366 60.9009 49.6981 62.4357 49.1921ZM104.58 56.2981C105.165 56.2981 105.755 56.2981 107.142 56.3525C110.337 59.5192 112.653 60.8523 112.97 67.8984C111.664 74.2699 114.619 76.9741 117.825 79.6021C118.252 81.9254 114.051 82.2954 111.408 84.0746C107.322 82.7089 105.481 78.7424 104.536 72.1478C104.668 69.4055 106.066 66.6687 105.689 63.4367C106.366 59.6987 102.821 58.6649 104.58 56.2981ZM137.707 21.2088C141.574 23.4941 145.753 30.0396 143.491 37.8911C140.312 45.2746 137.041 48.7133 135.577 58.382C134.648 61.5161 135.249 66.1682 136.839 70.0259C138.035 72.2567 140.383 74.6181 141.694 78.0133C143.267 78.405 141.306 79.6782 140.285 79.3517C135.85 76.0273 128.203 80.1407 123.02 78.0296C120.813 73.5897 120.469 66.8864 121.884 60.8196C124.992 52.2772 128.247 46.711 132.409 41.2482C134.583 38.68 136.068 36.8409 137.401 32.2215C138.767 28.07 134.861 23.0207 137.707 21.2088ZM160.549 55.6779C162.444 55.5418 161.357 56.9946 162.723 58.2569C164.596 67.572 158.02 69.4872 155.835 73.9053C155.835 76.8435 155.835 79.7762 155.999 83.7373C153.355 83.6339 149.887 80.8916 146.386 80.4454C144.868 73.6713 147.255 69.8409 151.99 67.1748C156.403 64.982 159.069 62.5444 160.549 55.6779ZM204.152 54.5406C204.469 54.499 204.792 54.5325 205.093 54.6384C205.395 54.7443 205.668 54.9195 205.889 55.15C206.216 56.1947 207.14 56.6463 207.56 58.0011C210.876 75.9892 203.256 81.7513 187.52 83.4054C178.355 86.6319 174.914 88.5091 173.51 97.971C172.238 98.3628 173.609 99.6359 171.598 99.2932C167.723 95.2775 163.427 91.6859 158.785 88.5798C158.76 87.8612 158.858 87.1437 159.074 86.4578C161.133 79.5531 166.945 76.3266 176.514 73.0892C185.117 70.5536 197.018 71.1956 200.525 65.8253C202.251 62.2669 203.633 58.8282 204.152 54.5406ZM185.985 98.1669C192.234 96.2571 200.602 102.748 205.916 98.5586C206.998 98.0689 206.309 99.3421 206.528 100.441C204.703 104.13 200.405 106.829 193.086 106.192C185.466 107.117 185.264 111.291 181.763 114.991C181.443 115.03 181.118 114.998 180.812 114.896C180.506 114.794 180.226 114.626 179.994 114.403C178.715 114.893 180.092 113.625 178.814 112.645C178.821 111.841 178.771 111.038 178.666 110.241C177.339 107.716 176.148 106.813 174.881 103.652C179.054 101.725 180.562 98.6566 185.985 98.1669ZM188.831 117.929H198.258C198.848 119.001 199.438 118.32 200.028 119.099C200.703 119.061 201.377 119.179 202 119.441C214.48 122.771 214.617 137.141 233.608 135.536C234.198 135.732 234.788 135.046 235.411 136.744C235.028 137.734 236.033 140.101 234.728 140.324C229.108 146.494 214.721 143.921 210.45 139.328C205.479 134.274 192.338 132.766 184.707 137.881C183.429 137.489 184.806 136.221 183.517 136.075C184.682 130.807 184.275 125.315 182.348 120.274C182.544 119.882 181.862 118.609 182.938 118.565C184.904 118.163 186.865 119.131 188.831 117.929ZM182.271 148.36C196.647 149.351 194.626 160.706 204.152 166.642H206.506C206.549 166.923 206.532 167.209 206.457 167.483C206.381 167.757 206.249 168.012 206.069 168.231C199.291 170.233 193.392 166.833 191.726 162.861C189.913 160.537 183.309 156.941 176.46 159.014C176.46 158.426 176.46 157.839 176.438 156.663C178.934 155.227 179.005 149.775 182.271 148.36ZM171.746 164.879C172.336 164.879 172.926 164.879 173.931 164.907C178.481 167.551 180.704 168.873 183.08 173.884C186.739 180.207 185.953 190.354 188.722 198.13C192.026 204.033 194.714 208.723 204.152 209.485C204.152 210.073 204.152 210.66 203.524 210.998C198.144 213.495 189.17 212.641 184.931 208.25C181.206 206.193 179.551 193.793 176.339 188.396C172.609 183.978 168.436 179.913 158.785 177.791C157.703 178.281 158.392 177.013 158.124 176.099C162.788 172.241 168.791 169.613 171.746 164.879ZM150.532 180.142C151.122 180.142 151.711 180.142 153.011 180.131C155.781 181.899 158.239 186.372 158.757 192.411C156.747 197.934 158.594 203.424 162.002 205.464C159.631 207.287 156.043 204.604 154.748 203.397C152.165 202.482 149.914 197.776 149.701 192.667C148.991 186.736 146.195 185.37 144.671 181.97C146.572 181.475 149.516 180.985 150.532 180.142ZM133.015 235.058C125.795 227.658 132.267 212.739 136.92 209.79C142.213 207.135 144.726 192.395 140.214 184.571C134.364 184.146 128.968 184.119 122.255 183.074C121.174 182.585 121.862 183.858 121.906 184.799C123.828 188.749 128.039 192.623 127.624 201.421C127.821 207.777 123.266 212.554 121.572 219.279C121.174 229.383 125.603 234.53 131.83 236.179M106.519 177.611C108.737 179.249 111.528 179.636 114.947 181.796C116.192 195.512 103.69 193.875 99.8665 203.032C99.8665 204.398 99.8665 205.769 99.7299 207.864C96.0431 207.118 94.3663 203.816 95.9667 198.184C98.0422 192.885 102.379 190.866 104.93 185.354C106.519 182.971 103.963 178.547 106.519 177.611ZM87.6809 160.586C90.7669 164.357 93.6344 168.351 98.0968 171.338C99.3749 170.848 97.9986 172.121 98.8725 173.123C94.4647 182.677 90.3191 186.84 79.0893 190.033C74.3374 191.443 68.0724 191.345 64.899 193.994C62.1844 197.069 59.5027 198.75 58.454 206.079C54.4831 205.116 53.5272 199.838 55.4335 193.429C57.9569 185.866 68.5094 185.202 74.6213 180.229C77.4724 177.987 80.4056 175.821 83.1365 172.698C85.2995 170.968 85.9003 163.661 87.6809 160.586ZM81.0118 146.097C82.2899 145.417 80.9136 147.37 82.2135 147.207C80.3674 151.571 83.1911 153.481 85.1356 155.488C85.1356 156.076 85.1356 156.663 84.3491 157.012C77.183 161.958 64.9427 153.883 59.7976 161.359C59.4098 161.163 58.1317 161.849 58.6014 160.304C59.7321 157.621 60.8025 155.82 61.387 152.991C66.7451 149.209 79.2639 152.022 81.0118 146.097Z" fill="#FF6666"/>
</g>
<defs>
<clipPath id="clip0_1_672">
<rect width="261" height="260" fill="white" transform="translate(0 0.25)"/>
</clipPath>
</defs>
</svg>
