<svg width="262" height="262" viewBox="0 0 262 262" fill="none" xmlns="http://www.w3.org/2000/svg">
<g clip-path="url(#clip0_1_674)">
<path fill-rule="evenodd" clip-rule="evenodd" d="M21.9334 136.893C21.9334 136.893 76.1008 158.759 106.505 182.317C106.505 182.317 103.78 217.703 105.036 221.147C105.036 221.147 69.8528 174.493 52.8183 163.269C52.8183 163.269 86.0189 204.852 93.239 223.405C62.9986 209.857 54.4622 190.81 21.9334 136.893ZM109.449 224.808C109.449 224.808 102.529 162.638 153.572 123.704C153.572 123.704 144.25 202.687 150.634 221.147C150.634 221.147 139.531 225.32 135.921 225.543C135.921 225.543 133.796 183.574 136.658 163.269C136.658 163.269 121.404 206.979 124.157 227.007C124.157 227.007 112.535 226.86 109.449 224.808ZM157.248 172.061C157.248 172.061 173.835 159.248 188.876 158.873C188.876 158.873 192.824 121.539 230.793 92.9374C230.793 92.9374 172.688 111.789 158.723 139.091C158.723 139.091 158.209 146.931 157.985 150.081C157.985 150.081 172.808 123.509 204.315 107.589C204.315 107.589 174.736 132.366 157.248 172.061ZM156.516 179.384C156.516 179.384 192.519 147.866 235.943 177.186C235.943 177.186 180.192 194.809 157.248 218.214V202.099C157.248 202.099 183.562 171.947 211.672 173.525C211.672 173.525 190.105 169.912 157.248 193.307L156.516 179.384ZM69.7326 153.742C69.7326 153.742 53.5556 88.0952 41.0542 66.561C41.0542 66.561 103.96 135.152 113.862 165.467C113.862 165.467 108.537 172.605 107.98 177.921L96.2101 170.592C96.2101 170.592 78.8916 122.317 67.5262 108.324C67.5262 108.324 83.2717 158.492 82.9714 161.071L69.7326 153.742ZM116.8 157.404C116.8 157.404 119.853 152.774 120.481 152.279C120.481 152.279 115.424 129.831 115.331 121.506C115.331 121.506 123.933 119.738 121.213 117.11C121.213 117.11 136.39 114.526 135.921 106.126C135.921 106.126 136.675 103.536 133.714 104.657C133.714 104.657 134.321 95.6904 125.626 100.995C125.626 100.995 128.438 93.7372 122.688 92.9374C122.688 92.9374 117.013 90.7775 113.124 98.797C113.124 98.797 106.478 96.7296 105.773 100.995C105.773 100.995 91.4094 92.9592 91.0599 100.995C91.0599 100.995 88.3401 100.734 89.5908 103.193C90.8415 105.652 98.3074 108.857 101.36 109.787C101.36 109.787 84.0582 106.175 87.3843 113.449C87.3843 113.449 82.1084 124.428 103.567 120.043C103.567 120.043 103.955 122.589 110.181 122.241C110.181 122.241 114.326 149.477 116.8 157.404ZM138.127 57.7689C138.127 57.7689 126.314 60.7504 128.57 65.0975C128.57 65.0975 123.78 69.3902 130.776 73.1551C137.772 76.9201 149.159 70.2226 149.159 70.2226C149.159 70.2226 153.534 72.1812 156.516 73.1551C156.516 73.1551 149.82 112.687 148.045 120.282C147.968 120.701 147.849 121.111 147.69 121.506C146.844 122.774 150.563 118.574 153.572 116.381L161.661 74.6187C161.661 74.6187 169.274 78.2748 176.374 70.9571C176.374 70.9571 179.438 65.9952 174.9 65.0975C174.9 65.0975 187.914 65.8755 189.608 59.2379C191.301 52.6003 185.446 48.6884 172.693 53.3728C172.693 53.3728 174.364 50.0758 167.549 50.4457C167.549 50.4457 156.898 44.5154 151.366 51.1748C151.366 51.1748 134.211 47.5078 138.127 57.7689ZM131.005 0.244629C203.354 0.244629 262.005 58.672 262.005 130.75C262.005 202.828 203.354 261.25 131.005 261.25C58.6566 261.25 0 202.823 0 130.75C0 58.6775 58.6512 0.244629 131.005 0.244629Z" fill="#96D07D"/>
</g>
<defs>
<clipPath id="clip0_1_674">
<rect width="262" height="261" fill="white" transform="translate(0 0.25)"/>
</clipPath>
</defs>
</svg>
