<svg width="248" height="248" viewBox="0 0 248 248" fill="none" xmlns="http://www.w3.org/2000/svg">
<g clip-path="url(#clip0_1_698)">
<path fill-rule="evenodd" clip-rule="evenodd" d="M167.11 74.0389H168.294C184.352 90.5116 200.408 106.988 216.463 123.467V124.258C194.49 146.796 172.513 169.335 150.53 191.876C140.531 184.007 128.749 168.971 126.443 153.915H126.05C125.755 169.158 134.027 175.336 140.262 183.965C115.87 180.548 98.0647 164.452 81.0398 153.124C81.1691 152.861 81.3035 152.597 81.4328 152.333C87.0939 151.408 92.7533 150.486 98.411 149.567C89.5652 149.65 69.0247 151.966 62.8776 149.169C62.0969 145.126 58.4521 129.025 60.5046 127.423C65.6643 125.458 71.1547 129.305 75.5079 128.607C82.7666 127.443 85.4085 119.109 89.7254 114.766C94.3836 116.88 98.8402 117.966 105.913 117.93C102.888 116.875 99.8603 115.82 96.829 114.766C86.1633 110.386 74.872 101.83 77.0899 85.9049H77.4829C82.1566 88.2109 106.037 96.6592 113.414 94.2085C116.18 92.4919 118.945 90.777 121.707 89.0639C127.89 86.6959 134.076 84.3243 140.262 81.9494L167.11 74.0389ZM100.386 78.7853L123.682 85.1137C118.15 85.9771 109.801 95.2527 104.331 89.8549C103.017 86.1684 101.703 82.4787 100.386 78.7853ZM81.0398 91.437C80.983 98.691 85.5274 103.034 89.7254 106.069C88.4071 104.094 87.0904 102.117 85.7755 100.139C85.9099 100.004 86.0392 99.875 86.1684 99.7406C95.8467 99.5183 101.689 102.776 108.281 105.671C103.814 98.0241 92.1088 92.2229 81.0398 91.437ZM91.7004 124.258C91.8917 128.084 92.6982 128.674 92.0933 131.771H92.4862C93.8253 127.986 96.6894 127.5 99.2021 125.049L91.7004 124.258ZM64.0615 133.746C64.8215 136.972 64.3821 141.626 65.6384 144.03C65.902 143.895 66.1657 143.766 66.4294 143.632C67.2773 139.676 68.2078 134.93 64.0615 133.746ZM123.997 -0.00537109L247.995 124L123.997 248.005L0 124L123.997 -0.00537109Z" fill="#6B9FE0"/>
</g>
<defs>
<clipPath id="clip0_1_698">
<rect width="248" height="248" fill="white"/>
</clipPath>
</defs>
</svg>
