<svg width="248" height="248" viewBox="0 0 248 248" fill="none" xmlns="http://www.w3.org/2000/svg">
<g clip-path="url(#clip0_1_700)">
<path fill-rule="evenodd" clip-rule="evenodd" d="M124.001 0L247.994 123.998L124.001 247.995L0.00390625 123.998L124.001 0ZM124.001 10.0919L237.907 123.998L124.001 237.908L10.0906 123.998L124.001 10.0919ZM118.919 68.1666C119.312 68.2958 119.71 67.8358 120.594 68.5286C120.387 76.6041 116.624 79.246 113.791 84.7727C113.655 85.8144 113.788 86.8735 114.178 87.8489C117.704 88.945 120.641 89.8394 123.665 91.4886C126.854 93.5045 129.876 95.7726 132.703 98.2715C136.249 99.9983 137.2 104.31 140.861 106.321C147.599 113.675 153.719 121.572 159.157 129.933C160.636 131.753 161.691 133.996 164.007 135.253C166.287 139.172 168.965 140.691 173.483 142.475C178.622 145.257 183.761 144.342 189.764 144.507C182.247 152.505 173.944 159.536 166.225 167.668C158.723 175.584 150.792 183.075 141.279 189.729C137.061 187.49 135.536 182.553 133.183 178.127C129.078 172.849 127.284 160.653 123.743 151.212C122.316 147.411 120.493 143.77 118.304 140.35C117.177 136.555 113.01 135.971 112.147 131.287C113.542 130.16 114.861 127.761 115.755 123.915C115.621 123.651 116.086 122.798 114.799 122.964C112.224 126.583 110.353 130.9 106.563 133.562C103.078 135.377 97.4482 136.84 92.7952 135.852C89.6105 135.47 85.3349 134.886 82.8688 132.905C78.2209 133.877 71.562 135.904 69.2148 138.21C67.2915 141.953 65.3683 144.197 59.2056 145.231C58.2027 144.517 57.6391 144.833 56.6982 143.938C57.2824 141.493 60.5654 141.741 62.3749 140.128C62.6385 139.27 63.4968 140.195 63.1349 138.877C59.5934 139.802 56.7086 141.405 53.8134 143.256C48.9897 139.74 47.5473 134.637 44.7503 127.963C46.9372 125.109 51.4507 123.662 54.5113 120.797C63.3055 113.115 70.802 104.134 80.4699 96.9376C82.1605 93.6185 83.0859 89.5343 87.4494 88.5934C92.2627 85.5121 104.407 83.842 105.426 78.915C108.352 73.502 111.175 70.2863 118.919 68.1666ZM88.075 96.2399C89.0004 96.2399 89.9207 96.2397 91.6681 96.2242C89.6932 97.7959 88.5713 100.36 86.493 102.17C86.1 102.17 85.7019 102.17 84.9419 102.144C84.1975 101.436 84.7765 99.4037 84.0785 98.1526C84.1974 96.7309 86.4775 96.9378 88.075 96.2399ZM49.3258 128.263C49.7776 128.221 50.2289 128.348 50.5925 128.62C51.0371 128.749 51.0681 130.341 51.3059 131.427C50.9078 130.967 50.5149 132.285 49.7342 131.722C49.0466 131.406 47.6404 129.271 49.3258 128.263ZM107.111 80.3161C108.724 79.4165 109.37 78.7032 111.857 78.3723C112.472 78.7445 111.686 81.0708 112.219 82.0635C113.449 82.4668 112.524 81.1485 113.382 81.6086C114.98 79.0184 116.355 77.4674 117.348 74.1999C116.81 73.4399 117.27 72.5818 116.546 72.9127C110.942 74.2104 108.238 76.5059 106.005 80.2025C106.356 80.3401 106.739 80.3792 107.111 80.3161ZM119.509 85.7602C119.509 85.7602 124.167 80.2075 142.05 82.2031C142.05 82.2031 146.739 83.9972 158.258 79.8301C158.258 79.8301 167.502 77.7932 170.516 77.8553C170.516 77.8553 157.11 81.7638 157.865 84.5763C164.547 84.0599 171.265 84.8662 177.635 86.9492C187.696 90.3873 194.634 89.3171 194.634 89.3171C194.634 89.3171 193.14 93.815 177.237 93.2721C161.334 92.7293 157.865 96.8291 157.865 96.8291C157.865 96.8291 161.07 98.3181 176.446 98.8092C176.446 98.8092 189.609 98.4938 192.261 102.366C188.11 102.727 184.075 103.93 180.404 105.902C176.733 107.873 173.502 110.572 170.909 113.833C170.909 113.833 169.363 117.235 191.47 117.788C191.47 117.788 209.601 115.012 217.17 121.743C217.17 121.743 201.934 120.983 192.659 132.414C192.659 132.414 206.256 131.086 206.494 131.23L194.634 140.723C194.634 140.723 177.071 142.894 170.516 137.559C163.96 132.223 154.701 117.788 154.701 117.788C156.491 117.555 158.229 117.02 159.84 116.206C159.84 116.206 152.643 116.387 149.955 112.251C153.654 111.145 157.133 109.407 160.238 107.112C160.238 107.112 146.729 109.361 136.115 97.6202C136.115 97.6202 140.633 97.7546 144.418 96.0382C144.418 96.0382 135.081 95.5832 128.603 91.2973C128.603 91.2973 134.46 91.7728 146.398 88.9241C141.862 88.4874 137.367 87.694 132.956 86.5511C125.035 84.571 119.509 85.7602 119.509 85.7602Z" fill="#FF6666"/>
</g>
<defs>
<clipPath id="clip0_1_700">
<rect width="248" height="248" fill="white"/>
</clipPath>
</defs>
</svg>
