<svg width="248" height="248" viewBox="0 0 248 248" fill="none" xmlns="http://www.w3.org/2000/svg">
<g clip-path="url(#clip0_1_702)">
<path fill-rule="evenodd" clip-rule="evenodd" d="M155.602 78.7858C155.271 94.9741 127.079 98.8931 119.246 110.816C134.451 101.106 150.483 86.4224 172.197 83.9251C169.504 102.29 153.715 112.284 138.608 118.328C130.677 121.498 116.925 121.513 114.107 129.796C138.034 123.039 170.383 135.029 183.659 142.448C183.359 128.338 205.895 121.586 207.767 136.518L185.634 157.473C176.152 155.648 166.665 152.215 155.602 150.353C127.301 145.597 100.727 158.435 85.2585 169.334C80.3832 173.289 75.5097 177.244 70.6378 181.2C74.4533 174.08 78.2721 166.962 82.0945 159.846V159.448C74.8668 159.484 66.7034 158.828 62.3347 155.891C61.0991 132.257 76.7229 129.383 95.1385 123.861C99.6777 103.019 129.803 79.2357 155.602 78.7858ZM145.722 83.9251C130.537 91.6341 121.986 98.8674 113.316 112.791C124.23 103.996 132.383 87.9114 148.095 84.3232V83.9251H145.722ZM161.532 91.8356C147.516 98.7794 134.136 101.892 126.753 115.164C139.704 111.529 157.794 103.67 162.716 91.8356H161.532ZM112.923 113.189C112.789 113.453 112.66 113.716 112.525 113.98L113.316 113.189H112.923ZM84.4676 135.328C82.5443 136.9 81.3293 137.717 80.1196 140.075C80.5177 140.602 80.9106 141.129 81.3035 141.657C86.0496 141.74 88.4433 139.992 89.9994 136.911C89.6065 136.647 89.2084 136.383 88.8155 136.119L84.4676 135.328ZM140.981 152.334C158.693 151.977 171.556 154.924 182.868 160.637C182.605 161.03 182.341 161.428 182.077 161.821C179.446 164.194 176.812 166.567 174.177 168.941C168.904 166.702 163.634 164.461 158.368 162.219C134.953 155.958 106.905 165.037 90.7905 172.498C95.1953 165.223 117.897 156.796 127.937 154.309C132.285 153.652 136.633 152.994 140.981 152.334ZM123.997 -0.00488281L247.995 124L123.997 248.006L0 124L123.997 -0.00488281Z" fill="#96D07D"/>
</g>
<defs>
<clipPath id="clip0_1_702">
<rect width="248" height="248" fill="white"/>
</clipPath>
</defs>
</svg>
