<svg width="260" height="261" viewBox="0 0 260 261" fill="none" xmlns="http://www.w3.org/2000/svg">
<g clip-path="url(#clip0_1_676)">
<path fill-rule="evenodd" clip-rule="evenodd" d="M130.003 0.25C201.803 0.25 260.005 58.4527 260.005 130.253C260.005 202.053 201.803 260.255 130.003 260.255C58.2027 260.255 0 202.053 0 130.253C0 58.4527 58.2027 0.25 130.003 0.25ZM130.003 10.7784C195.986 10.7784 249.477 64.2692 249.477 130.253C249.477 196.236 195.986 249.727 130.003 249.727C64.0192 249.727 10.5283 196.236 10.5283 130.253C10.5283 64.2692 64.0192 10.7784 130.003 10.7784ZM79.2051 195.012C82.35 197.308 85.3862 196.835 90.0492 198.908C104.794 203.984 119.54 205.187 134.535 202.107C147.795 199.223 154.694 194.571 160.995 190.577C171.316 181.997 176.262 176.453 183.319 157.637C184.533 151.228 189.294 138.507 181.437 137.146C177.378 131.379 175.397 120.617 171.115 118.593C171.784 106.198 165.255 103.853 156.713 100.985C151.941 99.6904 147.164 99.5761 141.897 101.736C135.716 103.145 136.118 105.686 131.401 107.613C118.811 102.084 99.9083 106.432 104.207 122.14C102.596 126.177 97.8843 126.292 98.7439 134.388C100.104 139.644 105.349 144.399 115.546 143.262C124.208 144.089 123.484 129.203 118.087 127.38C118.102 126.63 118.04 125.881 117.902 125.144C122.842 120.949 132.103 121.933 139.459 122.004C151.201 125.492 157.012 129.284 158.987 145.27C160.456 153.709 157.338 165.979 153.66 172.361C147.022 181.752 140.879 186.78 125.563 191.258C110.611 195.877 95.6588 195.251 80.7068 195.072M213.784 100.501C222.865 99.9081 228.736 104.288 231.097 109.071C234.503 123.517 234.019 137.963 231.217 152.604C227.843 167.567 222.685 176.197 218.469 184.217C209.953 198.059 198.772 209.278 184.195 218.474C176.774 223.779 159.509 231.804 141.14 234.459C128.468 235.945 115.802 235.939 102.961 233.121C80.4076 227.364 70.3145 220.737 58.8502 212.271C48.0878 203.897 39.2951 193.586 31.4872 181.094C30.3446 180.484 31.0683 179.875 31.7756 179.32C36.8847 183.417 44.6164 185.708 54.8728 189.555C65.1781 191.633 67.5886 195.393 73.5846 197.732C85.9466 203.723 102.389 207.624 116.917 208.528C127.293 209.137 139.008 206.596 149.367 202.586C160.513 197.876 170.453 190.712 178.444 181.627C182.199 177.378 185.066 172.247 187.917 166.446C191.127 158.307 192.493 150.172 191.497 141.483C195.638 139.682 198.837 138.626 200.317 134.279C206.738 152.147 196.77 176.137 188.918 183.956C181.916 191.578 173.633 197.915 164.444 202.678C145.852 212.304 121.014 216.395 99.3316 210.883C89.0644 208.767 76.3432 204.028 69.7868 200.398C61.7449 197.172 56.4834 192.215 47.6852 188.417C47.0595 188.624 46.4392 187.911 45.7863 190.213C57.9089 200.339 69.9228 207.673 94.4129 214.306C110.818 218.218 127.222 219.355 144.236 215.312C171.355 207.369 180.566 199.202 194.044 185.131C198.777 178.575 203.598 170.919 206.384 156.381C208.898 146.162 206.574 128.446 198.288 124.779C196.742 126.488 197.493 131.433 195.388 132.995C194.359 134.611 191.992 135.841 187.645 136.2C182.389 135.28 179.712 129.529 182.335 122.679C184.707 118.843 186.132 116.362 192.635 114.381C205.345 114.479 209.066 120.666 212.946 127.782C220.15 144.089 213.071 168.253 205.911 178.449C194.593 196.399 180.637 208.772 157.893 217.75C129.404 228.882 100.578 223.637 71.3592 212.222C70.7389 211.515 70.1132 213.55 69.4875 213.767C73.8893 218.887 87.0783 222.527 99.4784 225.112C120.007 231.026 141.935 229.356 162.371 221.428C184.614 212.091 201.09 197.101 212.092 176.638C218.79 166.534 222.402 146.864 219.481 132.304C217.293 123.8 214.584 120.97 209.991 116.4C206.852 113.549 199.572 109.098 190.257 111.122C192.683 107.406 197.276 103.858 205.416 105.583C207.619 103.151 209.317 102.161 213.784 100.501ZM166.463 55.1174C176.322 56.2056 181.181 59.5627 185.512 63.0504C183.564 64.797 179.418 65.4499 176.709 66.4783C175.152 65.5316 172.786 64.2039 170.391 64.5249C169.053 59.2362 156.778 56.0642 152.539 61.4453C151.593 60.0524 149.079 59.4975 148.029 59.6226C141.788 61.2876 138.937 66.5762 141.799 73.8454C142.342 74.1967 142.989 74.3504 143.633 74.2807C146.832 69.2587 156.555 71.397 153.905 79.3681C152.202 82.5239 147.463 85.0866 141.636 84.6622C135.52 83.019 134.051 81.1473 131.265 78.3615C124.828 71.5276 129.094 56.4504 134.867 55.15C136.771 49.4533 139.938 46.0418 143.556 43.0764C149.759 38.0434 162.007 38.9303 168.803 42.467C180.539 35.6222 187.857 45.0297 192.531 47.8101C198.875 53.1205 203.854 58.616 208.843 64.106C210.71 64.9222 208.637 66.2443 208.424 65.7329C203.435 59.2363 197.199 59.8511 190.23 60.7869C184.881 55.4656 170.375 53.6919 161.321 53.5613C161.076 53.5286 166.463 55.1174 166.463 55.1174ZM217.206 87.6548C219.812 91.1642 221.091 97.5575 226.146 98.2104C227.637 99.2007 226.908 97.8785 227.12 97.4759C220.77 81.4847 220.917 72.7301 207.075 69.3457C204.779 67.0442 202.194 65.3574 197.14 64.329C188.635 63.8121 188.374 69.0791 183.14 69.8082C178.417 70.1238 176.159 72.3763 174.249 73.0293C172.432 75.3852 169.162 80.4618 170.832 85.3206C168.563 88.7702 164.445 94.0154 167.345 100.686C168.172 105.637 179.13 105.703 180.572 101.916C182.661 100.659 182.161 96.1211 180.925 95.1145C180.577 92.5028 174.559 94.2548 174.69 92.1545C175.522 83.0517 184.032 79.9557 192.417 84.2759C197.51 88.471 201.253 91.1969 202.934 100.556C205.084 99.8972 206.161 98.711 207.771 98.0527C203.653 86.5231 199.817 80.9678 187.661 76.8108C187.661 76.8108 203.217 76.234 212.788 96.3006C214.241 96.2407 215.694 95.1635 217.239 94.973C216.461 92.5463 207.195 77.2896 207.195 77.2896C210.794 80.482 214.141 83.9473 217.206 87.6548ZM127.516 30.3661C140.112 28.1788 154.335 30.9483 166.681 37.0477C167.306 36.8409 167.927 37.5537 169.205 35.8779C160.777 29.8982 128.082 18.6135 119.589 31.6665C104.789 31.0952 100.844 38.2665 100.202 51.4175C96.894 52.7777 94.4019 59.9491 96.2247 66.3477C97.3673 71.5439 99.9029 73.6495 107.477 74.7976C111.128 73.47 112.145 72.3601 113.658 69.3947C114.436 65.1398 112.08 63.1049 106.242 63.6272C106.345 54.8998 110.665 49.796 121.215 50.8679C122.625 49.0452 127.298 45.8296 132.99 47.3748C133.833 45.9602 135.139 45.0025 134.927 43.2124C133.398 42.4126 131.815 42.6683 130.547 41.3516C125.77 41.2427 120.992 41.036 115.595 42.8805C110.181 45.0678 110.415 45.3344 104.37 48.8275C107.961 43.7946 112.983 41.1557 123.696 38.6474C127.959 37.6977 132.383 37.7331 136.63 38.7507C142.571 40.9924 141.728 36.6505 147.49 35.9269M81.3272 92.5898H83.8192C83.0956 93.912 85.1685 92.4864 85.1032 93.8467C84.7006 94.875 85.7616 97.3399 84.4449 98.0853C83.0955 97.3725 84.5483 99.4074 82.5623 98.7056C80.9844 98.8307 80.0975 98.2703 79.3304 96.9209C77.9483 94.5486 80.2009 92.6823 81.3272 92.5898ZM116.89 85.8266C119.202 85.7994 120.078 87.1814 120.568 89.532C120.769 91.1534 120.334 92.1491 118.707 92.5898C117.913 92.5974 117.119 92.561 116.329 92.481C115.779 92.1959 115.309 91.7769 114.963 91.2625C114.617 90.748 114.405 90.1548 114.349 89.5374C114.12 87.2794 115.344 86.4469 116.89 85.8266ZM100.594 152.452C102.656 151.859 102.613 153.328 103.755 154.237C103.548 154.645 104.278 155.967 103.135 156.07C101.786 155.358 103.238 157.393 101.263 156.68C100.85 156.479 99.5002 157.191 99.4947 156.081C98.0801 154.427 99.6961 152.496 100.594 152.452ZM111.231 160.342C111.857 160.342 112.477 160.342 113.81 160.407C115.54 162.039 117.287 161.582 117.461 164.613C117.254 165.021 117.983 166.343 116.944 166.31C112.493 167.785 108.794 167.399 107.586 163.356C108.745 161.326 109.631 161.174 111.231 160.342ZM86.8879 32.82C88.9501 32.227 88.9011 33.696 90.1144 34.6699C89.7281 35.7146 89.8151 37.2273 88.1828 37.6571C87.7638 37.4558 86.4145 38.1631 86.2948 37.162C84.5917 36.4601 85.2882 32.5589 86.8879 32.82ZM224.399 137.342C226.086 150.602 221.51 168.041 215.443 178.591C209.828 188.314 203.402 196.155 194.354 204.653C205.655 197.036 211.292 188.537 217.048 179.206C223.659 168.585 228.616 150.586 225.46 137.408C225.46 137.408 224.628 137.146 224.399 137.342ZM136.45 115.464C148.736 115.371 157.317 121.231 160.783 126.585C166.577 133.43 167.693 145.591 162.916 155.951C164.025 146.94 160.5 133.746 155.777 129.518C151.653 123.522 145.254 120.562 133.066 118.968C131.929 115.567 134.421 116.019 136.45 115.464Z" fill="#6B9FE0"/>
</g>
<defs>
<clipPath id="clip0_1_676">
<rect width="260" height="260" fill="white" transform="translate(0 0.25)"/>
</clipPath>
</defs>
</svg>
