<svg width="248" height="248" viewBox="0 0 248 248" fill="none" xmlns="http://www.w3.org/2000/svg">
<g clip-path="url(#clip0_1_704)">
<path fill-rule="evenodd" clip-rule="evenodd" d="M124.001 0L247.994 123.998L124.001 247.995L0.00390625 123.998L124.001 0ZM124.001 10.0919L237.907 123.998L124.001 237.908L10.0906 123.998L124.001 10.0919ZM60.5964 85.3672C65.3425 87.0785 70.0868 88.7914 74.8295 90.5061C78.1072 86.1375 80.7284 90.5735 82.3414 91.2973C87.0875 90.8992 91.8336 90.5027 96.5796 90.108C101.719 90.5061 106.858 90.9027 111.997 91.2973C116.215 92.4812 120.434 93.6668 124.653 94.8542C133.204 93.2257 139.449 85.2948 151.144 85.3672C163.226 100.82 154.163 108.953 146 120.161C149.033 118.972 152.064 117.785 155.094 116.599C166.054 121.733 179.351 128.821 185.54 138.742C183.518 145.008 175.593 149.346 171.7 154.165C162.094 166.056 145.803 183.789 133.747 192.914C133.219 192.779 132.692 192.65 132.165 192.516C125.956 157.158 106.573 154.221 91.4355 131.23C88.8505 127.301 80.9558 106.544 78.3915 105.132C77.8435 107.34 77.9883 107.433 75.2275 107.505C74.9638 107.376 74.7002 107.242 74.4365 107.112V106.714C74.9639 103.685 75.4912 100.653 76.0185 97.6202H75.2275C69.375 95.454 58.244 99.4399 53.4773 96.0432V95.6451H54.2683L74.0384 94.0633C70.3212 92.8587 62.4318 88.6191 60.5964 85.3672ZM143.627 92.4813C138.462 95.0559 132.304 95.6453 128.603 99.6004C132.925 98.1528 139.966 94.699 144.025 96.8291C145.783 102.092 145.565 106.781 144.816 113.042C150.312 110.369 152.881 98.525 148.771 92.4813H143.627ZM84.3216 93.6702C85.5262 95.2368 94.5117 96.8187 97.3707 95.6451C93.0175 94.9885 88.6678 94.3303 84.3216 93.6702ZM83.5305 96.0432C83.3031 97.4184 83.391 97.2013 83.9235 98.4111C87.3512 100.919 90.7789 103.423 94.2066 105.923C90.6445 102.628 87.0858 99.3348 83.5305 96.0432ZM105.276 96.8291C104.366 97.6201 103.952 97.6563 103.301 98.8092C99.48 104.196 107.385 105.98 110.415 102.366C110.285 101.311 110.151 100.257 110.022 99.2023C109.381 97.8529 109.375 97.8786 108.042 97.2272C107.121 97.0927 106.201 96.9635 105.276 96.8291ZM105.674 152.975C109.603 154.108 114.887 159.655 115.952 163.651C110.616 166.226 102.541 174.043 97.7636 174.328C97.8618 166.009 101.869 157.985 105.674 152.975Z" fill="#6B9FE0"/>
</g>
<defs>
<clipPath id="clip0_1_704">
<rect width="248" height="248" fill="white"/>
</clipPath>
</defs>
</svg>
