<svg width="248" height="248" viewBox="0 0 248 248" fill="none" xmlns="http://www.w3.org/2000/svg">
<g clip-path="url(#clip0_1_706)">
<path fill-rule="evenodd" clip-rule="evenodd" d="M124.001 0L247.994 123.998L124.001 247.995L0.00390625 123.998L124.001 0ZM124.001 10.0919L237.907 123.998L124.001 237.908L10.0906 123.998L124.001 10.0919ZM155.492 145.07C155.285 152.8 151.485 162.504 147.582 167.214C143.894 164.706 140.204 162.2 136.513 159.696C136.151 163.884 131.105 180.645 128.603 181.84C127.057 177.817 111.909 159.95 106.465 170.77C103.694 165.931 91.1873 165.363 91.0426 173.144C83.3134 171.551 80.8266 160.508 81.9485 152.184C82.2122 152.319 82.4759 152.448 82.7395 152.583C83.241 154.413 83.546 154.635 85.1125 155.348C95.5973 160.953 101.739 147.252 101.321 137.559C102.51 137.951 103.694 138.35 104.883 138.742C100.721 129.912 75.4809 124.944 74.4365 138.349C75.8428 140.836 78.5311 141.839 79.5755 144.28H78.3915C65.2856 140.49 56.9929 131.97 49.9203 122.136C54.3355 113.668 64.1895 114.919 72.0634 109.878C73.7747 107.376 75.4877 104.872 77.2025 102.366C82.2587 98.2198 89.3933 94.5905 95.7886 92.0882C103.094 89.2292 114.835 86.9026 125.837 88.526C130.319 88.6604 134.8 88.7931 139.279 88.9241C146.889 87.6213 153.605 83.8886 159.84 82.9942C160.653 84.4396 161.062 86.0772 161.024 87.7351C158.563 93.8874 154.08 98.2871 148.771 101.575C147.845 108.296 146.922 115.019 146 121.743H146.398C152.152 118.481 155.637 112.391 155.492 103.157H156.676C169.57 108.079 195.792 116.884 203.335 126.484C181.192 148.493 159.049 170.503 136.906 192.516C136.642 192.386 136.378 192.252 136.115 192.123C136.907 184.476 137.698 176.831 138.488 169.188C142.701 170.605 146.76 177 151.144 175.517C152.281 166.397 156.531 159.195 156.676 148.235L170.909 146.652C168.934 143.09 166.957 139.532 164.979 135.976H164.586V136.369C165.77 139.27 166.955 142.17 168.143 145.07H155.492ZM154.303 88.526C153.248 88.9241 152.193 89.3172 151.144 89.7152C148.652 96.5862 145.038 96.8447 141.259 101.575C147.39 99.3935 157.084 95.3246 157.074 88.526H154.303ZM112.395 90.108C111.469 90.2425 110.549 90.3717 109.624 90.5061C109.758 90.7698 109.887 91.0336 110.022 91.2973C114.277 92.7191 114.685 94.9008 117.136 98.0183V96.8291C116.427 94.213 115.926 92.0313 114.768 90.108H112.395ZM104.883 92.0882L99.7385 92.8793V93.2721C102.892 94.8542 102.742 98.2975 104.883 100.784V92.0882ZM95.3905 93.6702C92.4695 96.6533 93.5707 97.6564 93.0175 103.157H93.4156V102.366C94.8063 100.691 96.6882 96.612 95.3905 93.6702ZM118.718 102.764C122.378 105.665 132.749 106.125 134.533 110.669L125.837 111.46H126.628C131.229 113.311 135.913 113.528 139.677 115.415C139.542 113.704 139.413 111.988 139.279 110.276C136.161 106.011 124.777 103.617 118.718 102.764ZM91.0426 105.53C88.0595 107.2 82.9722 107.841 81.1575 110.669L79.5755 116.206H79.9736C81.4005 114.629 94.1549 106.988 91.0426 105.53ZM120.698 115.017C120.563 115.281 120.434 115.544 120.3 115.808C122.223 117.845 124.312 119.66 126.23 121.743C125.635 118.719 124.704 116.589 122.673 115.017H120.698ZM117.534 126.091C109.629 126.221 101.72 126.352 93.8085 126.484C99.8057 127.001 107.819 128.583 111.997 131.23L110.415 128.066C116.65 127.984 121.499 129.41 124.653 132.414C123.867 127.394 120.506 123.072 117.136 120.554H116.743L117.534 126.091ZM70.8796 122.136C68.9098 123.93 63.9517 124.184 62.5713 126.484C67.2553 126.877 69.7939 125.952 71.6654 122.534C71.4017 122.4 71.1432 122.271 70.8796 122.136ZM72.8545 126.882C71.0295 129.323 69.3337 129.297 66.5264 130.837V131.23C66.7901 131.365 67.0537 131.494 67.3174 131.628C70.4815 132.285 74.4985 128.961 72.8545 126.882ZM138.886 133.604C139.015 137.16 139.146 140.719 139.279 144.28C135.329 143.618 131.375 142.958 127.419 142.299C127.021 144.409 126.624 146.518 126.23 148.627C124.653 147.18 123.072 145.731 121.489 144.28C123.541 149.129 123.727 156.134 126.23 161.278L129.394 145.07H129.792C134.538 146.223 138.622 148.488 142.443 150.602C142.52 145.246 142.407 141.033 142.05 135.976L154.303 136.767V136.369C152.984 134.131 151.668 131.89 150.353 129.648C150.88 131.365 151.406 133.078 151.93 134.787C147.582 134.395 143.234 134 138.886 133.604Z" fill="#96D07D"/>
</g>
<defs>
<clipPath id="clip0_1_706">
<rect width="248" height="248" fill="white"/>
</clipPath>
</defs>
</svg>
