<svg width="261" height="262" viewBox="0 0 261 262" fill="none" xmlns="http://www.w3.org/2000/svg">
<g clip-path="url(#clip0_1_678)">
<path fill-rule="evenodd" clip-rule="evenodd" d="M130.5 0.244629C202.573 0.244629 261 58.6701 261 130.747C261 202.825 202.573 261.25 130.5 261.25C58.4265 261.25 0 202.819 0 130.747C0 58.6755 58.4276 0.244629 130.5 0.244629ZM25.651 177.881C25.651 177.881 87.2114 160.885 232.143 166.976C232.143 166.976 53.5891 171.377 27.5748 185.578L25.651 177.881ZM32.696 188.33C50.794 184.017 123.598 168.728 234.708 172.111C234.708 172.111 139.309 175.978 47.4545 210.586C47.4562 210.586 42.002 203.591 32.696 188.33ZM51.9433 215.715C51.9433 215.715 96.2237 190.511 228.936 179.165C228.936 179.165 111.564 208.084 76.3118 232.391L51.9433 215.715ZM84.6486 236.236C84.6486 236.236 126.118 205.729 216.752 189.423C216.752 189.423 132.977 233.147 119.919 245.858C119.919 245.858 96.5 245.591 84.6486 236.236ZM134.668 245.858C134.668 245.858 153.294 229.639 228.936 187.498C228.938 187.498 204.836 245.858 134.668 245.858ZM128.255 146.455C128.255 146.455 105.707 154.342 85.9311 118.243C85.9311 118.243 121.878 107.871 130.179 139.406L102.604 127.859L128.255 146.455ZM133.386 134.914C133.386 134.914 132.259 103.438 159.037 95.1548C159.037 95.1548 165.895 127.245 143.005 141.326L149.421 112.467L136.595 138.123L139.16 140.684L137.877 143.252C137.877 143.252 137.1 163.735 140.443 167.618L123.769 169.543L127.617 147.097L129.541 139.406L133.386 134.914Z" fill="#C08775"/>
</g>
<defs>
<clipPath id="clip0_1_678">
<rect width="261" height="261" fill="white" transform="translate(0 0.25)"/>
</clipPath>
</defs>
</svg>
