<svg width="248" height="247" viewBox="0 0 248 247" fill="none" xmlns="http://www.w3.org/2000/svg">
<g clip-path="url(#clip0_1_684)">
<path fill-rule="evenodd" clip-rule="evenodd" d="M112.727 74.9865C150.375 74.384 207.157 77.7415 193.958 120.899C185.355 149.036 154.785 167.136 137.569 188.404C133.138 193.878 126.66 198.353 124.163 205.67C123.899 205.541 123.635 205.413 123.372 205.279C122.586 203.579 121.798 201.878 121.009 200.175C137.434 183.563 153.864 166.949 170.3 150.334C176.768 143.897 186.322 135.663 180.154 122.47C173.299 107.799 141.027 98.0047 123.77 110.698C112.742 118.809 111.357 132.97 96.1673 137.779C93.0187 135.658 90.1184 134.108 87.8849 131.105L88.2778 130.714C91.7728 132.965 96.3586 134.901 100.505 132.285C103.105 125.673 106.011 121.1 106.021 111.089C101.658 109.637 83.7023 99.9512 78.0257 104.024C73.078 107.181 77.0124 114.643 78.4186 118.155H78.0257C69.8054 113.082 62.9758 106.769 59.0983 97.3558C67.5874 91.6398 76.7435 83.4162 86.701 79.6932C94.3526 76.8352 104.455 78.3336 112.727 74.9865ZM96.5602 86.7581C93.0549 88.9003 88.9861 90.1055 86.308 93.0355C90.2217 93.3497 91.3023 94.7246 94.1923 93.0355C94.4508 91.0221 96.5602 86.7581 96.5602 86.7581ZM156.496 120.899C156.356 118.649 156.207 115.719 157.287 114.622C159.784 114.097 162.281 113.573 164.778 113.051C167.586 115.853 172.508 117.089 173.847 121.296H173.454C167.803 121.162 162.15 121.03 156.496 120.899ZM156.103 122.861C160.958 122.733 173.888 122.135 176.607 124.828C179.642 128.557 178.98 137.141 175.816 140.133C168.589 135.555 161.361 130.975 154.133 126.394C154.79 125.22 155.447 124.042 156.103 122.861ZM152.158 128.752C156.263 129.638 172.663 140.416 173.847 143.665C170.967 145.292 166.21 149.669 164.778 152.692C164.251 152.429 163.724 152.167 163.202 151.904C156.76 146.806 150.32 141.705 143.881 136.6V136.209C146.637 133.721 149.396 131.236 152.158 128.752ZM141.12 138.953L161.625 155.437C160.968 156.225 160.306 157.008 159.65 157.79C154.79 161.714 149.927 165.64 145.06 169.567C142.123 162.548 131.944 154.345 125.74 150.334C126.133 149.814 126.531 149.288 126.924 148.768C131.654 145.493 136.386 142.222 141.12 138.953ZM122.193 152.296C129.969 154.227 138.37 165.988 142.697 171.92C141.286 175.7 136.323 179.856 133.231 182.127C124.034 176.496 114.833 170.87 105.628 165.247C106.021 164.727 106.419 164.201 106.812 163.681C111.938 159.886 117.064 156.091 122.193 152.296ZM102.082 167.996C108.86 168.764 127.151 179.464 131.261 183.692V184.48L117.457 199.001C108.524 191.808 99.5863 184.612 90.6457 177.415V177.023L102.082 167.996ZM123.997 -0.00537109L247.995 123.5L123.997 247.005L0 123.5L123.997 -0.00537109Z" fill="#FF6666"/>
</g>
<defs>
<clipPath id="clip0_1_684">
<rect width="248" height="247" fill="white"/>
</clipPath>
</defs>
</svg>
