<svg width="262" height="262" viewBox="0 0 262 262" fill="none" xmlns="http://www.w3.org/2000/svg">
<g clip-path="url(#clip0_1_680)">
<path fill-rule="evenodd" clip-rule="evenodd" d="M131.003 0.25C203.355 0.25 262.005 58.6766 262.005 130.753C262.005 202.829 203.355 261.255 131.003 261.255C58.6505 261.255 0 202.829 0 130.753C0 58.6766 58.6505 0.25 131.003 0.25ZM131.003 10.8188C197.494 10.8188 251.396 64.5154 251.396 130.753C251.396 196.99 197.494 250.687 131.003 250.687C64.5117 250.687 10.6094 196.99 10.6094 130.753C10.6094 64.5154 64.5117 10.8188 131.003 10.8188ZM76.2944 159.33C76.2944 159.33 62.9929 135.494 85.7579 125.154C85.7579 125.154 112.18 116.35 141.947 136.941C141.947 136.941 160.177 167.271 128.93 176.415C128.93 176.415 116.259 177.398 107.048 174.055C107.048 174.055 108.161 168.779 110.595 167.577C113.03 166.376 123.623 147.876 102.908 144.009C102.908 144.009 117.296 146.958 111.78 161.684C111.78 161.684 102.645 171.903 100.545 181.128C100.545 181.128 87.5343 192.025 85.1657 205.871C85.1657 205.871 83.5263 215.217 62.0992 211.175C62.0992 211.175 50.9909 208.837 50.2726 196.444C49.5543 184.051 59.7361 181.718 59.7361 181.718C59.7361 181.718 71.2776 172.99 76.8866 162.864C76.8866 162.864 91.1585 156.593 93.4449 147.543C93.4449 147.543 84.5681 158.429 76.2944 159.33ZM57.3674 184.662C57.3674 184.662 90.21 179.708 82.8026 205.281C82.8026 205.281 87.5562 182.532 57.3674 184.662ZM78.0708 164.043C78.0708 164.043 102.535 156.38 98.7688 181.128C98.7688 181.128 101.126 160.018 78.0708 164.043ZM105.277 121.03C105.277 121.03 115.941 120.856 120.059 122.8L176.248 59.7581L127.751 124.564C127.751 124.564 138.048 128.24 141.947 132.227C141.947 132.227 156.416 101.706 167.376 99.8217C167.376 99.8217 163.028 90.5745 176.84 71.5396C176.84 71.5396 190.136 55.1372 187.487 47.9711C187.487 47.9711 179.548 47.2174 160.868 65.6461C142.188 84.0748 137.533 92.8303 125.383 98.052C125.383 98.052 124.884 107.741 105.277 121.03ZM88.121 68.5955C88.121 68.5955 90.6761 73.1563 91.0818 73.3092C91.4875 73.4622 160.868 49.151 160.868 49.151L88.121 68.5955ZM177.432 136.351L188.074 138.115V82.1467L177.432 136.351ZM201.677 72.7193L212.325 97.462L221.788 90.9841L201.677 72.7193Z" fill="#B8D4FF"/>
</g>
<defs>
<clipPath id="clip0_1_680">
<rect width="262" height="261" fill="white" transform="translate(0 0.25)"/>
</clipPath>
</defs>
</svg>
