<svg width="261" height="262" viewBox="0 0 261 262" fill="none" xmlns="http://www.w3.org/2000/svg">
<g clip-path="url(#clip0_1_682)">
<path fill-rule="evenodd" clip-rule="evenodd" d="M129.903 10.8205C196.141 10.8205 249.836 64.515 249.836 130.747C249.836 196.98 196.141 250.68 129.903 250.68C63.665 250.68 9.97518 196.985 9.97518 130.747C9.97518 64.5096 63.6699 10.8205 129.903 10.8205ZM130.495 10.8205C196.728 10.8205 250.423 64.515 250.423 130.747C250.423 196.98 196.728 250.68 130.495 250.68C64.2629 250.68 10.5649 196.985 10.5649 130.747C10.5649 64.5096 64.2591 10.8205 130.495 10.8205ZM234.901 119.78C234.901 119.78 232.016 121.965 230.407 122.889C227.233 124.976 220.086 126.405 215.249 126.285C207.63 126.242 200.299 124.362 192.973 122.796C183.242 120.696 173.349 119.436 163.402 119.03C162.81 113.769 162.761 108.329 162.419 103.009C164.576 103.351 166.484 103.601 168.392 103.976C170.305 104.427 172.712 104.541 174.06 105.308C173.935 106.759 173.935 107.933 173.935 109.101C174.593 109.183 176.087 109.927 176.506 109.471C176.527 108.117 176.527 106.943 176.527 105.775C179.669 106.085 182.81 106.965 185.951 107.688C186.255 107.867 186.658 107.65 186.505 107.992C186.659 109.156 186.721 110.33 186.69 111.503C187.223 111.976 188.456 112.297 189.261 112.46C189.277 111.074 189.277 109.9 189.277 108.731C191.125 108.759 192.788 109.53 194.451 109.845C196.108 110.34 198.288 110.862 199.353 111.422C199.255 112.612 199.255 113.536 199.255 114.46C199.891 115.112 200.945 115.231 201.603 115.617C201.52 114.426 201.591 113.23 201.815 112.057C211.141 114.335 220.255 117.258 229.374 115.742C231.331 115.264 234.331 114.15 234.331 114.15L234.901 119.78ZM233.684 110.884C233.684 110.884 219.912 116.019 213.391 113.884C219.271 114.318 225.059 113.682 230.852 111.112C231.858 110.672 233.532 109.873 233.532 109.873L233.684 110.884ZM205.353 126.698C210.461 127.765 215.72 127.896 220.874 127.084C223.448 126.662 225.972 125.979 228.407 125.046C231.401 123.818 232.043 123.443 234.385 122.28C232.864 123.646 231.154 124.786 229.309 125.666C221.575 128.758 213.548 129.416 205.733 128.84L205.456 127.285V128.785C194.538 127.959 183.62 125.682 172.696 125.421C161.549 124.709 150.626 126.845 139.707 129.606C139.055 129.731 139.321 129.231 139.245 129.079V87.5417C139.055 86.8896 139.555 87.1612 139.707 87.0797H160.011C160.778 98.286 161.218 109.346 161.919 120.286C176.641 120.382 191.274 122.582 205.375 126.818L205.353 126.698ZM139.229 84.8515C139.305 81.3135 139.148 77.781 139.387 74.1615C146.033 75.493 152.68 77.1071 159.468 78.5691C159.56 78.8734 159.865 78.5474 159.756 78.993C159.984 80.9875 159.837 82.9874 159.886 84.9873C153.055 84.9873 146.218 84.9873 139.229 84.8515ZM159.75 77.3136C159.701 77.4115 159.865 77.7104 159.468 77.618C152.837 75.955 146.153 74.2431 139.522 72.4333C139.224 71.1779 139.468 69.9225 139.354 68.5149C139.528 67.2813 139.137 65.8356 139.658 64.8085C140.686 65.0911 142.175 64.9335 141.762 66.5747C141.691 67.6631 141.766 68.7561 141.984 69.8246C142.675 70.0822 143.394 70.2555 144.126 70.3409C144.218 70.292 144.522 70.455 144.419 70.0637C144.341 68.7962 144.434 67.5239 144.696 66.2812C145.983 66.5519 147.245 66.9301 148.468 67.4117C148.37 68.6671 148.593 69.9225 148.289 71.3681C148.615 72.2214 150.196 72.1507 151.31 72.5093C151.486 71.2365 151.555 69.9514 151.517 68.6671C151.566 68.5747 151.403 68.2704 151.816 68.3519C152.783 68.6073 154.087 68.9007 154.865 69.504C154.865 70.5746 154.865 71.6399 154.854 72.8627C154.772 74.0637 156.495 73.9333 157.517 74.1072V70.1942C158.212 70.1344 158.913 70.5257 159.859 70.6181C159.734 72.8028 159.723 74.993 159.75 77.3136ZM143.707 69.3626C143.664 69.455 143.827 69.7594 143.43 69.6453C143.246 69.6512 143.063 69.6198 142.892 69.5529C143.028 68.7431 142.381 66.8518 143.631 66.6507C143.821 67.3464 143.642 68.4061 143.707 69.3626ZM129.62 72.792C114.045 73.1887 98.4688 73.667 82.893 74.0964C82.6104 71.5475 82.9364 68.9931 82.8984 66.4334C85.1199 66.1945 87.3552 66.1074 89.5885 66.1726C89.757 68.1671 89.2625 70.4986 89.9201 72.1398C91.3059 72.0148 92.4689 72.0148 93.6319 72.0148C94.7895 71.8572 96.333 72.3082 97.0829 71.6724C97.0666 69.6452 96.833 67.8301 97.0938 66.0149C100.192 65.6454 103.115 65.5638 106.045 65.3084C106.441 65.1997 106.278 65.5041 106.327 65.5965C106.398 67.4769 106.208 69.4769 106.409 71.091C108.789 70.8355 110.974 71.3246 113.159 71.0366C113.604 71.1561 113.278 70.8518 113.577 70.7594C113.659 68.8464 113.534 66.9226 113.615 65.2269C116.784 65.1835 120.028 64.8465 123.006 64.9389C122.974 66.7595 122.849 68.5095 122.974 70.0095C123.202 69.9008 123.343 70.3626 123.485 70.1996C125.621 69.8083 127.62 70.3138 129.62 69.8954C129.736 69.9135 129.847 69.9541 129.947 70.0149C130.419 68.3139 130.012 66.39 130.316 64.4117C132.691 64.2433 135.061 64.4008 137.675 64.3737C137.756 67.0366 137.68 69.8627 137.571 72.5474C132.061 72.705 129.62 72.792 129.62 72.792ZM124.457 69.2213C124.485 68.9224 124.017 69.2486 124.18 68.9443C124.235 67.6074 124.093 66.2052 124.24 65.102C125.816 66.3791 127.197 67.5585 128.506 68.803V69.2213H124.457ZM109.952 70.1996C109.257 70.1181 108.556 70.5855 107.708 70.1887C107.773 68.9061 107.637 67.417 107.92 66.2323C109.355 67.3572 110.599 68.667 112.045 69.9224C112.3 69.8029 112.137 70.1073 112.094 70.2377C111.615 70.5909 110.713 70.004 109.952 70.1996ZM95.0287 71.1779C93.7406 71.2014 92.4522 71.1505 91.17 71.0257C91.0682 69.7683 91.1047 68.5035 91.2787 67.2541C92.7624 68.3247 93.9852 69.6616 95.4471 70.9007C95.5612 70.9931 95.2624 71.292 95.0287 71.1779ZM137.588 74.1072C137.588 74.1072 137.577 81.0852 137.571 84.7101C137.522 84.8025 137.686 85.1069 137.294 84.9873H129.898L129.62 84.9928C113.719 84.9819 97.8166 84.9783 81.9147 84.9819C82.0289 81.7809 82.3984 78.8516 82.3332 75.9223C82.4745 75.4767 82.6158 75.8028 82.7517 75.5039C98.4688 75.2539 129.62 74.3463 129.62 74.3463L137.588 74.1072ZM137.349 108.541C137.62 115.693 137.142 122.851 137.169 130.231C137.093 130.389 137.359 130.889 136.68 130.878C131.164 132.611 125.055 134.899 119.691 137.198C113.488 139.818 107.513 142.949 101.827 146.557C96.4906 149.904 91.6863 153.573 87.7081 158.355C87.7081 158.355 87.5668 157.926 87.4962 157.725C91.17 149.785 97.7405 146.209 104.143 141.274C107.257 139.003 110.681 137.046 114.11 134.888C117.594 132.834 120.909 131.084 124.653 128.617C124.968 121.313 125.18 114.003 125.767 106.28C123.778 106.34 121.316 105.954 118.887 106.177C117.083 106.601 116.148 107.9 114.561 108.775C114.409 108.693 113.909 108.965 114.099 108.313C114.099 104.237 114.099 100.155 114.072 95.9871C114.371 92.1611 113.452 90.6069 110.278 89.9819C104.605 88.8515 103.664 94.0198 103.98 99.0795C103.795 103.699 104.219 108.313 103.795 113.215C103.49 114.068 101.615 113.791 100.491 113.851C99.9905 114.041 100.529 113.541 100.012 113.155C100.094 111.079 99.9742 109.003 99.947 106.639C94.8982 105.634 91.9472 108.025 89.4092 109.46C86.5886 110.867 83.9799 112.487 80.8169 113.851C81.0017 105.003 81.4582 96.1611 81.8006 87.0797C100.181 87.0797 118.561 87.0797 137.365 86.8895C137.452 93.9491 137.365 101.194 137.349 108.541ZM57.5809 127.698C54.3935 129.97 50.9821 132.019 47.8485 134.552C45.0159 137.383 41.5676 138.725 41.429 145.193C36.1073 146.013 25.4689 149.144 25.4689 149.144L24.2494 138.731C24.2494 138.731 33.2036 131.508 38.066 128.171C42.3143 125.514 47.1729 122.867 55.5016 119.84C62.8841 117.199 70.2666 115.101 77.6751 113.133C78.1371 113.21 77.7458 114.139 78.0719 114.965C71.2953 119.182 64.3482 123.237 57.5809 127.698ZM56.8994 185.355C60.0553 182.203 63.6928 179.904 64.1504 171.85C62.3798 166.681 59.5532 165.143 56.4956 162.008C54.0217 159.633 51.487 157.323 48.9653 154.823C46.7588 152.502 45.0621 150.627 43.7366 146.731C42.7583 142.405 44.9355 139.666 46.286 137.628C53.1337 131.247 61.4221 126.307 69.8861 121.313C74.0806 118.894 78.2246 116.427 82.5017 113.916C87.4527 111.851 89.8766 108.846 97.2569 107.851C97.6808 107.655 97.4145 108.155 97.3928 108.449C89.1049 112.846 81.2354 117.666 73.0181 122.372C64.9343 126.786 57.3096 131.993 50.2566 137.916C48.9804 139.266 48.1272 140.961 47.8022 142.791C48.0658 148.149 50.5484 150.138 52.669 152.448C56.9565 156.47 62.0314 159.698 66.9971 163.274C71.2747 166.225 75.6974 169.029 78.6539 173.415C80.1648 175.393 80.5832 179.529 78.7572 182.11C74.3409 189.61 66.8552 194.045 59.9374 199.284C57.7467 200.833 53.3859 203.969 53.3859 203.969L45.0768 193.92C45.0768 193.92 53.1864 188.474 56.8994 185.355ZM75.7518 188.991C78.0398 186.05 80.0887 184.311 81.5723 179.969C81.9256 184.632 81.7952 189.387 81.8604 194.148C76.2355 201.083 63.6721 212.99 63.6721 212.99L54.8087 205.115C54.8087 205.115 69.4215 194.98 75.7518 188.991ZM90.0668 173.192C97.2515 177.317 104.306 181.333 108.371 188.344C109.702 190.404 110.833 194.387 109.588 197.094C108.925 195.007 107.653 191.36 106.778 190.241C105.723 188.614 104.356 187.212 102.757 186.116C99.4905 183.762 95.7569 182.116 92.5722 179.915C85.768 175.583 79.7191 170.953 75.9366 163.719C74.5475 160.464 73.6877 157.464 73.766 154.464C75.5996 160.578 77.6105 162.975 80.3419 166.122C83.1852 168.983 86.4684 171.37 90.0668 173.192ZM50.5566 147.209C48.5371 144.584 49.3881 139.318 51.6017 138.307C53.4178 136.571 55.3616 134.974 57.4168 133.53C61.7227 130.53 65.9025 127.633 70.3285 124.987C79.1327 119.514 88.6396 114.432 97.8678 109.324C98.7319 110.862 98.4818 113.019 97.971 114.345C89.1994 119.09 80.8463 124.046 72.8138 129.318C64.9069 134.948 56.1565 139.502 50.556 147.209H50.5566ZM105.779 92.8622C106.387 92.0588 107.223 91.4581 108.179 91.139C109.134 90.8199 110.164 90.7974 111.132 91.0743L111.279 91.4003C108.616 91.2807 107.491 92.4274 106.719 93.7263C106.018 95.9654 106.241 98.1501 106.181 100.335C106.165 104.873 106.219 109.346 106.165 113.71C105.76 113.622 105.346 113.582 104.931 113.59V103.128C105.246 99.699 104.572 95.8512 105.778 92.8622H105.779ZM123.007 120.59C122.241 123.247 123.214 126.747 121.855 128.992C115.106 132.703 108.559 136.771 102.241 141.176C96.1868 145.872 90.1217 149.888 85.8337 157.35C83.85 155.839 82.3609 153.676 81.8718 149.372C82.9316 141.421 85.9207 138.437 88.8011 134.731C98.1596 124.367 109.92 117.009 122.637 109.693C122.866 109.775 123.099 109.503 123.333 110.155C122.729 113.541 123.491 116.927 123.007 120.59ZM82.4914 224.93C82.4914 224.93 88.9478 219.702 92.2249 217.039C96.6868 213.039 101.779 209.675 105.975 205.219C107.967 203.226 109.563 200.873 110.676 198.284C112.322 195.034 111.817 191.36 110.301 188.061C105.453 179.583 96.8661 175.393 88.051 170.366C84.9604 168.637 82.2049 166.367 79.9153 163.665C78.0784 161.518 76.4697 158.997 75.3665 153.769C74.61 150.078 75.4371 146.388 77.0241 142.53C81.4099 133.606 88.8227 127.715 96.415 121.775C100.29 119.036 104.116 116.248 108.339 113.623C110.284 112.34 112.273 111.101 114.366 109.731C115.328 109.079 116.35 108.487 117.453 107.742C118.773 107.443 120.665 107.726 122.404 107.617C122.561 107.693 123.061 107.427 122.768 107.981C108.545 116.367 94.4857 124.921 84.4913 137.905C82.2253 140.744 80.9146 144.227 80.7468 147.856C81.9044 157.355 86.4315 159.29 91.301 162.986C93.7291 164.435 96.2592 165.707 98.8715 166.79C105.333 169.404 111.795 171.203 118.518 173.344C123.817 174.779 130.67 177.442 133.616 179.475C136.621 181.393 139.278 183.659 140.979 186.877C143.376 190.925 142.615 195.48 140.507 200.148C134.855 210.153 126.942 217.354 118.985 225.126C117.061 226.952 115.795 229.332 110.871 228.93C104.823 229.18 92.7249 229.87 92.7249 229.87L82.4914 224.93ZM101.426 160.687C100.583 161.16 100.904 160.562 100.812 160.377C105.736 157.665 106.915 156.6 110.127 154.633C112.893 153.024 115.491 151.388 118.181 149.845C124.357 146.28 130.721 143.053 137.246 140.176C154.865 133.372 172.175 128.579 189.484 135.421C201.18 139.878 212.598 143.318 224.016 142.155C227.353 141.975 235.027 139.791 235.027 139.791L234.973 145.035C231.552 146.904 228.005 148.533 224.359 149.91C210.848 154.926 197.403 150.388 183.963 145.932C175.145 143.565 165.989 142.719 156.887 143.432C144.642 144.361 132.67 147.763 120.703 152.214C114.197 154.801 105.958 158.002 101.425 160.687H101.426ZM89.6652 90.5796C93.0021 90.4329 94.3607 92.0633 95.1488 94.085C95.377 96.6447 94.926 99.2045 94.9097 101.9C94.6542 102.041 94.8172 102.177 94.7411 102.438C91.6977 102.471 88.5076 102.416 85.312 102.422C85.2795 99.8038 85.412 97.1864 85.7087 94.585C86.4364 92.2373 87.6706 91.46 89.6652 90.5796ZM125.349 89.7807C128.648 89.4492 130.251 91.1177 130.958 93.1123C131.262 95.7589 130.773 98.411 130.626 101.204C130.578 101.297 130.741 101.596 130.344 101.482H121.415C121.322 101.433 121.023 101.596 121.034 101.204C121.214 98.786 121.137 96.3676 121.48 93.7481C122.447 91.4927 122.909 90.6231 125.349 89.7807H125.349ZM144.295 93.3187C146.376 93.6231 147.142 94.5524 147.208 96.8784C147.349 98.786 146.941 100.688 147.088 102.726C145.643 102.862 144.202 102.248 142.469 102.041C142.745 99.3893 141.533 94.1883 144.294 93.3187H144.295ZM150.691 95.9002C152.61 95.8187 153.066 96.9055 153.093 98.9816C153.128 100.616 153.07 102.251 152.92 103.878C151.822 103.77 150.191 103.585 149.316 103.014C149.316 101.666 149.316 100.319 149.327 98.8784C149.283 97.286 149.751 96.1719 150.691 95.9002ZM156.572 97.8513C156.765 97.8489 156.958 97.8652 157.148 97.9001C157.979 98.1392 158.24 98.5849 158.669 99.4001C158.572 101.161 159.017 103.085 158.653 104.84C157.387 104.856 156.137 104.55 155.023 103.949C155.212 101.791 154.333 98.1013 156.572 97.8513ZM90.3227 91.7536C91.2032 91.8351 91.4369 91.5361 92.6325 92.2209C89.9858 92.0198 88.6597 93.5089 87.7902 94.8296C87.0402 97.1067 87.6163 99.3838 87.4152 101.786C87.077 101.955 86.6895 101.997 86.3228 101.906C86.3283 99.8675 86.187 97.6284 86.4044 95.3785C87.2571 92.9872 87.8174 92.6394 90.3227 91.7536ZM128.241 91.2426C127.214 90.865 126.085 90.868 125.06 91.2509C124.035 91.6337 123.182 92.3712 122.654 93.3296C121.741 95.7045 122.349 98.2589 122.154 100.829C122.04 101.128 122.344 100.802 122.572 101.107C122.78 101.111 122.986 101.062 123.17 100.965C123.523 98.6882 122.947 96.4111 123.588 94.0144C124.436 92.6394 125.425 91.3786 128.224 91.4655C128.224 91.4655 128.154 91.1992 128.241 91.2426ZM144.354 94.3784C146.811 94.7589 146.235 99.1665 146.289 101.802C146.246 101.9 146.409 102.199 146.012 102.085H145.452C145.36 102.036 145.061 102.199 145.219 101.802C145.026 100.413 144.97 99.0074 145.05 97.6067C144.958 97.047 145.164 96.1882 144.871 95.6556C144.838 95.2209 143.958 94.9165 144.354 94.3784ZM150.691 96.824C152.066 98.3349 151.148 101.096 151.593 103.058C151.729 103.058 151.871 103.058 152.278 103.09C152.235 101.183 152.909 97.4219 151.055 96.7263M156.436 98.6284C158.392 98.7643 158.017 101.976 158.012 104.036C157.708 103.873 158.034 104.34 157.593 104.177C157.452 104.128 157.311 104.291 157.18 103.895C157.126 102.639 157.3 101.384 157.05 99.9925C156.827 99.4327 156.68 99.4381 156.458 98.8729C156.471 98.7908 156.464 98.7068 156.436 98.6284ZM130.496 0.25C202.571 0.25 260.994 58.6782 260.994 130.747C260.994 202.816 202.571 261.25 130.496 261.25C58.4211 261.25 -0.0078125 202.822 -0.0078125 130.747C-0.0078125 58.6728 58.4217 0.25 130.496 0.25ZM130.495 10.8205C196.728 10.8205 250.423 64.515 250.423 130.747C250.423 196.98 196.728 250.68 130.495 250.68C64.2629 250.68 10.5649 196.985 10.5649 130.747C10.5649 64.5096 64.2591 10.8205 130.495 10.8205Z" fill="#C08775"/>
</g>
<defs>
<clipPath id="clip0_1_682">
<rect width="261" height="261" fill="white" transform="translate(0 0.25)"/>
</clipPath>
</defs>
</svg>
