<svg width="248" height="248" viewBox="0 0 248 248" fill="none" xmlns="http://www.w3.org/2000/svg">
<g clip-path="url(#clip0_1_686)">
<path fill-rule="evenodd" clip-rule="evenodd" d="M123.999 0.00537109L247.999 124.008L123.999 248.005L0 124.008L123.999 0.00537109ZM123.999 10.0957L237.911 124.008L123.999 237.92L10.0873 124.008L123.999 10.0957ZM123.572 161.431C124.077 150.711 139.839 132.291 135.417 120.419V121.209C130.691 127.22 127.151 135.462 117.255 136.195C110.895 133.029 107.539 127.969 99.4881 126.729C99.6198 126.337 99.7515 125.939 99.8827 125.547C100.541 124.755 101.199 123.967 101.857 123.182C92.9671 130.05 91.5361 122.624 83.6952 119.629C72.8224 115.482 69.4942 117.667 65.9311 106.616C64.7325 102.903 62.213 101.922 63.9569 96.7576C71.1565 93.2512 83.7581 97.4806 90.8049 93.21C99.0094 88.2319 100.285 76.6594 107.782 71.1236C117.597 63.8734 154.321 64.1367 161.083 73.0962C164.313 77.3771 167.354 84.2349 168.584 90.0547L168.979 97.9401C175.55 112.053 182.771 132.59 197.011 141.715C191.609 149.936 179.263 159.717 170.953 166.559C153.846 182.991 136.737 199.423 119.627 215.854C119.495 215.462 119.363 215.064 119.232 214.672C122.364 212.142 128.429 200.889 132.261 196.531C139.087 188.764 148.576 184.617 155.95 176.815C146.57 179.376 136.731 183.518 123.18 181.545L122.785 180.755C122.917 180.492 123.048 180.233 123.18 179.97C130.105 175.947 141.306 163.982 142.526 154.728C137.119 157.94 132.179 161.431 123.572 161.431H123.572ZM133.048 85.3194C137.653 103.228 137.681 122.123 154.368 127.912C156.124 128.521 159.834 130.365 162.66 129.492C170.954 126.915 174.17 105.335 165.818 99.9128C171.625 115.782 164.94 131.671 148.446 121.209C139.273 115.389 140.134 94.6146 133.049 85.3194H133.048ZM104.621 85.7171C103.202 86.7344 103.795 86.6827 101.857 86.1095V89.6571C103.923 89.2956 111.282 89.3989 114.887 90.4472C113.182 88.0718 108.257 86.0217 104.621 85.7171ZM115.281 90.0547C115.88 90.8139 115.989 90.7519 116.861 91.2373C116.334 90.8397 115.808 90.4472 115.281 90.0547ZM165.028 97.5477C165.429 98.7819 165.356 98.8077 166.213 99.5204C165.818 98.8594 165.424 98.2018 165.028 97.5477ZM66.324 99.9128C66.5871 101.095 66.8503 102.278 67.1136 103.46C68.2771 101.648 68.1397 100.904 70.667 100.305V99.9128H66.324ZM72.6412 118.446C79.1478 119.567 86.3448 121.354 90.0127 126.337C81.234 126.549 76.29 124.783 72.6412 120.811V118.446ZM108.174 148.418H108.964C107.518 153.2 98.2968 176.717 102.647 185.49H103.042C103.993 180.672 107.913 175.766 111.333 173.262V174.052C111.202 174.444 111.07 174.842 110.938 175.235C109.754 177.6 108.57 179.966 107.385 182.335C106.187 185.34 105.18 200.616 103.437 201.659C101.355 195.875 96.3655 191.016 97.9116 182.335C99.4195 173.856 100.39 168.346 102.649 161.431V160.249C104.49 156.309 106.331 152.365 108.174 148.418H108.174Z" fill="#C08775"/>
</g>
<defs>
<clipPath id="clip0_1_686">
<rect width="248" height="248" fill="white"/>
</clipPath>
</defs>
</svg>
