<svg width="248" height="248" viewBox="0 0 248 248" fill="none" xmlns="http://www.w3.org/2000/svg">
<g clip-path="url(#clip0_1_688)">
<path fill-rule="evenodd" clip-rule="evenodd" d="M101.147 131.595C104.892 136.137 108.377 139.97 114.919 142.677C123.281 145.571 131.848 144.31 139.325 140.905C142.14 138.239 144.357 135.816 145.855 129.947C147.881 122.951 147.106 115.057 143.938 109.068C139.728 103.483 135.723 99.8096 124.786 97.6964C119.247 98.0581 113.349 100.161 111.507 102.589C115.781 101.262 121.614 99.3292 126.471 100.016C132.387 103.685 136.747 108.552 142.715 111.812C146.337 117.464 145.128 131.807 140.519 136.173C138.432 139.443 131.917 141.51 125.67 142.378C116.068 141.722 109.749 138.136 106.92 134.008C108.931 130.014 111.035 127.224 112.586 120.327C112.587 120.051 112.552 119.777 112.482 119.51C112.482 119.51 111.494 121.288 111.547 121.499C109.558 125.219 108.122 128.392 104.967 131.254C102.8 130.086 101.287 126.904 100.102 122.378L99.8295 121.484C99.8295 121.484 99.2364 122.476 99.2715 122.476C98.5177 125.503 98.5363 128.536 98.0501 131.962C97.9184 132.225 98.3798 133.083 97.4787 132.954C89.2373 133.822 84.2887 137.5 80.611 140.223C78.519 141.561 77.8939 144.362 74.721 145.245C71.2965 146.439 67.6589 146.899 64.0451 146.594C63.3218 146.924 63.7816 146.067 64.0776 145.834C67.4639 144.083 70.6238 142.099 72.7443 138.684C71.8876 139.149 72.8099 137.831 71.636 138.369C68.737 141.665 64.6269 143.747 60.1458 145.958C53.4291 148.227 53.2798 139.965 53.3739 133.998C59.0655 125.188 64.5458 116.436 70.737 107.663C72.2446 106.707 73.0516 102.176 74.6776 99.4997C76.7892 96.3377 79.8562 94.1316 82.5015 91.1452C84.1765 89.9621 84.3982 88.04 87.6857 87.4976C89.4982 87.2289 89.3288 83.6276 90.8101 81.132C96.3679 81.8296 98.7915 79.5304 100.435 76.3839C101.158 71.4033 107.918 76.0637 110.65 72.2042C111.68 70.7317 112.355 68.9025 114.628 68.3342C115.936 67.9519 115.908 68.9027 116.635 69.4917C117.7 69.5106 118.764 69.4501 119.819 69.3108C122.72 68.7063 123.443 66.8515 125.271 65.2085C127.808 64.6453 128.479 65.9524 129.063 67.4921C133.067 68.7166 136.947 67.8383 140.874 66.5105C142.341 68.5462 143.246 70.6076 146.702 71.4549C148.443 72.7414 153.579 70.6336 154.643 72.9224C154.059 76.5546 156.157 77.6549 158.239 78.5591C158.575 80.5689 161.779 81.0651 164.434 81.7471C165.245 83.1989 164.718 84.6456 164.935 86.6451C165.979 88.0866 166.465 89.8278 167.979 91.4243C170.831 91.6568 171.172 93.62 171.993 95.9812C171.265 96.379 171.73 96.7716 171.363 96.9628C169.72 102.941 176.524 102.982 173.212 108.242C172.949 110.35 173.615 112.458 172.753 114.994C172.675 117.18 174.954 117.009 175.005 119.479C173.44 122.331 169.906 122.899 170.216 129.136C172.22 134.524 166.914 133.93 164.145 136.328C162.724 138.386 161.686 140.685 161.081 143.112C152.504 145.297 150.727 150.04 145.447 154.483C140.068 155.201 133.77 152.68 128.676 155.739C119.962 155.853 112.598 151.859 108.546 148.955C105.023 145.452 100.572 141.066 100.31 131.254L100.226 130.582L101.147 131.595ZM80.6493 114.173C80.6493 113.248 80.6493 112.323 80.5899 110.949C81.0766 110.51 81.3535 109.869 82.0086 109.151C83.3576 108.092 87.5582 106.945 90.1389 105.87C90.4029 104.811 91.2596 106.134 90.8276 106.63C89.0193 107.978 88.3249 111.533 85.7539 113.362C84.2597 113.407 82.7759 113.628 81.3328 114.018M63.0541 133.346C63.0541 133.346 61.7805 137.113 58.7048 136.906C58.7048 136.906 58.2445 137.387 58.7048 137.697C59.1652 138.007 62.7255 137.8 63.0531 133.346H63.0541ZM112.281 164.781C112.149 164.517 112.611 163.659 111.845 163.99C111.054 173.347 110.557 182.709 111.886 192.458C112.018 192.856 111.556 193.249 112.692 193.342C115.598 189.539 120.946 190.138 121.646 181.784C123.329 175.258 125.62 168.904 128.49 162.807C129.348 162.342 128.428 163.659 129.141 163.597C128.599 169.792 127.612 175.987 128.397 182.228C135.388 178.39 140.74 175.186 147.798 171.885C167.685 161.712 186.362 152.008 197.884 134.075C196.447 132.365 191.224 131.595 187.406 130.133C183.582 129.022 179.764 127.875 175.543 126.428C175.15 125.969 174.753 127.286 174.293 127.079C173.373 128.443 173.559 130.99 173.544 133.346C172.03 135.816 169.632 136.565 166.925 137.976C165.06 139.67 164.145 142.311 162.802 144.966C161.732 146.186 156.762 146.491 156.173 148.573C153.13 150.67 150.743 153.424 148.263 156.23C144.44 158.828 140.616 155.641 136.478 156.054C133.643 156.154 130.885 157.008 128.49 158.529C124.145 159.056 119.794 156.571 115.163 155.584C109.641 153.998 108.323 152.251 105.129 150.944C101.185 167.286 100.496 183.629 104.005 199.971M124 0L247.995 123.995L124 247.995L0 123.995L124 0Z" fill="#C08775"/>
</g>
<defs>
<clipPath id="clip0_1_688">
<rect width="248" height="248" fill="white"/>
</clipPath>
</defs>
</svg>
