<svg width="262" height="262" viewBox="0 0 262 262" fill="none" xmlns="http://www.w3.org/2000/svg">
<g clip-path="url(#clip0_1_664)">
<path fill-rule="evenodd" clip-rule="evenodd" d="M131 0.25C203.349 0.25 262 58.6776 262 130.75C262 202.822 203.349 261.25 131 261.25C58.6515 261.25 0 202.822 0 130.75C0 58.6776 58.6515 0.25 131 0.25ZM131 10.8178C197.488 10.8178 251.392 64.516 251.392 130.75C251.392 196.984 197.488 250.677 131 250.677C64.5123 250.677 10.6138 196.984 10.6138 130.75C10.6138 64.516 64.5123 10.8178 131 10.8178ZM192.211 61.2489C193.657 61.4555 195.098 61.6621 196.544 61.8632C195.589 65.4021 193.962 66.5383 189.733 66.7993C189.941 67.207 190.148 67.6201 190.355 68.0332H196.544C195.84 70.2729 195.845 69.7184 194.688 71.1155L200.877 74.1978V74.8121C199.436 75.2253 197.99 75.633 196.544 76.0461C196.958 76.867 197.368 77.6932 197.782 78.5141C196.544 78.101 195.305 77.6932 194.066 77.2801C193.859 77.8944 193.657 78.5141 193.45 79.1284C196.522 79.4709 197.422 79.9656 199.021 81.5964C198.977 83.7817 200.014 88.5601 200.877 89.6093C201.548 88.1252 201.651 86.3584 202.737 85.293C205.69 83.5316 208.811 84.3688 212.025 85.293C212.232 85.4995 212.434 85.7061 212.642 85.9127C212.434 86.3204 212.232 86.7336 212.025 87.1467H209.548C210.906 89.1689 211.512 89.4517 212.025 92.6916C209.979 93.1645 207.501 96.9807 206.454 100.09C205.624 99.215 205.679 99.0084 204.593 98.2419V101.324C207.119 101.977 205.761 100.65 206.454 103.178H205.831C203.878 102.259 203.43 102.678 200.26 101.944V103.792C204.511 104.358 204.838 104.983 204.593 109.957C203.356 111.397 202.117 112.836 200.877 114.273H200.26V111.191C198.033 112.055 196.533 112.43 194.066 111.805V111.191C195.098 109.959 196.131 108.726 197.166 107.494V106.874L190.355 107.494V106.874C190.974 105.642 191.592 104.41 192.211 103.178L189.117 102.558C188.702 103.379 188.287 104.205 187.878 105.026C187.256 104.613 186.639 104.205 186.017 103.792L182.923 97.6276C181.068 99.0627 179.211 100.501 177.352 101.944C175.894 100.03 177.193 100.427 174.874 100.71C175.289 99.6825 175.698 98.655 176.113 97.6276L168.68 100.09C168.244 96.4317 167.529 97.7146 164.964 95.1596C166.203 94.5453 167.442 93.9255 168.68 93.3113C167.24 92.4904 165.795 91.6678 164.348 90.8433C167.987 86.3531 165.401 89.2831 163.731 83.4447C170.508 83.6785 168.92 81.9334 169.919 77.8944C169.302 77.4867 168.68 77.0735 168.064 76.6604C167.24 77.8944 166.41 79.1284 165.586 80.3624C165.172 80.1558 164.762 79.9493 164.348 79.7481C163.933 78.101 163.523 76.4593 163.109 74.8121C159.835 77.3617 155.234 79.4654 151.344 77.2801C150.689 79.9818 150.018 80.7484 148.249 82.2107H147.633C147.835 80.7756 148.04 79.3368 148.249 77.8944C144.168 79.1936 145.254 77.3508 141.439 79.7481C139.376 83.4447 137.312 87.1431 135.246 90.8433H135.868C139.786 88.7884 143.707 86.7335 147.633 84.6787C147.835 85.0918 148.042 85.4995 148.249 85.9127C148.042 86.3204 147.835 86.7336 147.633 87.1467C142.885 89.6111 138.138 92.0773 133.39 94.5453C132.599 98.9431 131.327 102.248 132.151 106.874C132.359 107.081 132.566 107.288 132.768 107.494C136.643 104.869 140.315 102.449 146.394 101.944C149.073 104.205 151.757 106.465 154.443 108.723C154.852 107.902 155.265 107.081 155.682 106.26C160.353 109.109 158.334 106.782 163.731 105.026V110.576C170.508 111.229 164.68 116.589 166.825 120.438V118.589C168.064 119.204 169.302 119.823 170.541 120.438V122.906C175.382 121.59 186.541 129.456 195.305 131.538V132.153C193.45 134.756 194.399 132.99 195.305 137.089C193.859 136.675 192.418 136.262 190.972 135.855C191.591 137.496 192.209 139.14 192.828 140.785C191.387 140.579 189.941 140.377 188.495 140.171C188.702 142.019 188.909 143.869 189.117 145.721C185.941 145.074 185.357 144.58 184.162 142.019C182.617 143.471 182.978 143.688 180.446 144.487C180.238 142.226 180.033 139.964 179.829 137.703C178.863 139.432 178.918 139.143 177.352 140.171C176.937 139.35 176.522 138.524 176.113 137.703C173.286 139.79 173.45 142.97 169.919 142.639C167.392 143.351 161.543 139.573 158.776 140.785C155.273 141.155 156.724 141.465 153.821 143.253C152.861 140.573 153.646 140.698 151.344 140.785V138.937C152.118 137.68 153.18 136.624 154.443 135.855C155.267 135.441 156.091 135.034 156.915 134.621C157.537 135.441 158.154 136.262 158.776 137.089C158.983 136.675 159.191 136.262 159.393 135.855C159.191 134.827 158.985 133.8 158.776 132.772C153.985 132.375 148.375 128.141 143.917 125.374V124.754C145.155 124.547 146.394 124.346 147.633 124.14C146.803 122.493 145.978 120.849 145.155 119.209C145.357 118.796 145.565 118.383 145.772 117.975C147.627 119.002 149.485 120.03 151.344 121.057C151.551 120.438 151.758 119.823 151.966 119.209C149.494 116.393 147.256 115.877 146.394 111.191C147.218 111.397 148.042 111.604 148.866 111.805C149.084 108.837 149.237 109.087 148.249 106.874C147.013 106.668 145.774 106.463 144.533 106.26C141.647 108.315 138.758 110.37 135.868 112.425C136.561 125.385 129.554 138.638 121.625 145.101C118.738 147.363 115.85 149.624 112.959 151.886V182.094C113.578 184.976 114.196 187.853 114.815 190.727C134.154 193.907 156.992 210.737 160.631 228.954C160.015 229.367 159.393 229.78 158.776 230.188C151.949 234.167 142.367 234.618 131.529 234.504C124.293 218.783 117.952 206.399 98.0945 203.062C96.8612 199.153 95.6243 195.248 94.3837 191.347C93.969 181.687 93.5561 172.027 93.145 162.367C92.7302 162.78 92.3155 163.187 91.9062 163.601V167.917C90.4601 167.096 89.0159 166.273 87.5734 165.449C87.5243 169.716 87.568 168.596 88.8122 171.613C83.317 173.815 80.1684 180.578 78.9024 183.948C81.9037 184.753 82.7058 185.688 83.8572 188.264H82.6185C80.2283 189.449 78.6568 189.297 76.4249 188.264V193.195C76.0156 192.782 75.6009 192.374 75.1861 191.961C71.4481 190.205 70.897 187.384 68.3758 184.562C65.6692 185.389 67.6719 185.046 64.6596 183.948C65.5546 188.145 65.7128 190.776 64.6596 195.043H64.043C61.9421 193.222 62.6679 193.065 61.5656 193.195C59.9176 194.016 58.2659 194.838 56.6106 195.663L57.2326 188.879C55.3773 190.113 53.5201 191.347 51.6611 192.581C51.2464 192.374 50.8316 192.168 50.4223 191.961V187.03L46.7062 189.493C45.8659 186.699 45.8821 189.047 42.3733 187.03C42.7826 186.617 43.1973 186.209 43.6121 185.796C44.3979 182.66 45.2056 181.991 47.945 180.866L43.6121 176.549H44.8508C46.919 175.343 49.9149 175.212 53.5165 175.316V174.696C51.8358 171.999 49.8604 171.206 54.7553 169.765C53.9313 167.71 53.1054 165.655 52.2778 163.601H54.7553C55.994 164.215 57.2326 164.835 58.4714 165.449C58.0566 164.421 57.6474 163.394 57.2326 162.367C61.3854 161.002 63.0607 158.996 68.9979 158.665C69.4072 159.491 69.8201 160.314 70.2366 161.133V159.899C71.7318 157.697 70.324 157.838 71.4754 156.816C72.8232 155.887 74.1601 156.729 73.3307 154.968C72.916 154.761 72.5068 154.555 72.0921 154.348C73.7455 153.321 75.3971 152.293 77.0469 151.266C75.3061 150.309 75.5953 150.364 74.5694 148.803C81.0741 148.939 82.0182 151.38 86.3347 153.12C85.5052 153.734 84.6812 154.354 83.8572 154.968L85.7127 156.816C86.8204 157.219 87.1751 157.92 88.8122 159.284H89.4287C89.6361 158.052 89.8417 156.818 90.0455 155.582L95.6225 156.202C94.7002 146.493 109.696 141.764 114.815 135.235C114.645 130.658 113.456 128.162 111.721 125.374C110.689 126.195 109.652 127.015 108.621 127.836C108.059 125.586 108.648 126.581 107.382 125.374V125.988C107.797 128.663 108.21 131.335 108.621 134.006C107.59 132.979 106.558 131.95 105.527 130.919C104.976 134.148 104.446 134.311 102.433 135.855V134.621C102.225 132.772 102.018 130.919 101.811 129.07C101.194 129.277 100.572 129.483 99.9553 129.69C99.1313 131.125 98.3054 132.564 97.4778 134.006C97.063 133.8 96.6539 133.593 96.2392 133.387C95.8244 131.745 95.4152 130.098 95.0004 128.456C92.7631 129.913 91.9827 130.63 88.1901 130.919C88.3975 129.483 88.6048 128.043 88.8122 126.608C86.5421 127.428 84.2702 128.249 81.9964 129.07C82.6185 128.043 83.2351 127.015 83.8572 125.988H81.3797C81.467 129.021 81.3416 130.652 80.1411 132.153C77.0525 130.304 78.8204 131.598 74.5694 132.772C74.7768 131.54 74.9824 130.306 75.1861 129.07C71.6282 129.674 70.4549 130.766 65.2817 131.538V134.621C61.6582 133.925 58.2477 132.158 55.994 129.07C54.4115 125.102 56.245 123.139 57.8493 119.209C56.2013 118.796 54.5478 118.383 52.8998 117.975C53.5165 117.149 54.1386 116.328 54.7553 115.507H57.2326C56.2285 113.621 55.9613 113.561 55.994 111.805C60.4796 113.333 64.0375 116.159 66.5204 115.507C67.9665 111.81 69.4109 108.11 70.8533 104.406C71.2681 105.233 71.6773 106.054 72.0921 106.874C73.3308 106.26 74.5694 105.64 75.8082 105.026C77.0469 107.761 77.9092 108.065 80.1411 108.108V107.494C79.3171 106.054 78.4913 104.615 77.6636 103.178C79.4972 98.5789 81.4453 96.6491 85.7127 94.5453C85.5053 95.7793 85.3033 97.0079 85.0959 98.2419C86.5366 98.0353 87.9827 97.8342 89.4287 97.6276C87.4533 93.9745 89.0414 95.9805 90.0455 91.463C82.0947 88.6906 80.4685 81.0963 72.0921 78.5141C72.2994 78.9218 72.5067 79.335 72.7086 79.7481C74.9406 80.9278 76.5668 83.0261 77.6636 85.293H77.0469C72.6486 82.3629 71.3662 82.1672 67.7591 79.1284C65.0743 80.1558 62.3913 81.1833 59.7101 82.2107V77.8944H56.6106C57.0253 77.4867 57.4401 77.0735 57.8493 76.6604C59.2409 73.9749 61.2108 73.4802 63.4263 71.7298C62.3895 71.3221 61.3564 70.9108 60.3268 70.4958C60.7416 69.8815 61.1563 69.2618 61.5656 68.6475C62.5969 68.2344 63.6283 67.8267 64.6596 67.4135C62.4059 66.1687 62.1331 65.4239 61.5656 62.4829C63.6283 62.8906 65.6928 63.302 67.7591 63.7169C68.1684 62.4829 68.5813 61.2489 68.9979 60.0149C70.4385 60.428 71.8846 60.8358 73.3307 61.2489C73.1451 59.5691 72.9815 59.2267 73.9474 57.5469C75.6554 59.1995 76.3212 60.8412 77.6636 61.2489V57.5469C80.2666 58.4167 80.212 59.1995 81.9964 60.6346C82.8259 59.4024 83.6517 58.1685 84.4739 56.9327C84.8886 57.1392 85.3034 57.3458 85.7127 57.5469C86.9077 62.5699 86.9132 61.6023 90.0455 64.3312C89.4288 65.3587 88.8068 66.3861 88.1901 67.4135C86.5421 68.2344 84.8904 69.057 83.2352 69.8815C85.7727 68.9682 86.4383 68.9465 89.4287 69.2618C89.1996 73.7031 89.5979 71.8657 93.145 74.8121C92.9376 75.2253 92.7303 75.633 92.5229 76.0461H88.8122C89.2214 76.867 89.6362 77.6932 90.0455 78.5141L83.8572 75.4319C83.4425 80.183 82.8969 78.052 80.1411 80.3624C81.7946 82.2107 83.4461 84.0608 85.0959 85.9127C87.5734 86.9401 90.0491 87.9676 92.5229 88.995C95.4642 85.0157 99.4696 89.3103 101.194 82.2107C101.603 82.4173 102.018 82.6239 102.433 82.8304C102.64 83.8579 102.842 84.8853 103.049 85.9127C103.873 85.293 104.703 84.6787 105.527 84.0645C105.112 85.7062 104.703 87.3478 104.288 88.995C107.055 88.8917 106.089 88.8754 108.004 90.8433C109.238 88.9298 109.974 88.5873 112.337 87.761C111.922 89.2016 111.513 90.6367 111.098 92.0773H114.198L110.482 95.1596C111.759 96.9046 111.399 95.9206 111.721 97.6276C106.678 98.8833 102.826 99.1878 97.4778 100.09C97.2704 101.531 97.0649 102.969 96.8612 104.406C97.6852 105.026 98.5092 105.64 99.3332 106.26C98.924 105.026 98.511 103.792 98.0945 102.558C101.609 101.601 103.18 100.569 107.382 101.324C106.798 104.417 105.86 103.015 106.766 104.406C109.036 108.108 111.306 111.809 113.576 115.507C112.752 115.714 111.922 115.92 111.098 116.121C111.306 116.535 111.513 116.948 111.721 117.355C117.199 118.432 118.978 123.466 121.008 127.836C121.625 127.428 122.247 127.015 122.864 126.608C124.25 122.694 129.074 116.855 127.819 111.191C126.787 109.136 125.754 107.081 124.719 105.026C124.954 98.9649 133.597 90.5334 130.913 85.9127C130.22 84.0372 129.876 83.3142 128.435 82.2107C128.026 83.8579 127.611 85.4995 127.197 87.1467C123.797 85.8148 125.172 84.4721 122.864 85.293C123.688 86.7335 124.513 88.1723 125.341 89.6093C123.486 89.2016 121.629 88.792 119.77 88.3807C119.562 89.6093 119.355 90.8415 119.148 92.0773C118.324 91.463 117.499 90.8433 116.67 90.229C115.311 86.7988 113.92 84.2275 112.959 79.7481C114.58 79.6013 114.809 79.5361 116.67 78.5141V77.8944C111.704 74.6816 105.232 73.5509 104.91 63.0972H105.527C106.143 63.5104 106.766 63.9181 107.382 64.3312C107.59 64.7444 107.797 65.1521 108.004 65.5652C108.583 62.8907 108.845 62.6677 110.482 61.2489H111.098C111.513 62.0698 111.922 62.8907 112.337 63.7169C112.959 63.3038 113.576 62.8906 114.198 62.4829C114.816 61.2507 115.435 60.0168 116.053 58.781C118.869 58.5363 118.132 58.4276 119.77 55.6986C121.008 56.3184 122.245 56.9345 123.48 57.5469V54.4646C124.31 54.8778 125.136 55.2891 125.958 55.6986C125.549 54.0569 125.134 52.4098 124.719 50.7681C126.989 50.3549 129.259 49.9436 131.529 49.5341C131.12 48.0935 130.705 46.6583 130.296 45.2177H132.768C135.453 47.4792 138.136 49.7406 140.817 52.002C141.232 50.1483 141.645 48.2982 142.056 46.4518C143.502 47.6858 144.948 48.918 146.394 50.1484C147.425 48.7132 148.457 47.2744 149.488 45.832H150.727C150.934 46.4517 151.136 47.0661 151.344 47.6858C152.402 49.496 152.484 50.5017 151.966 52.6163C153.204 52.2086 154.443 51.7973 155.682 51.3823V47.6858L161.87 50.7681C161.919 47.327 160.866 47.2291 164.348 47.6858H164.964C165.172 45.8375 165.379 43.9838 165.586 42.1355C166.618 43.5761 167.649 45.0148 168.68 46.4518C169.712 45.8375 170.749 45.2177 171.78 44.6035C173.017 48.3 174.254 51.9984 175.491 55.6986H176.113C176.32 54.0569 176.522 52.4098 176.729 50.7681C179.212 51.4422 179.081 51.752 180.446 52.002C181.27 50.768 182.099 49.5341 182.923 48.3001C183.338 48.5066 183.747 48.7132 184.162 48.9198C183.954 50.5615 183.747 52.2086 183.54 53.8503C187.66 52.9914 185.723 53.8232 187.878 55.6986C190.268 54.8506 189.171 54.6223 191.589 55.6986C191.796 56.1118 192.003 56.5195 192.211 56.9327V61.2489ZM111.721 64.9455V67.4135C112.337 67.207 112.959 67.0058 113.576 66.7993V66.1795C112.959 65.7718 112.337 65.3587 111.721 64.9455ZM166.825 67.4135C166.618 67.8267 166.41 68.2344 166.203 68.6475C167.24 68.8541 168.273 69.0588 169.302 69.2618V67.4135H166.825ZM185.401 68.0332V69.8815C185.81 70.0881 186.225 70.2892 186.639 70.4958C187.256 70.2892 187.878 70.0881 188.495 69.8815V68.0332H185.401ZM184.778 71.1155C184.566 73.9043 185.051 74.7686 187.878 74.1978V77.8944C188.702 77.4867 189.528 77.0753 190.355 76.6604C190.765 76.4592 191.18 76.2527 191.589 76.0461C190.355 74.4044 189.119 72.7609 187.878 71.1155H184.778ZM138.962 74.1978C138.754 75.2253 138.549 76.2527 138.345 77.2801H138.962C139.376 76.2527 139.786 75.2253 140.2 74.1978H138.962ZM174.874 74.1978C175.081 75.2253 175.287 76.2527 175.491 77.2801C175.698 76.8669 175.905 76.4593 176.113 76.0461C176.522 75.633 176.937 75.2253 177.352 74.8121V74.1978H174.874ZM146.394 75.4319C146.187 75.8396 145.979 76.2527 145.772 76.6604C146.187 76.2527 146.596 75.8396 147.011 75.4319H146.394ZM110.482 76.0461C111.098 76.2527 111.721 76.4592 112.337 76.6604C112.13 77.2801 111.922 77.8944 111.721 78.5141C111.306 77.6932 110.891 76.867 110.482 76.0461ZM177.352 79.1284C178.192 80.395 178.044 80.1232 179.207 80.9767C179.414 80.7756 179.622 80.569 179.829 80.3624C179 79.9493 178.176 79.5415 177.352 79.1284ZM171.78 80.9767C173.739 82.314 173.712 82.1835 175.491 80.9767H171.78ZM114.198 100.71C116.392 101.938 116.534 103.096 117.909 105.026C119.104 103.162 118.034 104.026 120.386 103.178C119.087 107.69 117.669 110.212 116.053 113.659C115.639 113.246 115.229 112.832 114.815 112.425C112.021 111.256 112.064 110.31 110.482 108.108C110.891 107.288 111.306 106.461 111.721 105.64C112.337 106.054 112.959 106.467 113.576 106.874L114.198 100.71ZM87.5734 101.944C86.9513 102.352 86.3347 102.765 85.7127 103.178C85.92 103.586 86.1273 103.999 86.3347 104.406H90.0455C90.6675 103.792 91.2841 103.178 91.9062 102.558C90.4601 102.352 89.0141 102.15 87.5734 101.944ZM95.0004 105.64C94.7931 105.847 94.5911 106.054 94.3837 106.26L95.6225 107.494V105.64H95.0004ZM113.576 115.507C115.273 116.48 114.656 115.464 114.198 117.355C113.991 116.741 113.783 116.121 113.576 115.507ZM104.288 121.672C105.647 123.08 104.217 122.634 106.144 122.291C105.527 122.085 104.91 121.878 104.288 121.672ZM57.8493 122.291C58.2641 122.906 58.6788 123.52 59.0881 124.14C58.3077 122.275 59.099 123.4 57.8493 122.291ZM184.778 132.772C185.401 133.387 186.017 134.006 186.639 134.621V132.772H184.778ZM170.541 134.006C171.654 135.262 170.547 134.441 172.397 135.235C171.78 134.827 171.158 134.414 170.541 134.006ZM76.4249 177.164C76.0156 177.778 75.6009 178.398 75.1861 179.012C76.0156 178.805 76.8396 178.604 77.6636 178.398C78.0784 178.604 78.4876 178.805 78.9024 179.012C77.9638 177.827 77.7946 177.925 76.4249 177.164ZM61.5656 180.866C61.1563 181.687 60.7434 182.508 60.3268 183.328C62.0676 182.366 61.7729 182.421 62.8043 180.866H61.5656Z" fill="#96D07D"/>
</g>
<defs>
<clipPath id="clip0_1_664">
<rect width="262" height="261" fill="white" transform="translate(0 0.25)"/>
</clipPath>
</defs>
</svg>
