<svg width="248" height="248" viewBox="0 0 248 248" fill="none" xmlns="http://www.w3.org/2000/svg">
<g clip-path="url(#clip0_1_690)">
<path fill-rule="evenodd" clip-rule="evenodd" d="M124.001 0L247.994 123.998L124.001 247.995L0.00390625 123.998L124.001 0ZM124.001 10.0919L237.907 123.998L124.001 237.908L10.0906 123.998L124.001 10.0919ZM143.549 185.324C162.999 165.606 182.898 146.409 201.986 126.308C193.474 124.956 184.821 124.73 176.249 125.636C176.249 125.497 175.458 125.895 175.458 125.854C171.901 125.905 168.339 126.846 164.4 127.348C159.788 126.479 160.016 117.897 157.813 111.693C154.117 101.053 151.009 98.0855 146.041 92.2795C140.142 87.2285 136.533 84.2919 126.369 80.828C127.29 81.9654 128.308 84.602 128.804 86.7475C128.67 87.1456 129.13 87.5386 128.013 88.0039C120.55 87.0808 112.986 87.4006 105.627 88.9501C99.2732 90.3977 95.5457 92.3829 92.9865 95.2781C87.1547 97.0307 87.1392 107.753 86.0483 115.788C84.5284 126.241 80.0615 128.304 74.6019 132.259C75.1034 140.449 78.619 151.44 82.269 154.873C85.7226 158.926 88.137 160.937 95.194 163.822C105.079 167.167 114.964 166.769 124.953 168.134C137.361 170.853 140.504 173.061 142.737 185.454L143.549 185.324ZM131.074 117.458C138.772 117.882 140.442 121.821 143.048 126.469C141.796 134.539 140.121 137.155 131.989 138.463C134.181 135.356 137.459 133.707 137.583 126.903C136.058 122.224 132.93 121.469 127.222 118.848C128.541 118.492 129.854 117.845 131.074 117.458ZM105.472 128.263L105.586 128.547C109.008 130.43 111.796 133.283 113.599 136.747C116.339 141.911 115.76 148.612 113.165 152.386C109.262 159.236 91.0684 158.554 85.8674 152.82C81.9382 150.478 78.3812 144.579 79.4927 136.349C80.139 131.504 83.4789 131.954 85.2263 129.292C87.4236 127.244 89.1555 120.916 88.3541 116.878C88.473 116.801 88.2766 115.415 88.2766 115.415C88.2766 115.415 90.448 116.403 90.3653 116.32C92.068 114.547 94.0353 113.049 96.1971 111.879C100.814 108.121 107.902 110.928 108.6 114.386C110.952 119.701 108.305 125.823 105.808 127.218L105.472 127.477L104.485 127.673L105.472 128.263ZM90.2516 121.345C92.4348 121.01 94.6673 121.429 96.5796 122.534L91.0426 125.693L90.2516 121.345Z" fill="#F8B431"/>
</g>
<defs>
<clipPath id="clip0_1_690">
<rect width="248" height="248" fill="white"/>
</clipPath>
</defs>
</svg>
