<svg width="261" height="262" viewBox="0 0 261 262" fill="none" xmlns="http://www.w3.org/2000/svg">
<g clip-path="url(#clip0_1_666)">
<path fill-rule="evenodd" clip-rule="evenodd" d="M54.7354 67.452C54.7354 67.452 39.108 105.292 39.108 123.089C39.108 140.886 54.7354 142.468 54.7354 142.468C54.7354 142.468 70.9936 140.717 70.9936 124.964C70.9936 109.212 54.7354 67.452 54.7354 67.452ZM202.423 53.3689C202.423 53.3689 189.471 84.727 189.471 99.4735C189.471 114.22 202.423 115.53 202.423 115.53C202.423 115.53 215.892 114.084 215.892 101.029C215.892 87.9732 202.423 53.3689 202.423 53.3689ZM114.923 82.1659C114.923 82.1659 83.3475 158.623 83.3475 194.581C83.3475 230.539 114.923 233.736 114.923 233.736C114.923 233.736 147.766 230.202 147.766 198.371C147.766 166.54 114.923 82.1659 114.923 82.1659ZM130.496 0.245117C202.57 0.245117 260.996 58.6705 260.996 130.745C260.996 202.82 202.57 261.245 130.496 261.245C58.422 261.245 -0.00390625 202.819 -0.00390625 130.745C-0.00390625 58.671 58.422 0.245117 130.496 0.245117Z" fill="#6B9FE0"/>
</g>
<defs>
<clipPath id="clip0_1_666">
<rect width="261" height="261" fill="white" transform="translate(0 0.25)"/>
</clipPath>
</defs>
</svg>
