<svg width="261" height="262" viewBox="0 0 261 262" fill="none" xmlns="http://www.w3.org/2000/svg">
<g clip-path="url(#clip0_1_668)">
<path fill-rule="evenodd" clip-rule="evenodd" d="M121.111 0.505444C140.67 -0.620118 160.228 1.81048 180.499 10.1951C188.742 13.5664 193.022 16.1981 199.563 19.9772C221.59 33.8482 238.316 52.787 250.067 78.2345C263.269 109.511 264.383 140.793 254.145 172.445C249.033 187.517 244.955 193.553 239.23 202.867C229.023 218.315 216.001 230.952 200.259 241.077C192.348 245.878 187.987 248.379 175.089 253.447C153.97 261 132.845 262.87 111.258 259.912C101.685 258.405 92.2903 255.931 83.2169 252.528C67.2307 245.949 59.3408 240.696 48.5855 232.366C40.1247 225.814 32.9092 218.011 26.1884 209.344C20.2264 201.412 15.1604 192.844 11.083 183.798C0.909487 160.498 -1.87993 137.193 1.17594 113.263C2.50813 97.1516 11.1809 75.4885 16.825 66.4188C26.1777 50.0014 38.9374 35.7771 54.2459 24.7023C62.4837 18.8516 69.5416 14.8224 81.2159 9.80906C93.7867 4.67079 107.096 1.56868 120.643 0.61961C121.111 0.347735 121.111 0.347757 121.111 0.505444ZM178.129 92.5242C194.185 97.1461 199.514 101.54 207.763 108.445C214.203 114.064 219.473 120.897 223.271 128.553C227.982 138.158 230.469 148.702 230.546 159.4C230.263 168.475 228.768 177.545 224.505 187.213C219.57 197.871 212.085 207.149 202.711 214.226C199.106 216.565 195.621 219.022 191.554 220.887C182.092 225.265 170.657 228.016 160.07 227.505C152.246 227.314 144.427 225.645 135.792 222.388C127.049 218.663 120.431 213.938 113.971 208C107.811 201.144 103.205 195.853 99.524 185.272C110.002 184.576 120.486 182.727 131.611 178.17C131.295 181.139 131.496 184.113 131.437 187.555C130.893 188.023 132.453 188.491 132.377 188.958H190.58C190.896 188.806 191.913 189.35 191.989 188.023V129.842C192.38 129.532 191.363 128.515 190.58 128.907C185.73 128.907 180.88 128.907 175.274 129.086C175.992 123.828 178.645 117.243 178.873 111.077C178.672 104.976 179.287 98.8752 178.129 92.5242ZM92.95 35.0989C103.118 34.7291 113.292 36.0124 124.227 40.5201C138.108 46.7134 147.809 55.4677 155.481 67.5063C162.452 77.2557 168.444 99.0927 164.85 114.916C163.915 121.517 160.598 130.435 158.211 135.024C153.263 143.838 147.276 151.619 139.038 157.791C132.426 162.657 125.455 167.094 110.785 170.525C100.302 172.961 89.8235 172.194 79.1279 169.47C67.9593 166.083 63.6093 163.049 57.5519 159.128C48.0635 152.348 40.6413 143.501 35.2963 132.191C29.3204 119.989 28.4178 107.793 29.5433 94.9657C30.0436 86.9345 34.5295 75.0263 37.705 69.9314C42.6749 60.9813 49.5588 53.9398 57.8021 47.8171C61.7443 44.6851 65.9148 42.5754 71.8308 40.0633C78.3886 37.3043 85.377 35.709 92.4824 35.349C92.95 35.0662 92.95 35.0663 92.95 35.0989ZM68.5411 73.0689C87.7844 73.0689 107.033 73.069 127.108 73.1777C127.369 82.7695 127.114 92.8777 127.217 103.1C127.217 112.953 127.217 122.806 127.576 133.49C107.968 133.751 87.8388 133.496 67.2361 133.963C66.986 124.051 67.2307 113.638 67.1328 103.1V87.6142C67.1328 85.1129 67.1328 82.6116 67.0295 79.5775C67.8179 77.5439 65.7843 73.8084 68.5411 73.0689Z" fill="#B8D4FF"/>
</g>
<defs>
<clipPath id="clip0_1_668">
<rect width="261" height="261" fill="white" transform="translate(0 0.25)"/>
</clipPath>
</defs>
</svg>
