<svg width="248" height="248" viewBox="0 0 248 248" fill="none" xmlns="http://www.w3.org/2000/svg">
<g clip-path="url(#clip0_1_692)">
<path fill-rule="evenodd" clip-rule="evenodd" d="M124.003 0.00537109L248 124.008L124.003 248.005L0 124.008L124.003 0.00537109ZM124.003 10.0921L237.913 124.008L124.003 237.919L10.0867 124.008L124.003 10.0921ZM141.658 52.9514C159.345 55.9861 143.923 79.3028 141.265 84.1885C149.858 77.2503 170.977 79.5872 174.477 65.2094H176.059V69.1594C172.404 76.6714 171.174 77.1677 162.219 81.0245C161.418 81.3709 158.9 83.7078 157.871 82.6066C157.292 83.046 155.886 84.783 155.1 83.7904C152.598 85.8997 150.094 88.0091 147.588 90.1185V90.5114C151.672 88.1384 155.759 85.767 159.846 83.3975C168.067 80.0887 178.282 78.9926 184.362 71.1394C185.676 72.4577 186.992 73.7762 188.312 75.0945C187.831 75.7821 183.571 82.6066 183.571 82.6066C180.454 84.84 173.195 88.5003 170.915 87.3474C162.292 91.1215 156.02 96.0951 151.543 101.188L151.941 101.586C164.608 96.6534 184.554 99.2746 190.685 107.118C172.937 106.161 158.435 106.895 152.732 111.864C162.545 111.316 177.481 119.376 181.591 126.102C180.671 126.944 180.009 127.317 178.825 126.888C175.723 128.454 152.877 133.05 147.588 131.241C147.459 131.504 147.324 131.768 147.195 132.032C149.599 138.489 150.892 142.667 151.543 148.638H151.15C142.568 143.763 138.246 142.563 127.823 140.335V141.519C132.104 142.299 134.177 152.128 135.728 156.548C135.599 156.812 135.464 157.075 135.335 157.334C129.364 155.255 127.901 146.167 117.938 144.683C119.551 148.767 118.403 153.094 117.147 156.15H115.565C115.906 148.291 111.982 145.587 107.262 143.892C100.784 147.506 99.6622 156.538 92.631 160.105C90.4958 159.821 87.5799 160.379 85.91 159.314C84.328 157.339 82.7459 155.362 81.1639 153.384C81.2983 152.195 81.4276 151.011 81.562 149.822H82.746C85.5688 151.636 86.9646 150.065 89.865 148.638C89.7306 148.374 89.6014 148.111 89.467 147.847C89.4153 145.696 87.2387 144.941 87.492 141.917H89.074L90.656 144.29C91.84 143.892 93.0291 143.499 94.213 143.101C96.343 138.629 106.936 131.675 107.655 128.868C107.681 127.498 107.676 127.761 106.864 126.495C98.2973 127.208 93.2462 130.522 84.3279 132.032C82.808 135.418 84.0229 137.042 84.7261 140.335H83.144C81.2983 137.305 79.4526 134.274 77.6069 131.241C77.0796 131.37 76.5523 131.504 76.025 131.634C76.1542 133.448 76.211 137.243 74.4429 137.962C72.7782 133.779 67.6599 133.676 66.1399 131.241C65.8762 129.261 65.6126 127.284 65.3489 125.311C63.8703 125.735 64.8784 125.998 63.3739 125.311C63.2447 125.047 63.1102 124.783 62.981 124.52C64.0719 121.454 67.6754 110.256 72.468 111.864C79.5199 111.073 84.1987 119.996 92.631 113.844C96.1983 111.238 95.8726 103.928 97.377 101.586C98.4938 99.8382 112.22 88.1436 116.356 88.9295C116.222 89.5912 116.092 90.2477 115.958 90.9095C116.641 90.5217 134.146 74.3035 134.146 74.3035C135.785 71.9305 135.506 70.0072 135.335 66.3934C136.912 66.9569 136.044 66.5537 136.519 67.5773C141.064 69.6143 133.903 79.1891 132.962 80.2335C136.359 78.8479 145.96 69.0611 145.215 62.0454C144.719 57.3252 142.372 56.4256 141.658 52.9514ZM61.0009 86.9545C75.7561 90.3253 68.4147 125.983 49.9319 120.958C49.8026 123.103 49.3632 125.533 49.9319 128.077L53.0959 130.45C55.4741 129.778 61.9211 128.366 62.981 130.45C64.6664 133.769 58.0695 135.682 56.6529 135.987C47.6002 137.92 38.1908 122.095 44.3948 117.794C45.9665 113.151 53.3545 116.408 58.235 113.053C63.1982 109.635 67.572 102.635 64.563 93.6755C63.3739 91.4369 62.1865 89.1965 61.0009 86.9545ZM178.825 90.9095L205.316 91.7005C205.141 93.2825 205.709 92.5278 204.525 93.6755C196.791 105.742 172.802 92.7242 159.453 97.6305L159.055 97.2324C159.319 97.1031 159.583 96.9687 159.846 96.8395C163.476 91.6488 171.246 95.0558 178.825 90.9095ZM151.15 101.586C151.016 101.849 150.887 102.113 150.752 102.377L151.543 101.586H151.15ZM181.989 109.098C192.634 110.406 204.448 111.889 214.803 109.889C214.674 110.545 214.54 111.207 214.41 111.864C210.243 113.497 198.011 121.242 191.476 118.585C192.324 127.363 201.651 127.777 200.57 136.38H199.779C196.688 136.416 196.01 132.725 190.685 132.823C190.82 133.086 190.949 133.35 191.083 133.614C191.373 136.235 195.323 139.037 193.451 143.101C184.993 147.34 173.604 162.607 165.383 170.383C154.139 181.018 137.925 199.169 125.45 208.739C118.838 206.728 120.073 201.625 114.774 199.247C115.943 179.684 144.672 165.875 155.1 153.384C157.913 150.013 158.497 137.729 161.428 135.196C163.398 132.502 184.104 127.322 188.312 128.868C187.278 119.577 178.148 116.139 172.497 113.446V112.262C173.423 111.734 174.343 111.207 175.268 110.68C177.507 110.152 179.747 109.625 181.989 109.098ZM110.028 111.864C109.185 113.513 108.829 113.947 107.655 114.237C106.233 115.974 104.827 114.981 102.914 115.028C102.78 115.819 102.65 116.61 102.516 117.401C102.78 117.266 103.043 117.137 103.307 117.002C106.109 117.028 110.287 115.441 112.401 112.262C111.61 112.127 110.819 111.998 110.028 111.864ZM72.468 118.585C72.3904 120.167 72.4059 121.63 73.259 122.54L74.05 118.585H72.468ZM65.747 124.122C65.6126 124.385 65.4833 124.649 65.3489 124.913L66.1399 124.122H65.747ZM62.5829 135.196C65.8297 135.067 68.0476 135.423 69.702 136.773C69.5676 137.434 69.4384 138.091 69.3039 138.753C56.4306 141.126 52.9719 150.695 57.051 163.269H55.8619C54.0886 155.095 50.1232 143.013 56.26 137.564C58.3642 136.778 60.4719 135.989 62.5829 135.196Z" fill="#C08775"/>
</g>
<defs>
<clipPath id="clip0_1_692">
<rect width="248" height="248" fill="white"/>
</clipPath>
</defs>
</svg>
