<svg width="248" height="248" viewBox="0 0 248 248" fill="none" xmlns="http://www.w3.org/2000/svg">
<g clip-path="url(#clip0_1_694)">
<path fill-rule="evenodd" clip-rule="evenodd" d="M131.06 60.596H133.433C135.661 64.0705 136.493 69.3909 138.572 73.2479C139.497 73.3824 140.417 73.5116 141.343 73.6461C144.274 69.2254 150.84 62.4729 157.949 63.7603C161.165 70.6576 155.431 76.9342 152.805 81.9494C161.857 79.0385 169.917 77.9425 174.157 85.1137C168.697 100.294 160.673 106.695 141.343 101.721C137.863 95.0511 131.685 86.9802 121.966 86.6958V87.0889C132.569 88.5159 136.757 98.4273 140.945 106.462C150.483 124.755 163.677 146.305 170.202 166.174H169.809C167.436 163.93 165.063 161.688 162.69 159.448H162.297C162.328 167.658 160.766 176.494 154.387 178.428C151.228 174.214 148.066 169.997 144.9 165.776L136.99 193.851C132.249 198.99 127.504 204.131 122.757 209.274C118.119 207.764 103.529 190.759 100.221 186.339C101.668 180.936 103.117 175.531 104.569 170.124C100.613 172.761 96.6601 175.398 92.7085 178.035C95.4745 172.761 98.2422 167.489 101.012 162.219C102.723 157.472 104.436 152.728 106.151 147.985H106.549C106.942 150.88 107.336 153.779 107.733 156.681C107.862 156.418 107.996 156.154 108.126 155.89C109.578 153.388 111.029 150.884 112.479 148.378H113.27C114.324 157.472 115.377 166.567 116.428 175.662V174.871C119.2 166.567 121.969 158.263 124.737 149.96C124.473 150.089 124.209 150.224 123.946 150.353C121.966 153.388 119.987 156.419 118.011 159.448C116.692 154.443 115.376 149.434 114.061 144.423C113.399 144.95 112.742 145.477 112.081 146.005C110.897 147.323 109.711 148.641 108.524 149.96V149.169C105.939 143.673 109.17 135.452 110.106 129.005L108.524 117.139H108.126C109.175 127.495 107.805 144.697 95.4744 140.865C81.8205 136.621 89.4256 118.612 92.7085 109.233L86.3804 111.607L87.1715 110.815C89.1464 107.651 91.123 104.487 93.1014 101.323L79.2665 95.7853C79.3957 95.6561 79.5302 95.5267 79.6594 95.3923C85.1965 94.7373 90.7318 94.0791 96.2655 93.4173L95.4744 91.0442C97.2581 91.0493 98.2508 89.9169 99.4295 88.2727C97.5838 85.7703 95.7382 83.2662 93.8925 80.7603C94.8179 76.2518 98.6023 67.4001 104.176 69.2924C107.908 70.5385 107.996 73.5219 112.872 74.0389C113.135 73.646 113.399 73.2478 113.663 72.8549C114.65 69.7734 111.801 67.6845 112.081 64.5513C113.135 64.4169 114.19 64.2876 115.245 64.1532C119.18 65.7908 122.308 68.919 123.946 72.8549C124.339 72.7204 124.737 72.5912 125.13 72.4567C128.009 69.5614 129.478 64.7323 131.06 60.596ZM102.195 94.6013C101.803 95.1287 101.404 95.6561 101.012 96.1835C101.13 98.3912 101.415 98.4894 102.195 99.7406C102.594 99.875 102.986 100.004 103.385 100.139C104.569 99.6113 105.758 99.0839 106.942 98.5566C106.859 96.3178 106.512 95.8991 105.758 94.6013H102.195ZM145.691 141.258L140.945 146.796L134.617 143.632L142.527 153.124H142.925C143.845 149.169 144.767 145.214 145.691 141.258ZM123.997 -0.00537109L247.995 124L123.997 248.005L0 124L123.997 -0.00537109Z" fill="#F8B431"/>
</g>
<defs>
<clipPath id="clip0_1_694">
<rect width="248" height="248" fill="white"/>
</clipPath>
</defs>
</svg>
