<?xml version="1.0" encoding="UTF-8"?>
<svg id="_图层_1" data-name="图层 1" xmlns="http://www.w3.org/2000/svg" viewBox="0 0 23.28 20.77">
  <defs>
    <style>
      .cls-1 {
        stroke-width: 0px;
      }
    </style>
  </defs>
  <path class="cls-1" d="m15.96,1.3c1.1,0,2.17,0,3.12,0,1.95,0,2.9.95,2.9,2.9,0,3.07,0,6.13,0,9.2,0,1.77-.98,2.77-2.75,2.78-1.09,0-2.34,0-3.6,0-1.5,0-3.01,0-4.3-.01,0,0-.01,0-.02,0-.47,0-.87.12-1.27.39-1.28.88-2.59,1.74-3.88,2.61-.24.16-.48.29-.74.29-.12,0-.25-.03-.38-.1-.42-.22-.45-.63-.44-1.05.01-.57-.02-1.14,0-1.71.01-.31-.07-.44-.37-.44-.02,0-.04,0-.06,0-.09,0-.18,0-.28,0-.37,0-.73-.05-1.07-.2-.93-.42-1.5-1.15-1.51-2.18-.03-3.38-.03-6.76,0-10.13.01-1.28.98-2.29,2.26-2.33,1.35-.04,2.69-.04,4.04-.04.62,0,1.24,0,1.86,0,.38,0,.76,0,1.13,0,.08,0,.16,0,.24,0,.14,0,.28,0,.42,0h.12c1.37,0,2.98,0,4.55,0m-4.68,4.97c-1.07,0-2.13,0-3.2,0-.86,0-1.72,0-2.57,0-.57,0-.89.33-.88.83,0,.48.32.76.86.8.05,0,.1,0,.15,0,.04,0,.08,0,.12,0,1.39,0,2.9,0,4.43,0,2.49,0,5.05,0,7.32,0,.2,0,.41,0,.6-.05.4-.1.56-.41.55-.79,0-.38-.18-.68-.58-.76-.19-.04-.4-.04-.6-.04-.98,0-2.18,0-3.36,0-1,0-2,0-2.83,0h0m-4.45,4.95c.64,0,1.29,0,1.93,0h0c.65,0,1.3,0,1.95,0,.47,0,.93,0,1.4-.01.54,0,.84-.34.84-.82,0-.48-.31-.81-.85-.81-1.02,0-2.04,0-3.06,0-1.2,0-2.39,0-3.59,0-.36,0-.64.14-.78.5-.23.6.13,1.12.84,1.14.44,0,.87.01,1.31.01M15.96,0h-2.42s-2.12,0-2.12,0h-.33s-.21,0-.21,0h-.24s-1.13,0-1.13,0h-.93s-.93,0-.93,0C6.33,0,4.94,0,3.55.05,1.59.1.04,1.69.02,3.66c-.03,3.26-.03,6.67,0,10.16.01,1.48.84,2.7,2.28,3.35.31.14.64.23,1,.28,0,.06,0,.12,0,.17,0,.23,0,.45,0,.68,0,.4-.03,1.61,1.13,2.22.31.16.64.25.99.25.62,0,1.11-.28,1.47-.52.49-.33.99-.66,1.48-.99.8-.54,1.61-1.07,2.4-1.62.17-.12.31-.16.53-.16,1.3,0,2.82.01,4.32.01,1.26,0,2.51,0,3.6,0,2.49-.01,4.04-1.57,4.05-4.08,0-2.46,0-4.92,0-7.38v-1.82C23.28,1.54,21.75,0,19.08,0c-.95,0-2.02,0-3.12,0h0Z"/>
</svg>