<?xml version="1.0" encoding="UTF-8"?>
<svg id="_图层_1" data-name="图层 1" xmlns="http://www.w3.org/2000/svg" viewBox="0 0 21.43 18.17">
  <defs>
    <style>
      .cls-1 {
        fill: #eb7020;
        stroke-width: 0px;
      }
    </style>
  </defs>
  <path class="cls-1" d="m18.53,0C16.18,0,12.33,0,9.99,0c-.22,0-.44,0-.66,0-2.35,0-4.69-.02-7.04.04C1,.08.04,1.09.02,2.37c-.03,3.38-.03,6.76,0,10.13,0,1.02.58,1.76,1.51,2.18.43.19.89.22,1.35.19.34-.02.44.1.43.44-.03.57,0,1.14,0,1.71,0,.42.01.83.44,1.05.41.22.77.04,1.12-.2,1.29-.87,2.59-1.73,3.88-2.61.4-.27.8-.39,1.28-.39,2.38.01,6.27.02,8.65,0,1.77,0,2.75-1.01,2.75-2.78,0-3.07,0-6.13,0-9.2,0-1.95-.95-2.9-2.9-2.9Zm-7.71,9.91c-1.12.02-2.23,0-3.35,0h0c-1.08,0-2.16.02-3.24,0-.71-.01-1.07-.53-.84-1.14.14-.36.42-.5.78-.5,2.22,0,4.43-.01,6.65,0,.54,0,.85.33.85.81,0,.48-.3.81-.84.82Zm6.73-3.35c-.19.05-.4.05-.6.05-3.66,0-8.83,0-12.49,0-.09,0-.18,0-.27,0-.54-.04-.85-.33-.86-.8,0-.5.31-.83.88-.83,1.92-.01,3.85,0,5.77,0h0c1.81,0,5.13,0,6.94,0,.2,0,.41,0,.6.04.4.08.58.38.58.76,0,.38-.16.69-.55.79Z"/>
</svg>