<?xml version="1.0" encoding="UTF-8"?>
<svg id="_图层_1" data-name=" 图层 1" xmlns="http://www.w3.org/2000/svg" viewBox="0 0 23.27 20.77">
  <defs>
    <style>
      .cls-1 {
        fill: #eb7020;
        stroke-width: 0px;
      }
    </style>
  </defs>
  <path class="cls-1" d="m15.96,1.3h3.12c1.95,0,2.9.95,2.9,2.9v9.2c0,1.77-.98,2.77-2.75,2.78h-3.6c-1.5,0-3.01,0-4.3-.01h-.02c-.47,0-.87.12-1.27.39-1.28.88-2.59,1.74-3.88,2.61-.24.16-.48.29-.74.29-.12,0-.25-.03-.38-.1-.42-.22-.45-.63-.44-1.05.01-.57-.02-1.14,0-1.71.01-.31-.07-.44-.37-.44h-.34c-.37,0-.73-.05-1.07-.2-.93-.42-1.5-1.15-1.51-2.18-.03-3.38-.03-6.76,0-10.13,0-1.28.98-2.29,2.26-2.33,1.35-.04,2.69-.04,4.04-.04h8.32m-4.68,4.97h-5.77c-.57,0-.89.33-.88.83,0,.48.32.76.86.8h12.02c.2,0,.41,0,.6-.05.4-.1.56-.41.55-.79,0-.38-.18-.68-.58-.76-.19-.04-.4-.04-.6-.04h-6.19m-4.45,4.95h3.88c.47,0,.93,0,1.4-.01.54,0,.84-.34.84-.82s-.31-.81-.85-.81h-6.65c-.36,0-.64.14-.78.5-.23.6.13,1.12.84,1.14.44,0,.87.01,1.31.01M15.96,0H7.65c-1.32,0-2.71,0-4.1.05C1.59.1.04,1.69.02,3.66,0,6.92,0,10.33.02,13.82c0,1.48.84,2.7,2.28,3.35.31.14.64.23,1,.28v.85c0,.4-.03,1.61,1.13,2.22.31.16.64.25.99.25.62,0,1.11-.28,1.47-.52.49-.33.99-.66,1.48-.99.8-.54,1.61-1.07,2.4-1.62.17-.12.31-.16.53-.16,1.3,0,2.82.01,4.32.01h3.6c2.49-.01,4.04-1.57,4.05-4.08V4.21c.01-2.67-1.52-4.21-4.19-4.21h-3.12Z"/>
</svg>