<?xml version="1.0" encoding="UTF-8"?>
<svg id="_图层_1" data-name=" 图层 1" xmlns="http://www.w3.org/2000/svg" viewBox="0 0 26.19 23.43">
  <defs>
    <style>
      .cls-1 {
        fill: none;
        stroke: #000;
        stroke-miterlimit: 10;
        stroke-width: 1.4px;
      }
    </style>
  </defs>
  <path class="cls-1" d="m25.17,11.3L13.73.92c-.4-.29-.95-.29-1.36,0L.97,11.3c-.56.51-.2,1.43.55,1.43h1.15v8.84c0,.63.52,1.15,1.15,1.15h5.55c.64,0,1.15-.51,1.15-1.15v-3.33c0-1.42,1.18-2.57,2.61-2.51,1.37.05,2.43,1.21,2.43,2.58v3.27c0,.63.52,1.15,1.15,1.15h5.55c.64,0,1.15-.51,1.15-1.15v-8.84h1.2c.75,0,1.11-.92.55-1.43h0Z"/>
</svg>