<?xml version="1.0" encoding="UTF-8"?>
<svg id="_图层_1" data-name="图层 1" xmlns="http://www.w3.org/2000/svg" viewBox="0 0 22 21.98">
  <defs>
    <style>
      .cls-1 {
        stroke-width: 0px;
      }
    </style>
  </defs>
  <path class="cls-1" d="m10.95,1.3c.3,0,.6,0,.9,0,.69,0,1.17.43,1.26,1.11.05.37.12.75.14,1.12,0,.28.17.35.38.48.23.14.43.2.62.2.31,0,.59-.16.9-.42.53-.45.89-.67,1.23-.67.38,0,.73.27,1.28.82.27.27.54.53.8.8.49.51.52,1.1.1,1.67-.09.12-.17.26-.28.36-.59.5-.65,1.05-.24,1.7.09.14.15.23.33.25.4.04.8.1,1.2.15.71.09,1.13.56,1.14,1.28,0,.57,0,1.13,0,1.7,0,.69-.44,1.16-1.12,1.25-.4.05-.8.11-1.2.15-.2.02-.25.12-.35.27-.42.64-.31,1.17.24,1.67.14.12.24.29.35.45.35.5.32,1.09-.09,1.53-.43.46-.88.91-1.34,1.34-.24.23-.52.34-.81.34-.25,0-.51-.09-.75-.26-.33-.24-.65-.48-.96-.74-.1-.09-.19-.12-.29-.12-.07,0-.15.02-.24.04-.72.17-1,.61-.96,1.31,0,.17-.04.35-.06.52-.1.66-.57,1.08-1.24,1.09-.29,0-.58,0-.88,0s-.58,0-.87,0c-.68,0-1.16-.44-1.24-1.13-.05-.4-.11-.8-.15-1.2-.02-.17-.1-.24-.24-.33-.28-.17-.54-.26-.78-.26-.33,0-.63.16-.92.5-.12.14-.29.24-.45.35-.23.16-.47.23-.72.23-.29,0-.57-.11-.81-.34-.45-.42-.89-.86-1.31-1.31-.44-.46-.47-1.06-.09-1.59.25-.35.52-.68.79-1.02.11-.14.1-.24.05-.4-.17-.65-.51-1.03-1.17-1.03-.06,0-.12,0-.18,0-.02,0-.04,0-.06,0-.14,0-.28-.04-.43-.06-.68-.09-1.11-.57-1.12-1.26,0-.58,0-1.16,0-1.74,0-.66.44-1.14,1.1-1.23.4-.05.8-.12,1.2-.15.21-.02.27-.13.37-.29.39-.63.31-1.15-.24-1.63-.13-.11-.22-.27-.33-.42-.39-.54-.36-1.14.1-1.62.42-.44.86-.86,1.28-1.28.23-.22.5-.33.82-.34.3,0,.57.1.8.29.31.24.62.47.92.72.1.08.18.11.28.11.06,0,.13-.01.22-.03.71-.18,1.04-.6.98-1.34-.01-.17.04-.35.06-.52.1-.64.57-1.06,1.22-1.07.28,0,.56,0,.84,0m.05,13.72c2.24,0,4.03-1.79,4.03-4.04,0-2.22-1.79-4.01-4.01-4.02,0,0-.01,0-.02,0-2.24,0-4.03,1.78-4.03,4.02,0,2.24,1.79,4.04,4.03,4.04m-.05-15.02c-.29,0-.57,0-.86,0-1.29.02-2.29.89-2.49,2.17l-.02.1c-.02.1-.04.23-.06.38-.1-.08-.2-.16-.3-.24-.45-.36-.98-.55-1.57-.57h-.06s-.06,0-.06,0c-.65.04-1.22.29-1.66.72l-.36.36c-.32.31-.63.62-.94.95-.9.93-.98,2.22-.21,3.28l.05.08c.06.09.13.19.23.3-.05,0-.11.02-.16.02l-.25.03C.94,7.77.03,8.79,0,10.09c0,.59,0,1.18,0,1.77.02,1.34.92,2.35,2.25,2.53h.08c.08.03.19.05.31.06-.1.13-.19.25-.28.38-.75,1.03-.67,2.34.2,3.25.47.5.92.94,1.36,1.36.47.45,1.08.69,1.7.69.5,0,1-.16,1.45-.46l.07-.05c.12-.08.26-.17.4-.3,0,.02,0,.04,0,.06l.04.32c.17,1.34,1.18,2.25,2.51,2.27.29,0,.59,0,.88,0s.6,0,.89,0c1.31-.02,2.32-.9,2.51-2.2l.02-.1c.02-.09.04-.21.05-.34.12.1.26.19.39.29.46.33.98.51,1.52.51.62,0,1.22-.25,1.7-.69.48-.45.95-.92,1.4-1.39.83-.88.91-2.15.22-3.16l-.05-.07c-.07-.11-.17-.25-.29-.39.05,0,.1-.01.15-.02l.24-.03c1.33-.18,2.23-1.19,2.25-2.52,0-.58,0-1.16,0-1.73-.01-1.35-.93-2.38-2.27-2.55l-.31-.04s-.04,0-.06,0c.09-.1.15-.2.2-.27l.05-.06c.8-1.08.72-2.39-.2-3.35-.19-.2-.38-.39-.58-.58l-.24-.24c-.61-.61-1.28-1.2-2.2-1.2-.76,0-1.38.42-1.91.85,0-.05-.01-.1-.02-.14l-.04-.28C14.22.92,13.2.02,11.87,0c-.31,0-.61,0-.92,0h0Zm.05,13.72c-.74,0-1.42-.28-1.94-.8-.51-.51-.79-1.2-.79-1.94,0-1.52,1.2-2.72,2.73-2.72,1.53,0,2.72,1.2,2.73,2.72,0,.74-.28,1.42-.79,1.94-.51.51-1.2.8-1.94.8h0Z"/>
</svg>