<?xml version="1.0" encoding="UTF-8"?>
<svg id="_图层_1" data-name="图层 1" xmlns="http://www.w3.org/2000/svg" viewBox="0 0 19.4 19.38">
  <defs>
    <style>
      .cls-1 {
        fill: #eb7020;
        stroke-width: 0px;
      }
    </style>
  </defs>
  <path class="cls-1" d="m19.4,8.85c0-.72-.43-1.18-1.14-1.28-.4-.05-.8-.11-1.2-.15-.18-.02-.24-.11-.32-.25-.4-.65-.34-1.2.24-1.7.11-.1.19-.23.28-.36.42-.57.39-1.16-.1-1.67-.26-.27-.53-.54-.8-.8-1.05-1.05-1.39-1.09-2.51-.15-.5.42-.93.58-1.51.22-.21-.13-.37-.19-.38-.48-.01-.38-.09-.75-.14-1.12C11.72.44,11.25.01,10.55,0c-.58,0-1.16,0-1.74,0-.65.01-1.12.43-1.22,1.07-.03.17-.08.35-.06.52.06.73-.26,1.15-.98,1.34-.21.05-.34.05-.5-.08-.3-.25-.62-.48-.92-.72-.24-.19-.5-.28-.8-.29-.31.02-.59.12-.82.34-.43.43-.86.85-1.28,1.28-.46.48-.49,1.07-.1,1.62.1.14.2.3.33.42.55.48.63,1.01.24,1.63-.1.16-.16.27-.37.29-.4.03-.8.09-1.2.15C.45,7.67.02,8.14,0,8.81c0,.58,0,1.16,0,1.74,0,.69.44,1.17,1.12,1.26.16.02.33.07.49.06.77-.07,1.16.31,1.35,1.02.04.16.06.27-.05.4-.27.33-.54.67-.79,1.02-.38.53-.36,1.12.09,1.59.43.45.86.89,1.31,1.31.44.42,1.03.45,1.53.11.16-.11.33-.21.45-.35.5-.59,1.06-.63,1.7-.24.15.09.23.16.24.33.04.4.1.8.15,1.2.09.69.56,1.12,1.24,1.13.58,0,1.16,0,1.74,0,.67,0,1.15-.43,1.24-1.09.03-.17.07-.35.06-.52-.04-.7.24-1.14.96-1.31.22-.05.36-.07.53.08.31.26.63.51.96.74.51.37,1.1.35,1.56-.08.46-.43.91-.88,1.34-1.34.42-.44.44-1.03.09-1.53-.11-.16-.21-.32-.35-.45-.55-.49-.66-1.03-.24-1.67.1-.15.15-.25.35-.27.4-.03.8-.09,1.2-.15.69-.09,1.11-.56,1.12-1.25,0-.57,0-1.14,0-1.7Zm-9.69,4.87c-2.24,0-4.03-1.8-4.03-4.04,0-2.24,1.8-4.03,4.05-4.02,2.23,0,4.01,1.79,4.01,4.02,0,2.24-1.79,4.04-4.03,4.04Z"/>
</svg>