<?xml version="1.0" encoding="UTF-8"?>
<svg id="_图层_1" data-name=" 图层 1" xmlns="http://www.w3.org/2000/svg" viewBox="0 0 24 18.26">
  <defs>
    <style>
      .cls-1 {
        fill: #eb7020;
        stroke-width: 0px;
      }
    </style>
  </defs>
  <path class="cls-1" d="m9.89,1.29c.19.24.39.47.59.71.23.26.44.51.63.77.74,1.03,1.77,1.04,2.15,1.04h.01c1.52,0,2.82,0,4.13,0h3.9c1.15,0,1.39.25,1.39,1.43v3.14c0,2.38-.01,4.62.02,7.27,0,.42-.11.78-.33,1s-.52.32-.99.32h0c-1.2-.02-2.38-.03-3.74-.03H6.68c-1.56,0-2.85.01-4.08.04-.42,0-.73-.11-.94-.32-.22-.22-.34-.58-.34-1.01.03-3.24.03-5.63.02-8.39v-3.78c0-.87.34-2.17,1.29-2.17h7.27M9.94,0H2.61C.88,0,.02,1.73.02,3.47.02,8.09.05,11,0,15.62c-.02,1.42.85,2.64,2.58,2.64h.07c1.34-.03,2.67-.03,4.01-.03,1.91,0,3.83.02,5.74.02s3.55-.02,5.23-.02c1.17,0,2.37,0,3.72.03h.07c1.74,0,2.6-1.22,2.58-2.64-.05-3.75-.02-6.65-.02-10.39,0-1.89-.83-2.73-2.69-2.73h-3.9c-1.31,0-2.61,0-4.14,0h-.02c-.46,0-.8-.1-1.08-.5-.39-.54-.87-1.02-1.27-1.55-.25-.33-.54-.46-.95-.46h.01Z"/>
  <polygon class="cls-1" points="15.62 13.6 13.06 13.6 13.06 15.3 15.62 15.3 15.62 13.6 15.62 13.6"/>
  <polygon class="cls-1" points="21.58 13.6 17.32 13.6 17.32 15.3 21.58 15.3 21.58 13.6 21.58 13.6"/>
</svg>