<?xml version="1.0" encoding="UTF-8"?>
<svg id="_图层_1" data-name="图层 1" xmlns="http://www.w3.org/2000/svg" viewBox="0 0 24 18.26">
  <defs>
    <style>
      .cls-1 {
        fill: #eb7020;
        fill-rule: evenodd;
        stroke-width: 0px;
      }
    </style>
  </defs>
  <path class="cls-1" d="m23.98,5.23c0-1.89-.83-2.73-2.69-2.73-2.96,0-5.07,0-8.03,0-.47,0-.81-.1-1.1-.5-.39-.54-.87-1.02-1.27-1.55C10.63.13,10.34,0,9.92,0c-2.44.02-4.87,0-7.31,0C.88.01.02,1.74.02,3.48c0,4.62.03,7.53-.02,12.15-.02,1.44.88,2.67,2.65,2.64,3.25-.06,6.5-.02,9.75-.02s5.68-.05,8.95.02c1.79.03,2.67-1.2,2.65-2.64-.05-3.75-.02-6.65-.02-10.39Zm-8.36,10.08h-2.55v-1.7h2.55v1.7Zm5.96,0h-4.26v-1.7h4.26v1.7Z"/>
</svg>