<?xml version="1.0" encoding="UTF-8"?>
<svg id="_图层_1" data-name="图层 1" xmlns="http://www.w3.org/2000/svg" viewBox="0 0 24 18.26">
  <defs>
    <style>
      .cls-1 {
        stroke-width: 0px;
      }
    </style>
  </defs>
  <path class="cls-1" d="m9.89,1.3c.19.24.39.47.59.71.23.26.44.51.63.77.74,1.03,1.77,1.04,2.15,1.04h.01c1.52,0,2.82-.01,4.13-.01h2.34s1.56,0,1.56,0c1.15,0,1.39.25,1.39,1.43,0,1.11,0,2.14,0,3.14,0,2.38-.01,4.62.02,7.27,0,.42-.11.78-.33,1-.21.21-.52.32-.99.32h0c-1.2-.02-2.38-.03-3.74-.03-.81,0-1.62,0-2.44,0-.88,0-1.8,0-2.79,0s-1.91,0-2.86,0c-.96,0-1.92,0-2.88,0-1.56,0-2.85.01-4.08.04-.42,0-.73-.11-.94-.32-.22-.22-.34-.58-.34-1.01.03-3.24.03-5.63.02-8.39,0-1.17,0-2.4,0-3.78,0-.87.34-2.17,1.29-2.17h1.47s1.27,0,1.27,0h1.27c1.09,0,2.17,0,3.26,0m.04-1.3s0,0-.01,0c-1.1,0-2.19,0-3.29,0-.85,0-1.7,0-2.55,0-.49,0-.98,0-1.48,0C.88.01.02,1.74.02,3.48c0,4.62.03,7.53-.02,12.15-.02,1.42.85,2.64,2.58,2.64.02,0,.05,0,.07,0,1.34-.03,2.67-.03,4.01-.03,1.91,0,3.83.02,5.74.02s3.55-.02,5.23-.02c1.17,0,2.37,0,3.72.03.02,0,.05,0,.07,0,1.74,0,2.6-1.22,2.58-2.64-.05-3.75-.02-6.65-.02-10.39,0-1.89-.83-2.73-2.69-2.73-1.43,0-2.67,0-3.9,0-1.31,0-2.61,0-4.14.01,0,0-.01,0-.02,0-.46,0-.8-.1-1.08-.5-.39-.54-.87-1.02-1.27-1.55-.25-.33-.54-.46-.95-.46h0Z"/>
  <polygon class="cls-1" points="15.62 13.61 13.06 13.61 13.06 15.31 15.62 15.31 15.62 13.61 15.62 13.61"/>
  <polygon class="cls-1" points="21.58 13.61 17.32 13.61 17.32 15.31 21.58 15.31 21.58 13.61 21.58 13.61"/>
</svg>