<svg width="210" height="242" viewBox="0 0 210 242" fill="none" xmlns="http://www.w3.org/2000/svg">
<g clip-path="url(#clip0_1613_2189)">
<g filter="url(#filter0_n_1613_2189)">
<path d="M0 181.129L104.575 241.505V218.618L22.7742 171.391V74.0096L104.575 29.2143V0L0 60.3762V181.129Z" fill="#32343B"/>
<path d="M209.149 60.3762L104.575 0V29.2143L186.375 74.0096V171.391L104.575 218.618V241.505L209.149 181.129V60.3762Z" fill="#7C7E88"/>
<path d="M104.575 29.2143L22.7742 74.0096V171.391L104.575 218.618L186.375 171.391V74.0096L104.575 29.2143Z" fill="#505460"/>
</g>
<g filter="url(#filter1_d_1613_2189)">
<path d="M168.364 84.1008L103.659 46.7432L38.9531 84.1008L83.9966 110.107L103.659 93.1453L123.32 110.107L168.364 84.1008Z" fill="#4BC9B0"/>
<path d="M168.364 158.816V84.1008L123.32 110.107V184.822L168.364 158.816Z" fill="#268774"/>
<path d="M38.9531 84.1008V158.816L83.9966 184.822V110.107L38.9531 84.1008Z" fill="#278D79"/>
<path d="M103.659 93.1453L83.9966 110.107L103.659 121.459L123.32 110.107L103.659 93.1453Z" fill="#59FFDE"/>
<path d="M83.9966 184.822L103.659 196.174V121.459L83.9966 110.107V184.822Z" fill="#34B2AB"/>
<path d="M103.659 196.174L123.32 184.822V110.107L103.659 121.459V196.174Z" fill="#63CCCF"/>
</g>
</g>
<defs>
<filter id="filter0_n_1613_2189" x="0" y="0" width="209.148" height="241.505" filterUnits="userSpaceOnUse" color-interpolation-filters="sRGB">
<feFlood flood-opacity="0" result="BackgroundImageFix"/>
<feBlend mode="normal" in="SourceGraphic" in2="BackgroundImageFix" result="shape"/>
<feTurbulence type="fractalNoise" baseFrequency="0.625 0.625" stitchTiles="stitch" numOctaves="3" result="noise" seed="615" />
<feColorMatrix in="noise" type="luminanceToAlpha" result="alphaNoise" />
<feComponentTransfer in="alphaNoise" result="coloredNoise1">
<feFuncA type="discrete" tableValues="0 1 1 1 1 1 1 1 1 1 1 1 1 1 1 1 1 1 1 1 1 1 1 1 1 1 1 1 1 1 1 1 1 1 1 1 1 1 1 1 1 1 1 1 1 1 1 1 1 1 0 0 0 0 0 0 0 0 0 0 0 0 0 0 0 0 0 0 0 0 0 0 0 0 0 0 0 0 0 0 0 0 0 0 0 0 0 0 0 0 0 0 0 0 0 0 0 0 0 0 "/>
</feComponentTransfer>
<feComposite operator="in" in2="shape" in="coloredNoise1" result="noise1Clipped" />
<feFlood flood-color="rgba(0, 0, 0, 0.05)" result="color1Flood" />
<feComposite operator="in" in2="noise1Clipped" in="color1Flood" result="color1" />
<feMerge result="effect1_noise_1613_2189">
<feMergeNode in="shape" />
<feMergeNode in="color1" />
</feMerge>
</filter>
<filter id="filter1_d_1613_2189" x="24.5531" y="32.3432" width="158.21" height="178.231" filterUnits="userSpaceOnUse" color-interpolation-filters="sRGB">
<feFlood flood-opacity="0" result="BackgroundImageFix"/>
<feColorMatrix in="SourceAlpha" type="matrix" values="0 0 0 0 0 0 0 0 0 0 0 0 0 0 0 0 0 0 127 0" result="hardAlpha"/>
<feOffset/>
<feGaussianBlur stdDeviation="7.2"/>
<feComposite in2="hardAlpha" operator="out"/>
<feColorMatrix type="matrix" values="0 0 0 0 0.34902 0 0 0 0 1 0 0 0 0 0.870588 0 0 0 0.48 0"/>
<feBlend mode="normal" in2="BackgroundImageFix" result="effect1_dropShadow_1613_2189"/>
<feBlend mode="normal" in="SourceGraphic" in2="effect1_dropShadow_1613_2189" result="shape"/>
</filter>
<clipPath id="clip0_1613_2189">
<rect width="209.149" height="241.505" fill="white"/>
</clipPath>
</defs>
</svg>
