<svg width="210" height="242" viewBox="0 0 210 242" fill="none" xmlns="http://www.w3.org/2000/svg">
<g clip-path="url(#clip0_1613_2190)">
<g filter="url(#filter0_n_1613_2190)">
<path d="M0.210938 181.5L105 242V219.066L23.0318 171.742V74.1613L105 29.2742V0L0.210938 60.5V181.5Z" fill="#32343B"/>
<path d="M209.789 60.5L105 0V29.2742L186.968 74.1613V171.742L105 219.066V242L209.789 181.5V60.5Z" fill="#7C7E88"/>
<path d="M105 29.2742L23.0318 74.1613V171.742L105 219.066L186.968 171.742V74.1613L105 29.2742Z" fill="#505460"/>
</g>
<g filter="url(#filter1_d_1613_2190)">
<path d="M105 83.7841L69.8693 111.713V158.842L104.998 202.481L140.127 158.842V111.713L105 83.7841Z" fill="#FF638A"/>
<path d="M140.127 61.9648L105 83.7841L140.127 111.713L175.256 82.0386L140.127 61.9648Z" fill="#FF9CB5"/>
<path d="M175.256 162.334V82.0386L140.127 111.713V158.842L104.998 202.481L175.256 162.334Z" fill="#DF8BA0"/>
<path fill-rule="evenodd" clip-rule="evenodd" d="M104.998 202.481L69.8693 158.842V111.713L34.7402 82.0386V162.334L104.998 202.481Z" fill="#C72F55"/>
<path d="M69.8693 61.9648L34.7402 82.0386L69.8693 111.713L105 83.7841L69.8693 61.9648Z" fill="#E97F99"/>
</g>
</g>
<defs>
<filter id="filter0_n_1613_2190" x="0.210938" y="0" width="209.578" height="242" filterUnits="userSpaceOnUse" color-interpolation-filters="sRGB">
<feFlood flood-opacity="0" result="BackgroundImageFix"/>
<feBlend mode="normal" in="SourceGraphic" in2="BackgroundImageFix" result="shape"/>
<feTurbulence type="fractalNoise" baseFrequency="0.625 0.625" stitchTiles="stitch" numOctaves="3" result="noise" seed="615" />
<feColorMatrix in="noise" type="luminanceToAlpha" result="alphaNoise" />
<feComponentTransfer in="alphaNoise" result="coloredNoise1">
<feFuncA type="discrete" tableValues="0 1 1 1 1 1 1 1 1 1 1 1 1 1 1 1 1 1 1 1 1 1 1 1 1 1 1 1 1 1 1 1 1 1 1 1 1 1 1 1 1 1 1 1 1 1 1 1 1 1 0 0 0 0 0 0 0 0 0 0 0 0 0 0 0 0 0 0 0 0 0 0 0 0 0 0 0 0 0 0 0 0 0 0 0 0 0 0 0 0 0 0 0 0 0 0 0 0 0 0 "/>
</feComponentTransfer>
<feComposite operator="in" in2="shape" in="coloredNoise1" result="noise1Clipped" />
<feFlood flood-color="rgba(0, 0, 0, 0.05)" result="color1Flood" />
<feComposite operator="in" in2="noise1Clipped" in="color1Flood" result="color1" />
<feMerge result="effect1_noise_1613_2190">
<feMergeNode in="shape" />
<feMergeNode in="color1" />
</feMerge>
</filter>
<filter id="filter1_d_1613_2190" x="24.0402" y="51.2648" width="161.916" height="161.917" filterUnits="userSpaceOnUse" color-interpolation-filters="sRGB">
<feFlood flood-opacity="0" result="BackgroundImageFix"/>
<feColorMatrix in="SourceAlpha" type="matrix" values="0 0 0 0 0 0 0 0 0 0 0 0 0 0 0 0 0 0 127 0" result="hardAlpha"/>
<feOffset/>
<feGaussianBlur stdDeviation="5.35"/>
<feComposite in2="hardAlpha" operator="out"/>
<feColorMatrix type="matrix" values="0 0 0 0 1 0 0 0 0 0.388235 0 0 0 0 0.541176 0 0 0 1 0"/>
<feBlend mode="normal" in2="BackgroundImageFix" result="effect1_dropShadow_1613_2190"/>
<feBlend mode="normal" in="SourceGraphic" in2="effect1_dropShadow_1613_2190" result="shape"/>
</filter>
<clipPath id="clip0_1613_2190">
<rect width="209.578" height="242" fill="white" transform="translate(0.210938)"/>
</clipPath>
</defs>
</svg>
