<svg width="210" height="242" viewBox="0 0 210 242" fill="none" xmlns="http://www.w3.org/2000/svg">
<g clip-path="url(#clip0_1613_2192)">
<g filter="url(#filter0_n_1613_2192)">
<path d="M0 181.5L104.789 242V219.066L22.8209 171.742V74.1613L104.789 29.2742V0L0 60.5V181.5Z" fill="#32343B"/>
<path d="M209.578 60.5L104.789 0V29.2742L186.757 74.1613V171.742L104.789 219.066V242L209.578 181.5V60.5Z" fill="#7C7E88"/>
<path d="M104.789 29.2742L22.8209 74.1613V171.742L104.789 219.066L186.757 171.742V74.1613L104.789 29.2742Z" fill="#505460"/>
</g>
<g filter="url(#filter1_d_1613_2192)">
<path d="M104.789 83.7841L69.6583 111.713V158.842L104.787 202.481L139.916 158.842V111.713L104.789 83.7841Z" fill="#FF735B"/>
<path d="M139.916 61.9648L104.789 83.7841L139.916 111.713L175.045 82.0386L139.916 61.9648Z" fill="#FF9378"/>
<path d="M175.045 162.334V82.0386L139.916 111.713V158.842L104.787 202.481L175.045 162.334Z" fill="#EDA6A6"/>
<path fill-rule="evenodd" clip-rule="evenodd" d="M104.787 202.481L69.6583 158.842V111.713L34.5293 82.0386V162.334L104.787 202.481Z" fill="#C7522F"/>
<path d="M69.6583 61.9648L34.5293 82.0386L69.6583 111.713L104.789 83.7841L69.6583 61.9648Z" fill="#FF8378"/>
</g>
</g>
<defs>
<filter id="filter0_n_1613_2192" x="0" y="0" width="209.578" height="242" filterUnits="userSpaceOnUse" color-interpolation-filters="sRGB">
<feFlood flood-opacity="0" result="BackgroundImageFix"/>
<feBlend mode="normal" in="SourceGraphic" in2="BackgroundImageFix" result="shape"/>
<feTurbulence type="fractalNoise" baseFrequency="0.625 0.625" stitchTiles="stitch" numOctaves="3" result="noise" seed="615" />
<feColorMatrix in="noise" type="luminanceToAlpha" result="alphaNoise" />
<feComponentTransfer in="alphaNoise" result="coloredNoise1">
<feFuncA type="discrete" tableValues="0 1 1 1 1 1 1 1 1 1 1 1 1 1 1 1 1 1 1 1 1 1 1 1 1 1 1 1 1 1 1 1 1 1 1 1 1 1 1 1 1 1 1 1 1 1 1 1 1 1 0 0 0 0 0 0 0 0 0 0 0 0 0 0 0 0 0 0 0 0 0 0 0 0 0 0 0 0 0 0 0 0 0 0 0 0 0 0 0 0 0 0 0 0 0 0 0 0 0 0 "/>
</feComponentTransfer>
<feComposite operator="in" in2="shape" in="coloredNoise1" result="noise1Clipped" />
<feFlood flood-color="rgba(0, 0, 0, 0.05)" result="color1Flood" />
<feComposite operator="in" in2="noise1Clipped" in="color1Flood" result="color1" />
<feMerge result="effect1_noise_1613_2192">
<feMergeNode in="shape" />
<feMergeNode in="color1" />
</feMerge>
</filter>
<filter id="filter1_d_1613_2192" x="23.8293" y="51.2648" width="161.916" height="161.917" filterUnits="userSpaceOnUse" color-interpolation-filters="sRGB">
<feFlood flood-opacity="0" result="BackgroundImageFix"/>
<feColorMatrix in="SourceAlpha" type="matrix" values="0 0 0 0 0 0 0 0 0 0 0 0 0 0 0 0 0 0 127 0" result="hardAlpha"/>
<feOffset/>
<feGaussianBlur stdDeviation="5.35"/>
<feComposite in2="hardAlpha" operator="out"/>
<feColorMatrix type="matrix" values="0 0 0 0 0.780392 0 0 0 0 0.321569 0 0 0 0 0.184314 0 0 0 1 0"/>
<feBlend mode="normal" in2="BackgroundImageFix" result="effect1_dropShadow_1613_2192"/>
<feBlend mode="normal" in="SourceGraphic" in2="effect1_dropShadow_1613_2192" result="shape"/>
</filter>
<clipPath id="clip0_1613_2192">
<rect width="209.578" height="242" fill="white"/>
</clipPath>
</defs>
</svg>
