<svg width="206" height="206" viewBox="0 0 206 206" fill="none" xmlns="http://www.w3.org/2000/svg">
<g filter="url(#filter0_dn_1363_2069)">
<path fill-rule="evenodd" clip-rule="evenodd" d="M140.927 136.927L103.285 174.57L103.285 148.316L127.8 123.801L140.927 136.927Z" fill="#2A2C36"/>
<path d="M103.285 148.316L93.4475 138.479L91.8958 136.927L78.7691 150.054L103.285 174.57L103.285 148.316Z" fill="#252730"/>
<path fill-rule="evenodd" clip-rule="evenodd" d="M103.285 24.0005L140.927 61.6428L127.8 74.7696L103.285 50.254L103.285 24.0005Z" fill="#61636E"/>
<path d="M93.6022 59.9364L103.285 50.254L103.285 24.0005L80.4755 46.8097L93.6022 59.9364Z" fill="#474953"/>
<path fill-rule="evenodd" clip-rule="evenodd" d="M140.927 61.6428L178.569 99.2852H152.316L127.8 74.7696L140.927 61.6428Z" fill="#46484E"/>
<path d="M152.316 99.2852L127.8 123.801L140.927 136.927L178.569 99.2852H152.316Z" fill="#33343B"/>
<path d="M152.316 99.2852L127.8 74.7696L103.285 50.254L103.285 61.6428L140.927 99.2852H152.316Z" fill="#292A30"/>
<path d="M127.8 123.801L152.316 99.2852H140.927L103.285 136.927L103.285 148.316L127.8 123.801Z" fill="#1E1F24"/>
<path d="M103.285 148.316L103.285 136.927L99.1419 132.785L93.4475 138.479L103.285 148.316Z" fill="#373840"/>
<path d="M91.8958 136.927L93.4475 138.479L99.1419 132.785L65.6423 99.2852H54.2535L91.8958 136.927Z" fill="#373840"/>
<path fill-rule="evenodd" clip-rule="evenodd" d="M78.7691 150.054L28 99.2852H54.2535L91.8958 136.927L78.7691 150.054ZM93.6022 59.9364L54.2535 99.2852H65.6423L99.1419 132.785L103.285 136.927L140.927 99.2852L103.285 61.6428L103.285 50.254L93.6022 59.9364Z" fill="#252730"/>
<path d="M80.4755 46.8097L28 99.2852H54.2535L93.6022 59.9364L80.4755 46.8097Z" fill="#474953"/>
</g>
<g filter="url(#filter1_d_1363_2069)">
<path d="M129 92.4286H108.857L103 98.5H133.5L129 92.4286Z" fill="#FFCA8F"/>
<path d="M108.857 92.4286V72L103 67.5V98.5L108.857 92.4286Z" fill="#FFDDB8"/>
<path d="M97.1429 72V92.4286L103 98.5V67.5L97.1429 72Z" fill="#FFC17B"/>
<path d="M97.1429 92.4286H77L73.5 98.5H103L97.1429 92.4286Z" fill="#FFA743"/>
<path d="M73.5 98.5L77 104.429H97.0714L103 98.5H73.5Z" fill="#FF9217"/>
<path d="M97.1429 104.429V125L103 128V98.5L97.0714 104.429H97.1429Z" fill="#E98B23"/>
<path d="M108.857 125V104.429H108.929L103 98.5V128L108.857 125Z" fill="#FFB461"/>
<path d="M129 104.429L133.5 98.5H103L108.929 104.429H129Z" fill="#FEA138"/>
</g>
<defs>
<filter id="filter0_dn_1363_2069" x="0.799999" y="0.800976" width="204.968" height="204.968" filterUnits="userSpaceOnUse" color-interpolation-filters="sRGB">
<feFlood flood-opacity="0" result="BackgroundImageFix"/>
<feColorMatrix in="SourceAlpha" type="matrix" values="0 0 0 0 0 0 0 0 0 0 0 0 0 0 0 0 0 0 127 0" result="hardAlpha"/>
<feOffset dy="4"/>
<feGaussianBlur stdDeviation="13.6"/>
<feComposite in2="hardAlpha" operator="out"/>
<feColorMatrix type="matrix" values="0 0 0 0 0 0 0 0 0 0 0 0 0 0 0 0 0 0 0.25 0"/>
<feBlend mode="normal" in2="BackgroundImageFix" result="effect1_dropShadow_1363_2069"/>
<feBlend mode="normal" in="SourceGraphic" in2="BackgroundImageFix" result="shape"/>
<feTurbulence type="fractalNoise" baseFrequency="0.76923078298568726 0.76923078298568726" stitchTiles="stitch" numOctaves="3" result="noise" seed="7591" />
<feColorMatrix in="noise" type="luminanceToAlpha" result="alphaNoise" />
<feComponentTransfer in="alphaNoise" result="coloredNoise1">
<feFuncA type="discrete" tableValues="1 1 1 1 1 1 1 1 1 1 1 1 1 1 1 1 1 1 1 1 1 1 1 1 1 1 1 1 1 1 1 1 1 1 1 1 1 1 1 1 1 1 1 1 1 1 1 1 1 1 1 0 0 0 0 0 0 0 0 0 0 0 0 0 0 0 0 0 0 0 0 0 0 0 0 0 0 0 0 0 0 0 0 0 0 0 0 0 0 0 0 0 0 0 0 0 0 0 0 0 "/>
</feComponentTransfer>
<feComposite operator="in" in2="shape" in="coloredNoise1" result="noise1Clipped" />
<feFlood flood-color="rgba(0, 0, 0, 0.04)" result="color1Flood" />
<feComposite operator="in" in2="noise1Clipped" in="color1Flood" result="color1" />
<feMerge result="effect2_noise_1363_2069">
<feMergeNode in="shape" />
<feMergeNode in="color1" />
</feMerge>
<feBlend mode="normal" in="effect2_noise_1363_2069" in2="effect1_dropShadow_1363_2069" result="effect2_noise_1363_2069"/>
</filter>
<filter id="filter1_d_1363_2069" x="52.4" y="46.4" width="102.2" height="102.7" filterUnits="userSpaceOnUse" color-interpolation-filters="sRGB">
<feFlood flood-opacity="0" result="BackgroundImageFix"/>
<feColorMatrix in="SourceAlpha" type="matrix" values="0 0 0 0 0 0 0 0 0 0 0 0 0 0 0 0 0 0 127 0" result="hardAlpha"/>
<feOffset/>
<feGaussianBlur stdDeviation="10.55"/>
<feComposite in2="hardAlpha" operator="out"/>
<feColorMatrix type="matrix" values="0 0 0 0 0.996078 0 0 0 0 0.627451 0 0 0 0 0.219608 0 0 0 1 0"/>
<feBlend mode="normal" in2="BackgroundImageFix" result="effect1_dropShadow_1363_2069"/>
<feBlend mode="normal" in="SourceGraphic" in2="effect1_dropShadow_1363_2069" result="shape"/>
</filter>
</defs>
</svg>
