<svg width="467" height="467" viewBox="0 0 467 467" fill="none" xmlns="http://www.w3.org/2000/svg">
<g filter="url(#filter0_dn_235_2078)">
<path fill-rule="evenodd" clip-rule="evenodd" d="M330.106 325.896L233.738 422.265L233.738 355.053L296.5 292.29L330.106 325.896Z" fill="#2A2C36"/>
<path d="M233.738 355.053L199.5 320.29L204.581 325.896L170.975 359.502L233.738 422.265L233.738 355.053Z" fill="#252730"/>
<path fill-rule="evenodd" clip-rule="evenodd" d="M233.738 36.7903L330.106 133.159L296.5 166.765L233.738 104.002L233.738 36.7903Z" fill="#61636E"/>
<path d="M203.001 133.158L233.738 104.002L233.738 36.7903L169.395 99.5525L203.001 133.158Z" fill="#474953"/>
<path fill-rule="evenodd" clip-rule="evenodd" d="M330.106 133.159L426.475 229.528L359.263 229.528L296.5 166.765L330.106 133.159Z" fill="#46484E"/>
<path d="M359.263 229.528L296.5 292.29L330.106 325.896L426.475 229.528L359.263 229.528Z" fill="#33343B"/>
<path d="M359.263 229.528L296.5 166.765L233.738 104.002L233.738 133.159L330.106 229.528H359.263Z" fill="#292A30"/>
<path d="M296.5 292.29L359.263 229.528H330.106L233.738 325.896V355.053L296.5 292.29Z" fill="#1E1F24"/>
<path fill-rule="evenodd" clip-rule="evenodd" d="M41.0002 229.528L169.395 99.5525L203.001 133.158L233.738 104.002L233.738 133.159L330.106 229.528L233.738 325.896L214 305.79L199.5 320.29L204.581 325.896L170.975 359.502L41.0002 229.528Z" fill="#42444B"/>
<path d="M233.738 355.053V325.896L214 305.79L199.5 320.29L233.738 355.053Z" fill="#373840"/>
</g>
<g filter="url(#filter1_d_235_2078)">
<path d="M313.897 228.513L233.722 148.337V228.513H313.897Z" fill="#C06DFF"/>
<path fill-rule="evenodd" clip-rule="evenodd" d="M233.722 308.688V228.513V148.337L153.547 228.513L233.722 308.688Z" fill="#A631FF"/>
<path d="M233.722 308.688L313.897 228.513H233.722V308.688Z" fill="#A126FF"/>
</g>
<g filter="url(#filter2_n_235_2078)">
<path d="M210.889 229.234H301.89L169.89 97.2344V188.235L210.889 229.234Z" fill="#7D7F89"/>
<path d="M32 229.234H123L164 188.235V97.2344L32 229.234Z" fill="#53555E"/>
<path d="M166.945 364.179L301.89 229.234H210.889L166.945 273.179V364.179Z" fill="#505460"/>
<path d="M32 229.234L166.945 364.179V273.179L123 229.234H32Z" fill="#33353C"/>
<path d="M166.945 94.2895V185.29L169.89 188.235V97.2344L166.945 94.2895Z" fill="#FF6200"/>
<path d="M166.945 185.29V94.2895L164 97.2344V188.235L166.945 185.29Z" fill="#FF9B10"/>
<path d="M166.945 185.29L164 188.235V207.79L142.556 229.234L166.945 253.624V246.179L150 229.234L166.945 212.29V185.29Z" fill="#FF9B10"/>
<path fill-rule="evenodd" clip-rule="evenodd" d="M123 229.234L166.945 273.179L210.889 229.234L169.89 188.235V207.79L191.334 229.234L166.945 253.624L142.556 229.234L164 207.79V188.235L123 229.234Z" fill="#6E6C60"/>
<path d="M169.89 188.235L166.945 185.29V212.29L150 229.234L166.945 246.179V253.624L191.334 229.234L169.89 207.79V188.235Z" fill="#FF6200"/>
</g>
<g filter="url(#filter3_d_235_2078)">
<path d="M166.667 94V185L169.612 187.945V96.9448L166.667 94Z" fill="#FF6200"/>
<path d="M166.667 185V94L163.722 96.9448V187.945L166.667 185Z" fill="#FF9B10"/>
<path d="M166.667 185L163.722 187.945V207.5L142.278 228.945L166.667 253.334V245.889L149.723 228.945L166.667 212V185Z" fill="#FF9B10"/>
<path d="M169.612 187.945L166.667 185V212L149.723 228.945L166.667 245.889V253.334L191.056 228.945L169.612 207.5V187.945Z" fill="#FF6200"/>
</g>
<defs>
<filter id="filter0_dn_235_2078" x="0.799999" y="0.590038" width="465.875" height="465.875" filterUnits="userSpaceOnUse" color-interpolation-filters="sRGB">
<feFlood flood-opacity="0" result="BackgroundImageFix"/>
<feColorMatrix in="SourceAlpha" type="matrix" values="0 0 0 0 0 0 0 0 0 0 0 0 0 0 0 0 0 0 127 0" result="hardAlpha"/>
<feOffset dy="4"/>
<feGaussianBlur stdDeviation="20.1"/>
<feComposite in2="hardAlpha" operator="out"/>
<feColorMatrix type="matrix" values="0 0 0 0 0 0 0 0 0 0 0 0 0 0 0 0 0 0 0.25 0"/>
<feBlend mode="normal" in2="BackgroundImageFix" result="effect1_dropShadow_235_2078"/>
<feBlend mode="normal" in="SourceGraphic" in2="BackgroundImageFix" result="shape"/>
<feTurbulence type="fractalNoise" baseFrequency="0.76923078298568726 0.76923078298568726" stitchTiles="stitch" numOctaves="3" result="noise" seed="7591" />
<feColorMatrix in="noise" type="luminanceToAlpha" result="alphaNoise" />
<feComponentTransfer in="alphaNoise" result="coloredNoise1">
<feFuncA type="discrete" tableValues="1 1 1 1 1 1 1 1 1 1 1 1 1 1 1 1 1 1 1 1 1 1 1 1 1 1 1 1 1 1 1 1 1 1 1 1 1 1 1 1 1 1 1 1 1 1 1 1 1 1 1 0 0 0 0 0 0 0 0 0 0 0 0 0 0 0 0 0 0 0 0 0 0 0 0 0 0 0 0 0 0 0 0 0 0 0 0 0 0 0 0 0 0 0 0 0 0 0 0 0 "/>
</feComponentTransfer>
<feComposite operator="in" in2="shape" in="coloredNoise1" result="noise1Clipped" />
<feFlood flood-color="rgba(0, 0, 0, 0.04)" result="color1Flood" />
<feComposite operator="in" in2="noise1Clipped" in="color1Flood" result="color1" />
<feMerge result="effect2_noise_235_2078">
<feMergeNode in="shape" />
<feMergeNode in="color1" />
</feMerge>
<feBlend mode="normal" in="effect2_noise_235_2078" in2="effect1_dropShadow_235_2078" result="effect2_noise_235_2078"/>
</filter>
<filter id="filter1_d_235_2078" x="49.1469" y="43.9379" width="369.151" height="369.15" filterUnits="userSpaceOnUse" color-interpolation-filters="sRGB">
<feFlood flood-opacity="0" result="BackgroundImageFix"/>
<feColorMatrix in="SourceAlpha" type="matrix" values="0 0 0 0 0 0 0 0 0 0 0 0 0 0 0 0 0 0 127 0" result="hardAlpha"/>
<feOffset/>
<feGaussianBlur stdDeviation="52.2"/>
<feComposite in2="hardAlpha" operator="out"/>
<feColorMatrix type="matrix" values="0 0 0 0 0.65098 0 0 0 0 0.192157 0 0 0 0 1 0 0 0 1 0"/>
<feBlend mode="normal" in2="BackgroundImageFix" result="effect1_dropShadow_235_2078"/>
<feBlend mode="normal" in="SourceGraphic" in2="effect1_dropShadow_235_2078" result="shape"/>
</filter>
<filter id="filter2_n_235_2078" x="32" y="94.2891" width="269.89" height="269.891" filterUnits="userSpaceOnUse" color-interpolation-filters="sRGB">
<feFlood flood-opacity="0" result="BackgroundImageFix"/>
<feBlend mode="normal" in="SourceGraphic" in2="BackgroundImageFix" result="shape"/>
<feTurbulence type="fractalNoise" baseFrequency="0.76923078298568726 0.76923078298568726" stitchTiles="stitch" numOctaves="3" result="noise" seed="7591" />
<feColorMatrix in="noise" type="luminanceToAlpha" result="alphaNoise" />
<feComponentTransfer in="alphaNoise" result="coloredNoise1">
<feFuncA type="discrete" tableValues="1 1 1 1 1 1 1 1 1 1 1 1 1 1 1 1 1 1 1 1 1 1 1 1 1 1 1 1 1 1 1 1 1 1 1 1 1 1 1 1 1 1 1 1 1 1 1 1 1 1 1 0 0 0 0 0 0 0 0 0 0 0 0 0 0 0 0 0 0 0 0 0 0 0 0 0 0 0 0 0 0 0 0 0 0 0 0 0 0 0 0 0 0 0 0 0 0 0 0 0 "/>
</feComponentTransfer>
<feComposite operator="in" in2="shape" in="coloredNoise1" result="noise1Clipped" />
<feFlood flood-color="rgba(0, 0, 0, 0.04)" result="color1Flood" />
<feComposite operator="in" in2="noise1Clipped" in="color1Flood" result="color1" />
<feMerge result="effect1_noise_235_2078">
<feMergeNode in="shape" />
<feMergeNode in="color1" />
</feMerge>
</filter>
<filter id="filter3_d_235_2078" x="111.377" y="63.1" width="110.579" height="221.134" filterUnits="userSpaceOnUse" color-interpolation-filters="sRGB">
<feFlood flood-opacity="0" result="BackgroundImageFix"/>
<feColorMatrix in="SourceAlpha" type="matrix" values="0 0 0 0 0 0 0 0 0 0 0 0 0 0 0 0 0 0 127 0" result="hardAlpha"/>
<feOffset/>
<feGaussianBlur stdDeviation="15.45"/>
<feComposite in2="hardAlpha" operator="out"/>
<feColorMatrix type="matrix" values="0 0 0 0 1 0 0 0 0 0.384314 0 0 0 0 0 0 0 0 1 0"/>
<feBlend mode="normal" in2="BackgroundImageFix" result="effect1_dropShadow_235_2078"/>
<feBlend mode="normal" in="SourceGraphic" in2="effect1_dropShadow_235_2078" result="shape"/>
</filter>
</defs>
</svg>
