<svg width="935" height="539" viewBox="0 0 935 539" fill="none" xmlns="http://www.w3.org/2000/svg">
<g filter="url(#filter0_f_1570_859)">
<path d="M336.793 140.357H336.421C335.43 136.086 333.54 132.03 330.752 128.192C327.964 124.293 324.37 121.105 319.971 118.629C315.633 116.153 310.584 114.914 304.821 114.914C301.228 114.914 298.068 115.441 295.342 116.493C292.678 117.546 290.601 119.062 289.114 121.043C287.627 123.024 286.884 125.314 286.884 127.914C286.884 131.443 288.247 134.29 290.974 136.457C293.7 138.562 297.2 140.388 301.476 141.936C305.751 143.421 310.274 144.938 315.045 146.485C319.816 147.971 324.339 149.829 328.614 152.058C332.951 154.286 336.452 157.196 339.116 160.786C341.842 164.377 343.206 169.019 343.206 174.714C343.206 180.781 341.687 185.95 338.651 190.222C335.615 194.493 331.588 197.774 326.569 200.064C321.551 202.355 316.129 203.5 310.305 203.5C305.534 203.5 301.073 202.726 296.922 201.179C292.771 199.631 289.083 197.464 285.861 194.679L275.452 203.5H275.081V175.828H275.452C276.382 181.152 278.489 185.857 281.772 189.942C285.056 194.028 289.115 197.247 293.947 199.6C298.78 201.89 304.016 203.036 309.654 203.036C313.558 203.036 317.121 202.479 320.343 201.364C323.627 200.188 326.229 198.454 328.149 196.164C330.132 193.812 331.124 190.81 331.124 187.157C331.124 183.443 329.822 180.533 327.22 178.429C324.617 176.324 321.241 174.59 317.09 173.229C313.001 171.805 308.632 170.412 303.985 169.05C299.4 167.626 295.063 165.831 290.974 163.664C286.884 161.497 283.538 158.588 280.936 154.936C278.333 151.283 277.032 146.486 277.032 140.543C277.032 136.024 278.117 131.814 280.285 127.914C282.454 123.952 285.583 120.733 289.672 118.257C293.823 115.781 298.842 114.543 304.729 114.543C309.19 114.543 313.217 115.286 316.811 116.771C320.404 118.195 323.534 120.083 326.198 122.436L336.421 114.357H336.793V140.357ZM401.896 114.357C408.774 114.357 414.753 115.503 419.834 117.793C424.977 120.022 428.942 123.055 431.73 126.893C434.519 130.731 435.912 135.002 435.912 139.707C435.912 143.793 434.642 146.981 432.102 149.271C429.623 151.562 426.618 152.707 423.087 152.707C421.042 152.707 418.997 152.274 416.952 151.407C414.908 150.479 413.173 149.086 411.748 147.229C410.385 145.309 409.703 142.864 409.703 139.893C409.703 135.931 411.036 132.898 413.7 130.793C416.426 128.626 419.555 127.543 423.087 127.543C426.433 127.543 429.376 128.595 431.916 130.7C433.474 131.953 434.553 133.568 435.155 135.543C434.733 133.359 433.964 131.342 432.846 129.493C431.111 126.46 428.787 123.891 425.875 121.786C423.025 119.681 419.864 118.071 416.395 116.957C412.925 115.843 409.455 115.286 405.985 115.286C401.091 115.286 397.125 116.71 394.089 119.558C391.115 122.405 388.854 126.089 387.305 130.607C385.756 135.064 384.702 139.8 384.145 144.814C383.649 149.829 383.401 154.534 383.401 158.929C383.401 164.252 383.711 169.483 384.33 174.621C384.95 179.759 386.034 184.402 387.583 188.55C389.194 192.635 391.456 195.916 394.368 198.393C397.28 200.807 401.029 202.015 405.614 202.015C410.942 202.015 415.62 200.9 419.647 198.672C423.675 196.381 427.083 193.224 429.871 189.2C432.721 185.115 434.953 180.41 436.563 175.086H436.935C434.518 183.319 430.491 190.129 424.853 195.515C419.214 200.838 411.345 203.5 401.246 203.5C392.943 203.5 385.476 201.828 378.847 198.485C372.217 195.081 366.95 190.066 363.047 183.442C359.206 176.819 357.285 168.647 357.285 158.929C357.285 150.448 358.989 142.864 362.396 136.179C365.866 129.431 370.916 124.107 377.546 120.207C384.238 116.307 392.355 114.357 401.896 114.357ZM497.458 114.357C506.628 114.357 514.497 116.4 521.064 120.485C527.694 124.571 532.775 129.988 536.307 136.735C539.257 142.274 540.994 148.252 541.522 154.667C539.235 145.522 528.893 137.929 514.892 134.486C514.473 132.696 513.99 130.97 513.443 129.308C512.08 124.912 510.097 121.384 507.495 118.722C504.955 116.06 501.609 114.729 497.458 114.729C493.369 114.729 490.022 116.06 487.42 118.722C484.88 121.384 482.897 124.913 481.472 129.308C480.922 131.056 480.438 132.875 480.02 134.764C464.683 138.826 454 147.926 454 158.5C454 169.028 464.59 178.094 479.818 182.183C480.281 184.425 480.831 186.578 481.472 188.643C482.897 192.976 484.88 196.474 487.42 199.136C490.022 201.798 493.369 203.129 497.458 203.129C501.609 203.129 504.955 201.798 507.495 199.136C510.097 196.474 512.08 192.976 513.443 188.643C514.085 186.664 514.638 184.604 515.104 182.462C529.185 178.948 539.522 171.227 541.609 161.965C541.211 168.846 539.444 175.231 536.307 181.121C532.775 187.869 527.694 193.285 521.064 197.371C514.497 201.457 506.628 203.5 497.458 203.5C488.412 203.5 480.574 201.457 473.944 197.371C467.315 193.285 462.202 187.869 458.608 181.121C455.077 174.374 453.312 166.976 453.312 158.929C453.312 150.881 455.077 143.483 458.608 136.735C462.202 129.988 467.315 124.571 473.944 120.485C480.574 116.4 488.412 114.357 497.458 114.357ZM598.11 116.586H583.333L607.219 180.75L633.614 116.586H615.77V116.214H649.229V116.586H634.172L598.575 203.5H594.486L558.797 116.586H547.737V116.214H598.11V116.586ZM696.134 114.357C705.366 114.357 712.925 116.214 718.812 119.929C724.698 123.581 729.035 128.379 731.823 134.321C734.611 140.264 736.005 146.61 736.005 153.357H677.149C677.105 154.833 677.081 156.319 677.081 157.814C677.081 163.51 677.391 169.05 678.011 174.436C678.692 179.759 679.869 184.526 681.542 188.735C683.215 192.945 685.539 196.319 688.513 198.857C691.487 201.334 695.297 202.571 699.944 202.571C709.176 202.571 716.891 199.941 723.087 194.679C729.283 189.355 733.527 182.824 735.819 175.086H736.191C733.775 183.133 729.313 189.881 722.808 195.328C716.302 200.776 707.596 203.5 696.691 203.5C688.265 203.5 680.675 201.766 673.921 198.3C667.167 194.771 661.839 189.695 657.936 183.071C654.032 176.448 652.08 168.4 652.08 158.929C652.08 149.458 653.97 141.41 657.749 134.786C661.59 128.162 666.826 123.117 673.456 119.65C680.148 116.122 687.707 114.357 696.134 114.357ZM133.415 62.3574C147.79 62.3575 160.12 65.3287 170.405 71.2715C180.753 77.2143 188.715 85.4479 194.291 95.9717C199.867 106.434 202.655 118.443 202.655 132C202.655 142.152 200.983 151.5 197.637 160.043C194.291 168.524 189.551 175.89 183.417 182.143C177.345 188.333 170.065 193.131 161.576 196.536C153.15 199.941 143.762 201.643 133.415 201.643H77V201.271H93.6367V135.451C102.846 133.611 111.209 129.43 118.08 123.553V201.271H133.415C141.16 201.271 147.634 199.352 152.839 195.515C158.105 191.677 162.32 186.507 165.479 180.007C168.701 173.445 170.993 166.017 172.356 157.722C173.782 149.426 174.494 140.821 174.494 131.907C174.494 123.055 173.689 114.512 172.078 106.278C170.529 97.9833 168.113 90.5858 164.829 84.0859C161.545 77.524 157.3 72.3234 152.096 68.4854C146.953 64.6474 140.726 62.7286 133.415 62.7285H133.266C135.676 68.8515 137 75.5211 137 82.5C137 98.932 129.66 113.649 118.08 123.553V62.7285H133.266C133.217 62.6045 133.167 62.481 133.117 62.3574H133.415ZM249.938 201.271H261.649V201.643H215.923V201.271H227.633V116.586H215.923V116.214H249.938V201.271ZM806.227 114.357C810.192 114.357 813.568 115.224 816.356 116.957C819.145 118.628 821.282 120.826 822.77 123.55C824.257 126.274 825 129.183 825 132.278C825 136.116 823.761 139.428 821.282 142.214C818.866 144.938 815.582 146.3 811.431 146.3C807.217 146.3 803.84 145.062 801.3 142.586C798.822 140.11 797.583 137.138 797.583 133.672C797.583 129.462 798.946 126.119 801.672 123.643C804.398 121.105 807.589 119.836 811.245 119.836C813.909 119.836 816.264 120.423 818.309 121.6C820.353 122.776 821.964 124.293 823.142 126.15C823.532 126.767 823.856 127.404 824.117 128.062C823.746 126.569 823.175 125.126 822.397 123.735C820.972 121.074 818.897 118.907 816.171 117.235C813.445 115.564 810.13 114.729 806.227 114.729C801.27 114.729 797.18 115.998 793.958 118.536C790.798 121.012 788.319 124.417 786.522 128.75C784.788 133.021 783.548 137.912 782.805 143.422C782.166 148.529 781.827 153.853 781.787 159.396L781.783 160.507V201.271H794.423V201.643H747.767V201.271H759.57V116.586H747.767V116.214H781.783V150.128C781.965 147.677 782.212 145.286 782.526 142.957C783.27 137.448 784.54 132.557 786.337 128.286C788.134 123.953 790.643 120.547 793.865 118.071C797.149 115.595 801.27 114.357 806.227 114.357ZM498 132.5C503.985 132.5 509.69 133.207 514.892 134.486C515.565 137.362 516.074 140.402 516.418 143.607C516.976 148.745 517.254 153.853 517.254 158.929C517.254 163.943 516.976 169.05 516.418 174.25C516.111 177.109 515.672 179.846 515.104 182.462C509.846 183.774 504.066 184.5 498 184.5C491.516 184.5 485.36 183.671 479.818 182.183C479.296 179.652 478.887 177.007 478.591 174.25C478.033 169.05 477.755 163.943 477.755 158.929C477.755 153.853 478.033 148.745 478.591 143.607C478.923 140.505 479.4 137.557 480.02 134.764C485.509 133.309 491.595 132.5 498 132.5ZM541.522 154.667C541.835 155.918 542 157.198 542 158.5C542 159.675 541.865 160.831 541.609 161.965C541.667 160.963 541.697 159.951 541.697 158.929C541.697 157.487 541.638 156.067 541.522 154.667ZM696.134 114.729C692.416 114.729 689.318 115.966 686.84 118.442C684.361 120.857 682.409 124.169 680.984 128.379C679.559 132.526 678.538 137.138 677.918 142.214C677.53 145.744 677.28 149.335 677.162 152.985H711.655C711.655 149.086 711.469 144.938 711.098 140.543C710.788 136.086 710.106 131.907 709.053 128.007C708.061 124.107 706.512 120.919 704.405 118.442C702.361 115.966 699.603 114.729 696.134 114.729ZM83 28.5C105.703 28.5 125.133 42.5109 133.117 62.3574H77V62.7285H93.6367V135.451C90.1977 136.138 86.6411 136.5 83 136.5C53.1766 136.5 29 112.323 29 82.5C29 52.6766 53.1766 28.5 83 28.5ZM238.786 60.5C242.752 60.5 246.066 61.8313 248.73 64.4932C251.395 67.1551 252.727 70.4669 252.727 74.4287C252.727 78.2667 251.395 81.5477 248.73 84.2715C246.066 86.9952 242.751 88.3574 238.786 88.3574C234.945 88.3574 231.661 86.9952 228.935 84.2715C226.27 81.5477 224.938 78.2667 224.938 74.4287C224.938 70.4668 226.27 67.1551 228.935 64.4932C231.661 61.8313 234.945 60.5 238.786 60.5Z" fill="url(#paint0_linear_1570_859)"/>
</g>
<g filter="url(#filter1_f_1570_859)">
<path d="M89.5372 525.461L106.875 448.572L76.2786 372.5H98.7163L125.846 449.184L187.243 372.908H187.651L126.05 449.796L108.915 525.461H89.5372ZM71.1791 525.461V525.053H129.313V525.461H71.1791ZM62 372.908V372.5H121.154V372.908H62ZM162.97 372.908V372.5H205.806V372.908H162.97Z" fill="white"/>
<path d="M195.245 527.5C184.978 527.5 177.363 524.373 172.399 518.118C167.436 511.864 164.954 504.148 164.954 494.97C164.954 486.065 166.416 477.669 169.339 469.783C172.331 461.897 176.377 454.963 181.476 448.98C186.576 442.93 192.389 438.205 198.916 434.806C205.512 431.339 212.413 429.605 219.62 429.605C229.955 429.605 237.571 432.766 242.466 439.089C247.43 445.343 249.911 453.059 249.911 462.237C249.911 471.143 248.416 479.538 245.424 487.424C242.5 495.31 238.489 502.279 233.389 508.329C228.29 514.311 222.442 519.002 215.847 522.401C209.319 525.8 202.452 527.5 195.245 527.5ZM193.205 527.092C196.945 527.092 200.582 525.834 204.118 523.319C207.722 520.736 211.155 517.269 214.419 512.918C217.683 508.567 220.674 503.638 223.394 498.132C226.114 492.625 228.46 486.846 230.431 480.796C232.471 474.746 234.035 468.763 235.123 462.849C236.279 456.934 236.857 451.462 236.857 446.431C236.857 441.4 235.633 437.423 233.185 434.5C230.737 431.577 226.896 430.115 221.66 430.115C217.989 430.115 214.351 431.407 210.747 433.99C207.144 436.505 203.71 439.939 200.446 444.289C197.183 448.64 194.191 453.569 191.471 459.076C188.752 464.582 186.372 470.361 184.332 476.411C182.36 482.462 180.796 488.444 179.64 494.359C178.553 500.205 178.009 505.678 178.009 510.776C178.009 515.739 179.232 519.716 181.68 522.707C184.196 525.63 188.038 527.092 193.205 527.092Z" fill="white"/>
<path d="M282.333 527.5C275.806 527.5 271.08 526.106 268.156 523.319C265.233 520.464 263.635 516.725 263.363 512.102C263.091 507.411 263.567 502.279 264.791 496.704L279.375 432.053H265.097V431.645H296.816L282.129 494.359C280.905 499.729 279.885 504.76 279.069 509.451C278.321 514.141 278.423 517.948 279.375 520.872C280.395 523.795 282.945 525.257 287.024 525.257C290.492 525.257 294.368 523.319 298.651 519.444C302.935 515.501 307.184 510.3 311.4 503.842C315.684 497.316 319.593 490.144 323.129 482.326C326.665 474.44 329.384 466.588 331.288 458.77H331.696C330.54 463.8 328.772 469.375 326.393 475.493C324.013 481.612 321.191 487.73 317.927 493.849C314.732 499.967 311.196 505.576 307.32 510.674C303.445 515.705 299.365 519.784 295.082 522.911C290.866 525.97 286.617 527.5 282.333 527.5ZM334.552 527.5C329.248 527.5 325.237 526.14 322.517 523.421C319.797 520.702 318.437 517.813 318.437 514.753C318.437 513.938 318.505 512.918 318.641 511.694C318.845 510.402 319.083 509.213 319.355 508.125L337.815 431.645H355.052L331.798 519.138C331.662 519.75 331.56 520.396 331.492 521.076C331.424 521.688 331.39 522.265 331.39 522.809C331.39 525.393 332.648 526.684 335.164 526.684C339.175 526.684 342.813 525.596 346.077 523.421C349.408 521.178 352.536 517.677 355.46 512.918C358.383 508.091 361.273 501.837 364.129 494.155L364.435 494.257C361.511 502.075 358.553 508.431 355.562 513.326C352.57 518.22 349.374 521.823 345.975 524.135C342.575 526.378 338.767 527.5 334.552 527.5Z" fill="white"/>
<path d="M376.455 525.461L399.709 432.053H383.798V431.645H415.007L392.57 525.461H376.455ZM400.525 490.178C401.681 485.283 403.074 480.082 404.706 474.576C406.338 469.069 408.208 463.664 410.316 458.362C412.492 453.059 414.939 448.266 417.659 443.984C420.379 439.633 423.438 436.166 426.838 433.582C430.238 430.999 434.011 429.707 438.159 429.707C442.783 429.707 446.386 430.999 448.97 433.582C451.622 436.098 452.947 439.089 452.947 442.556C452.947 445.819 452.03 448.64 450.194 451.02C448.426 453.331 445.842 454.487 442.443 454.487C439.111 454.487 436.425 453.399 434.385 451.224C432.346 449.048 431.326 446.363 431.326 443.168C431.326 440.38 432.278 438.103 434.181 436.336C436.085 434.5 438.805 433.582 442.341 433.582C445.128 433.582 447.542 434.432 449.582 436.132C451.69 437.831 452.744 439.973 452.744 442.556H452.54C452.54 439.225 451.282 436.336 448.766 433.888C446.318 431.373 442.783 430.115 438.159 430.115C434.079 430.115 430.34 431.407 426.94 433.99C423.608 436.573 420.583 440.007 417.863 444.289C415.211 448.572 412.832 453.365 410.724 458.668C408.616 463.902 406.746 469.273 405.114 474.78C403.482 480.218 402.089 485.351 400.933 490.178H400.525Z" fill="white"/>
<path d="M522.165 525.461L557.658 372.5H577.036L541.543 525.461H522.165ZM504.827 525.461V525.053H575.2C584.515 525.053 592.368 523.081 598.759 519.138C605.151 515.127 610.318 509.689 614.262 502.822C618.205 495.956 621.163 488.206 623.135 479.572H623.543L612.936 525.461H504.827ZM589.07 468.763C590.09 464.208 589.92 460.265 588.56 456.934C587.201 453.603 585.025 451.054 582.033 449.286C579.041 447.451 575.608 446.533 571.732 446.533H557.25V446.125H571.732C575.608 446.125 579.449 445.309 583.257 443.678C587.065 442.046 590.396 439.667 593.252 436.539C596.108 433.344 598.045 429.469 599.065 424.914H599.473L589.478 468.763H589.07ZM636.19 414.309C637.889 407.035 638.195 400.271 637.108 394.016C636.02 387.694 633.334 382.595 629.05 378.72C624.767 374.845 618.647 372.908 610.692 372.908H539.299V372.5H646.389L636.598 414.309H636.19Z" fill="white"/>
<path d="M667.346 527.5C657.555 527.5 650.042 524.475 644.806 518.424C639.639 512.374 637.055 504.522 637.055 494.868C637.055 486.982 638.517 479.198 641.441 471.516C644.364 463.766 648.342 456.73 653.373 450.408C658.473 444.086 664.286 439.055 670.814 435.316C677.341 431.509 684.208 429.605 691.416 429.605C696.991 429.605 701.75 430.693 705.694 432.868C709.706 434.976 712.765 437.525 714.873 440.516C717.049 443.508 718.137 446.329 718.137 448.98C718.137 452.583 717.117 455.439 715.077 457.546C713.105 459.586 710.624 460.605 707.632 460.605C705.116 460.605 702.804 459.789 700.697 458.158C698.589 456.526 697.535 453.943 697.535 450.408C697.535 447.621 698.487 445.241 700.391 443.27C702.294 441.23 704.538 440.211 707.122 440.211C709.094 440.211 710.896 440.448 712.527 440.924C714.159 441.4 715.451 442.284 716.403 443.576C717.423 444.799 717.933 446.601 717.933 448.98H717.729C717.729 446.329 716.709 443.576 714.669 440.72C712.629 437.797 709.74 435.316 706 433.276C702.26 431.237 697.841 430.217 692.741 430.217C688.118 430.217 683.732 431.883 679.585 435.214C675.505 438.545 671.8 442.964 668.468 448.47C665.136 453.977 662.246 459.993 659.799 466.52C657.351 473.046 655.481 479.572 654.189 486.099C652.897 492.625 652.251 498.505 652.251 503.74C652.251 510.334 653.543 515.841 656.127 520.26C658.779 524.611 662.994 526.786 668.774 526.786C674.757 526.786 680.299 525.529 685.398 523.013C690.498 520.43 695.019 517.031 698.963 512.816C702.974 508.601 706.34 503.978 709.06 498.947L709.366 499.049C706.714 504.148 703.348 508.873 699.269 513.224C695.189 517.507 690.464 520.974 685.092 523.625C679.789 526.208 673.873 527.5 667.346 527.5Z" fill="white"/>
<path d="M723.236 525.461L764.134 372.908H747.204V372.5H780.861L740.065 525.461H723.236ZM797.179 527.5C792.419 527.5 788.578 526.412 785.654 524.237C782.73 521.993 781.269 518.934 781.269 515.059C781.269 513.971 781.404 512.748 781.676 511.388C782.016 509.961 782.424 508.397 782.9 506.697L795.751 462.645C797.519 456.73 798.743 451.462 799.423 446.839C800.103 442.216 799.865 438.613 798.709 436.03C797.621 433.378 795.173 432.053 791.366 432.053C787.762 432.053 783.852 433.922 779.637 437.661C775.489 441.4 771.342 446.431 767.194 452.753C763.114 459.076 759.307 466.18 755.771 474.066C752.303 481.952 749.448 490.042 747.204 498.336H747C748.292 493.169 750.128 487.492 752.507 481.306C754.887 475.12 757.641 469.001 760.769 462.951C763.964 456.9 767.466 451.36 771.274 446.329C775.081 441.298 779.093 437.287 783.308 434.296C787.524 431.237 791.841 429.707 796.261 429.707C802.176 429.707 806.596 431.135 809.52 433.99C812.511 436.777 814.245 440.482 814.721 445.105C815.197 449.728 814.653 454.793 813.089 460.299L796.261 519.036C796.125 519.512 795.989 520.09 795.853 520.77C795.785 521.382 795.751 521.959 795.751 522.503C795.751 525.223 797.145 526.582 799.933 526.582C805.78 526.582 810.914 524.067 815.333 519.036C819.821 514.005 824.24 505.712 828.592 494.155L828.898 494.257C825.974 502.075 823.016 508.431 820.025 513.326C817.101 518.22 813.803 521.823 810.132 524.135C806.528 526.378 802.21 527.5 797.179 527.5Z" fill="white"/>
<path d="M869.333 527.5C859.067 527.5 851.451 524.373 846.488 518.118C841.524 511.864 839.043 504.148 839.043 494.97C839.043 486.065 840.504 477.669 843.428 469.783C846.42 461.897 850.465 454.963 855.565 448.98C860.664 442.93 866.478 438.205 873.005 434.806C879.6 431.339 886.502 429.605 893.709 429.605C904.044 429.605 911.659 432.766 916.555 439.089C921.518 445.343 924 453.059 924 462.237C924 471.143 922.504 479.538 919.512 487.424C916.589 495.31 912.577 502.279 907.478 508.329C902.378 514.311 896.531 519.002 889.935 522.401C883.408 525.8 876.541 527.5 869.333 527.5ZM867.294 527.092C871.033 527.092 874.671 525.834 878.207 523.319C881.81 520.736 885.244 517.269 888.508 512.918C891.771 508.567 894.763 503.638 897.483 498.132C900.202 492.625 902.548 486.846 904.52 480.796C906.56 474.746 908.124 468.763 909.212 462.849C910.367 456.934 910.945 451.462 910.945 446.431C910.945 441.4 909.721 437.423 907.274 434.5C904.826 431.577 900.984 430.115 895.749 430.115C892.077 430.115 888.44 431.407 884.836 433.99C881.232 436.505 877.799 439.939 874.535 444.289C871.271 448.64 868.28 453.569 865.56 459.076C862.84 464.582 860.46 470.361 858.421 476.411C856.449 482.462 854.885 488.444 853.729 494.359C852.641 500.205 852.097 505.678 852.097 510.776C852.097 515.739 853.321 519.716 855.769 522.707C858.285 525.63 862.126 527.092 867.294 527.092Z" fill="white"/>
</g>
<path d="M580.476 273.5L585.916 249.372L576.316 225.5H583.356L591.868 249.5L611.1 225.628H611.324L591.932 249.82L586.556 273.5H580.476ZM574.716 273.5V273.308H592.956V273.5H574.716ZM571.836 225.692V225.5H590.396V225.692H571.836ZM603.516 225.692V225.5H616.956V225.692H603.516Z" fill="white"/>
<path d="M613.643 274.14C610.421 274.14 608.032 273.159 606.475 271.196C604.917 269.233 604.139 266.812 604.139 263.932C604.139 261.137 604.597 258.503 605.515 256.028C606.453 253.553 607.723 251.377 609.323 249.5C610.923 247.601 612.747 246.119 614.795 245.052C616.864 243.964 619.029 243.42 621.291 243.42C624.533 243.42 626.923 244.412 628.459 246.396C630.016 248.359 630.795 250.78 630.795 253.66C630.795 256.455 630.325 259.089 629.387 261.564C628.469 264.039 627.211 266.225 625.611 268.124C624.011 270.001 622.176 271.473 620.107 272.54C618.059 273.607 615.904 274.14 613.643 274.14ZM613.035 273.948C614.208 273.948 615.349 273.553 616.459 272.764C617.589 271.975 618.656 270.908 619.659 269.564C620.683 268.199 621.621 266.663 622.475 264.956C623.328 263.228 624.064 261.415 624.683 259.516C625.323 257.617 625.813 255.751 626.155 253.916C626.517 252.06 626.699 250.343 626.699 248.764C626.699 247.185 626.315 245.937 625.547 245.02C624.779 244.103 623.573 243.644 621.931 243.644C620.779 243.644 619.637 244.039 618.507 244.828C617.376 245.617 616.299 246.695 615.275 248.06C614.251 249.404 613.312 250.94 612.459 252.668C611.605 254.375 610.869 256.177 610.251 258.076C609.632 259.975 609.141 261.841 608.779 263.676C608.437 265.511 608.267 267.228 608.267 268.828C608.267 270.385 608.651 271.633 609.419 272.572C610.208 273.489 611.413 273.948 613.035 273.948Z" fill="white"/>
<path d="M641.03 274.14C638.982 274.14 637.499 273.703 636.582 272.828C635.664 271.932 635.163 270.759 635.078 269.308C634.992 267.836 635.142 266.225 635.526 264.476L640.134 244.252H635.654V244.06H645.606L640.966 263.74C640.582 265.425 640.272 267.004 640.038 268.476C639.803 269.927 639.835 271.111 640.134 272.028C640.454 272.924 641.243 273.372 642.502 273.372C643.59 273.372 644.806 272.764 646.15 271.548C647.494 270.332 648.838 268.711 650.182 266.684C651.526 264.636 652.752 262.385 653.862 259.932C654.971 257.479 655.824 255.025 656.422 252.572H656.582C656.219 254.172 655.664 255.932 654.918 257.852C654.171 259.772 653.286 261.692 652.262 263.612C651.238 265.532 650.118 267.281 648.902 268.86C647.686 270.439 646.406 271.719 645.062 272.7C643.718 273.66 642.374 274.14 641.03 274.14ZM657.414 274.14C655.75 274.14 654.491 273.713 653.638 272.86C652.806 272.007 652.39 271.1 652.39 270.14C652.39 269.884 652.411 269.564 652.454 269.18C652.518 268.775 652.592 268.401 652.678 268.06L658.47 244.06H663.878L656.582 271.452C656.539 271.644 656.507 271.847 656.486 272.06C656.464 272.252 656.454 272.433 656.454 272.604C656.454 273.415 656.848 273.82 657.638 273.82C658.896 273.82 660.038 273.479 661.062 272.796C662.086 272.092 663.046 270.993 663.942 269.5C664.859 268.007 665.766 266.055 666.662 263.644L666.822 263.708C665.904 266.161 664.976 268.156 664.038 269.692C663.099 271.228 662.096 272.359 661.03 273.084C659.963 273.788 658.758 274.14 657.414 274.14Z" fill="white"/>
<path d="M670.624 273.5L677.92 244.252H672.928V244.06H682.72L675.68 273.5H670.624ZM678.144 262.492C678.506 260.956 678.944 259.324 679.456 257.596C679.968 255.847 680.565 254.14 681.248 252.476C681.93 250.812 682.698 249.297 683.552 247.932C684.405 246.567 685.365 245.479 686.432 244.668C687.52 243.857 688.714 243.452 690.016 243.452C691.445 243.452 692.565 243.847 693.376 244.636C694.208 245.425 694.624 246.364 694.624 247.452C694.624 248.476 694.336 249.361 693.76 250.108C693.205 250.833 692.394 251.196 691.328 251.196C690.282 251.196 689.44 250.865 688.8 250.204C688.16 249.521 687.84 248.679 687.84 247.676C687.84 246.801 688.138 246.087 688.736 245.532C689.333 244.956 690.186 244.668 691.296 244.668C692.17 244.668 692.928 244.935 693.568 245.468C694.229 245.98 694.56 246.641 694.56 247.452H694.432C694.432 246.428 694.048 245.543 693.28 244.796C692.512 244.028 691.424 243.644 690.016 243.644C688.736 243.644 687.562 244.049 686.496 244.86C685.45 245.671 684.501 246.748 683.648 248.092C682.816 249.436 682.058 250.94 681.376 252.604C680.714 254.247 680.128 255.932 679.616 257.66C679.104 259.367 678.666 260.977 678.304 262.492H678.144Z" fill="white"/>
<path d="M716.279 273.5L727.415 225.5H733.495L722.359 273.5H716.279ZM710.839 273.5V273.308H732.919C735.841 273.308 738.295 272.689 740.279 271.452C742.284 270.215 743.905 268.529 745.143 266.396C746.38 264.241 747.308 261.809 747.927 259.1H748.119L744.791 273.5H710.839ZM737.239 255.708C737.559 254.279 737.505 253.052 737.079 252.028C736.652 250.983 735.969 250.183 735.031 249.628C734.113 249.052 733.047 248.764 731.831 248.764H727.287V248.572H731.831C733.047 248.572 734.241 248.316 735.415 247.804C736.609 247.292 737.655 246.545 738.551 245.564C739.447 244.583 740.055 243.377 740.375 241.948H740.567L737.431 255.708H737.239ZM752.023 238.62C752.556 236.337 752.652 234.215 752.311 232.252C751.969 230.289 751.127 228.711 749.783 227.516C748.46 226.3 746.551 225.692 744.055 225.692H721.655V225.5H755.287L752.215 238.62H752.023Z" fill="white"/>
<path d="M760.069 290.14C756.911 290.14 754.415 289.767 752.581 289.02C750.767 288.273 749.487 287.292 748.741 286.076C747.973 284.86 747.589 283.559 747.589 282.172C747.589 280.871 747.973 279.665 748.741 278.556C749.509 277.447 750.469 276.476 751.621 275.644C752.773 274.812 753.935 274.161 755.109 273.692C756.282 273.223 757.274 272.988 758.085 272.988H758.405C757.167 273.009 756.069 273.425 755.109 274.236C754.17 275.068 753.423 276.177 752.869 277.564C752.314 278.951 752.037 280.508 752.037 282.236C752.037 284.561 752.613 286.417 753.765 287.804C754.938 289.212 756.847 289.916 759.493 289.916C762.415 289.916 765.061 289.575 767.429 288.892C769.797 288.209 771.823 287.281 773.509 286.108C775.194 284.935 776.485 283.601 777.381 282.108C778.277 280.636 778.725 279.1 778.725 277.5C778.725 276.241 778.266 275.356 777.349 274.844C776.431 274.332 775.194 274.076 773.637 274.076C773.231 274.076 772.57 274.076 771.653 274.076C770.735 274.076 769.701 274.076 768.549 274.076C767.397 274.076 766.255 274.076 765.125 274.076C764.015 274.076 763.034 274.076 762.181 274.076C761.327 274.076 760.762 274.076 760.485 274.076C758.565 274.076 756.922 273.82 755.557 273.308C754.191 272.796 753.135 272.081 752.389 271.164C751.663 270.247 751.301 269.18 751.301 267.964C751.301 266.94 751.567 266.012 752.101 265.18C752.655 264.348 753.423 263.623 754.405 263.004C755.386 262.385 756.549 261.916 757.893 261.596C759.237 261.255 760.709 261.084 762.309 261.084V261.18C760.154 261.18 758.565 261.681 757.541 262.684C756.538 263.665 756.037 264.7 756.037 265.788C756.037 266.791 756.367 267.569 757.029 268.124C757.711 268.657 758.543 269.031 759.525 269.244C760.527 269.436 761.498 269.532 762.437 269.532C763.183 269.532 764.09 269.532 765.157 269.532C766.245 269.511 767.311 269.5 768.357 269.5C769.402 269.479 770.223 269.468 770.821 269.468C773.231 269.468 775.247 269.937 776.869 270.876C778.49 271.815 779.301 273.585 779.301 276.188C779.301 278.513 778.725 280.551 777.573 282.3C776.442 284.049 774.927 285.5 773.029 286.652C771.151 287.825 769.082 288.7 766.821 289.276C764.559 289.852 762.309 290.14 760.069 290.14ZM767.045 263.26C765.317 263.26 763.77 262.908 762.405 262.204C761.039 261.5 759.962 260.497 759.173 259.196C758.383 257.895 757.989 256.337 757.989 254.524C757.989 252.476 758.554 250.62 759.685 248.956C760.837 247.271 762.341 245.937 764.197 244.956C766.074 243.953 768.09 243.452 770.245 243.452C771.973 243.452 773.519 243.825 774.885 244.572C776.25 245.319 777.327 246.375 778.117 247.74C778.906 249.084 779.301 250.663 779.301 252.476C779.301 254.503 778.725 256.337 777.573 257.98C776.442 259.601 774.949 260.892 773.093 261.852C771.237 262.791 769.221 263.26 767.045 263.26ZM766.117 263.004C766.991 263.004 767.866 262.695 768.741 262.076C769.637 261.436 770.469 260.593 771.237 259.548C772.026 258.481 772.719 257.319 773.317 256.06C773.935 254.78 774.415 253.5 774.757 252.22C775.119 250.94 775.301 249.767 775.301 248.7C775.301 247.292 774.97 246.119 774.309 245.18C773.647 244.22 772.613 243.74 771.205 243.74C770.33 243.74 769.445 244.06 768.549 244.7C767.674 245.319 766.842 246.151 766.053 247.196C765.263 248.241 764.57 249.393 763.973 250.652C763.375 251.911 762.895 253.18 762.533 254.46C762.191 255.74 762.021 256.913 762.021 257.98C762.021 259.388 762.351 260.583 763.013 261.564C763.674 262.524 764.709 263.004 766.117 263.004ZM782.917 243.74C784.005 243.74 784.954 244.092 785.765 244.796C786.575 245.5 786.981 246.535 786.981 247.9C786.981 248.775 786.703 249.532 786.149 250.172C785.615 250.791 784.911 251.1 784.037 251.1C783.247 251.1 782.543 250.855 781.925 250.364C781.306 249.852 780.997 249.148 780.997 248.252C780.997 247.271 781.285 246.524 781.861 246.012C782.458 245.5 783.13 245.244 783.877 245.244C784.495 245.244 785.071 245.393 785.605 245.692C786.138 245.991 786.501 246.428 786.693 247.004C786.522 246.001 786.074 245.244 785.349 244.732C784.645 244.199 783.823 243.932 782.885 243.932C781.903 243.932 781.007 244.177 780.197 244.668C779.386 245.159 778.607 245.927 777.861 246.972C777.114 247.996 776.346 249.308 775.557 250.908L775.397 250.812C776.527 248.444 777.658 246.673 778.789 245.5C779.941 244.327 781.317 243.74 782.917 243.74Z" fill="white"/>
<path d="M799.393 274.14C796.171 274.14 793.782 273.159 792.225 271.196C790.667 269.233 789.889 266.812 789.889 263.932C789.889 261.137 790.347 258.503 791.265 256.028C792.203 253.553 793.473 251.377 795.073 249.5C796.673 247.601 798.497 246.119 800.545 245.052C802.614 243.964 804.779 243.42 807.041 243.42C810.283 243.42 812.673 244.412 814.209 246.396C815.766 248.359 816.545 250.78 816.545 253.66C816.545 256.455 816.075 259.089 815.137 261.564C814.219 264.039 812.961 266.225 811.361 268.124C809.761 270.001 807.926 271.473 805.857 272.54C803.809 273.607 801.654 274.14 799.393 274.14ZM798.785 273.948C799.958 273.948 801.099 273.553 802.209 272.764C803.339 271.975 804.406 270.908 805.409 269.564C806.433 268.199 807.371 266.663 808.225 264.956C809.078 263.228 809.814 261.415 810.433 259.516C811.073 257.617 811.563 255.751 811.905 253.916C812.267 252.06 812.449 250.343 812.449 248.764C812.449 247.185 812.065 245.937 811.297 245.02C810.529 244.103 809.323 243.644 807.681 243.644C806.529 243.644 805.387 244.039 804.257 244.828C803.126 245.617 802.049 246.695 801.025 248.06C800.001 249.404 799.062 250.94 798.209 252.668C797.355 254.375 796.619 256.177 796.001 258.076C795.382 259.975 794.891 261.841 794.529 263.676C794.187 265.511 794.017 267.228 794.017 268.828C794.017 270.385 794.401 271.633 795.169 272.572C795.958 273.489 797.163 273.948 798.785 273.948Z" fill="white"/>
<path d="M348.5 225.5C389.093 225.5 422 258.407 422 299C422 339.593 389.093 372.5 348.5 372.5C324.593 372.5 303.352 361.085 289.929 343.409H294.251V343.19H289.764C289.287 342.558 288.821 341.917 288.364 341.269V319.082C288.364 316.646 288.51 313.991 288.801 311.118C289.128 308.209 289.763 305.464 290.708 302.882C291.689 300.3 293.143 298.173 295.068 296.5C296.994 294.827 299.537 293.991 302.698 293.991C304.442 293.991 305.714 294.628 306.514 295.9C307.349 297.137 307.894 298.9 308.148 301.19C308.403 303.445 308.529 306.1 308.529 309.154V343.19H302.644V343.409H328.477V343.19H321.609V308.609C321.609 305.446 321.174 302.627 320.302 300.154C319.466 297.645 317.922 295.682 315.669 294.264C313.453 292.846 310.274 292.137 306.132 292.137C301.954 292.137 298.647 293.045 296.213 294.863C293.779 296.681 291.98 299.009 290.817 301.846C289.691 304.682 288.965 307.664 288.638 310.791C288.528 311.841 288.437 312.865 288.364 313.861V293.228H275.224C278.168 255.333 309.85 225.5 348.5 225.5ZM170.441 292.137C175.855 292.137 180.288 293.227 183.739 295.409C187.191 297.555 189.734 300.373 191.369 303.863C193.004 307.354 193.822 311.082 193.822 315.046H159.31C159.284 315.913 159.269 316.786 159.269 317.664C159.269 321.009 159.45 324.264 159.813 327.428C160.213 330.555 160.904 333.355 161.885 335.827C162.866 338.3 164.229 340.282 165.973 341.772C167.717 343.227 169.951 343.954 172.676 343.954C178.089 343.954 182.613 342.409 186.246 339.318C189.879 336.191 192.369 332.355 193.713 327.81H193.931C192.514 332.537 189.898 336.5 186.083 339.7C182.268 342.9 177.163 344.5 170.769 344.5C165.827 344.5 161.376 343.482 157.416 341.445C153.456 339.373 150.331 336.391 148.042 332.5C145.753 328.609 144.608 323.882 144.608 318.318C144.608 312.755 145.716 308.028 147.933 304.137C150.185 300.246 153.256 297.281 157.144 295.245C161.067 293.173 165.5 292.137 170.441 292.137ZM361.511 292.137C356.57 292.137 352.137 293.173 348.213 295.245C344.325 297.281 341.255 300.246 339.002 304.137C336.786 308.028 335.678 312.755 335.678 318.318C335.678 323.882 336.822 328.609 339.111 332.5C341.4 336.391 344.525 339.373 348.485 341.445C352.446 343.482 356.897 344.5 361.838 344.5C368.232 344.5 373.337 342.9 377.152 339.7C380.967 336.5 383.583 332.537 385 327.81H384.782C383.438 332.355 380.949 336.191 377.315 339.318C373.682 342.409 369.159 343.954 363.745 343.954C361.02 343.954 358.786 343.227 357.042 341.772C355.298 340.282 353.935 338.3 352.954 335.827C351.973 333.355 351.282 330.555 350.883 327.428C350.519 324.264 350.338 321.009 350.338 317.664C350.338 316.786 350.353 315.913 350.379 315.046H384.891C384.891 311.082 384.073 307.354 382.438 303.863C380.803 300.373 378.26 297.555 374.809 295.409C371.357 293.227 366.924 292.137 361.511 292.137ZM95.0811 261.591C103.51 261.591 110.741 263.336 116.772 266.827C122.84 270.318 127.509 275.154 130.779 281.336C134.049 287.481 135.684 294.536 135.684 302.5C135.684 308.464 134.703 313.955 132.741 318.973C130.779 323.954 127.999 328.281 124.402 331.954C120.842 335.59 116.572 338.409 111.595 340.409C106.653 342.409 101.149 343.409 95.0811 343.409H62V343.19H71.7559V261.81H62V261.591H95.0811ZM237.288 260.5C240.594 260.5 243.628 261.046 246.39 262.137C249.151 263.228 251.349 264.664 252.984 266.445C254.656 268.191 255.491 270.082 255.491 272.118C255.491 274.736 254.71 276.773 253.147 278.228C251.622 279.646 249.823 280.354 247.752 280.354C246.008 280.354 244.319 279.773 242.684 278.609C241.049 277.409 240.231 275.518 240.231 272.937C240.231 271.373 240.613 270.028 241.376 268.9C242.139 267.773 243.101 266.918 244.264 266.336C245.426 265.718 246.589 265.409 247.752 265.409C249.641 265.409 251.386 266.027 252.984 267.264C253.539 267.68 253.996 268.149 254.358 268.666C253.97 267.961 253.458 267.275 252.82 266.609C251.222 264.864 249.06 263.445 246.335 262.354C243.61 261.264 240.594 260.718 237.288 260.718C234.018 260.718 231.257 261.718 229.004 263.718C226.788 265.718 225.098 268.5 223.936 272.063C222.773 275.627 222.191 279.773 222.191 284.5V293.228H255.001V343.19H262.631V343.409H200.392V343.19H209.438V293.445H200.392V293.228H209.438V287.609C209.438 283.646 210.129 280.009 211.51 276.7C212.89 273.391 214.834 270.537 217.341 268.137C219.848 265.7 222.791 263.828 226.17 262.519C229.549 261.173 233.255 260.5 237.288 260.5ZM275.339 306.086C276.584 319.103 281.224 331.129 288.364 341.269V343.19H289.764C289.819 343.263 289.873 343.336 289.929 343.409H268.418V343.19H275.339V306.086ZM86.0889 343.19H95.0811C99.6225 343.19 103.42 342.064 106.472 339.81C109.56 337.555 112.031 334.518 113.884 330.7C115.773 326.846 117.118 322.482 117.917 317.609C118.753 312.737 119.171 307.682 119.171 302.445C119.171 297.245 118.699 292.227 117.754 287.391C116.846 282.518 115.429 278.173 113.503 274.354C111.577 270.5 109.088 267.445 106.036 265.19C103.02 262.936 99.3683 261.81 95.0811 261.81H86.0889V343.19ZM222.191 343.19H241.921V293.445H222.191V343.19ZM170.441 292.354C168.261 292.354 166.445 293.082 164.991 294.536C163.538 295.954 162.393 297.9 161.558 300.373C160.722 302.809 160.123 305.518 159.76 308.5C159.532 310.574 159.386 312.683 159.316 314.827H179.543C179.543 312.536 179.434 310.1 179.216 307.519C179.034 304.9 178.634 302.445 178.017 300.154C177.435 297.864 176.527 295.991 175.292 294.536C174.093 293.082 172.476 292.355 170.441 292.354ZM361.511 292.354C363.545 292.355 365.162 293.082 366.361 294.536C367.597 295.991 368.505 297.864 369.086 300.154C369.704 302.445 370.103 304.9 370.285 307.519C370.503 310.1 370.612 312.536 370.612 314.827H350.386C350.455 312.683 350.601 310.574 350.828 308.5C351.191 305.518 351.791 302.809 352.627 300.373C353.463 297.9 354.607 295.954 356.061 294.536C357.514 293.082 359.331 292.354 361.511 292.354ZM275.339 293.445V306.086C275.116 303.754 275 301.39 275 299C275 297.131 275.07 295.279 275.207 293.445H275.339ZM275.224 293.228C275.218 293.3 275.212 293.373 275.207 293.445H268.418V293.228H275.224Z" fill="#EFB778"/>
<defs>
<filter id="filter0_f_1570_859" x="0.700001" y="0.200001" width="852.6" height="231.6" filterUnits="userSpaceOnUse" color-interpolation-filters="sRGB">
<feFlood flood-opacity="0" result="BackgroundImageFix"/>
<feBlend mode="normal" in="SourceGraphic" in2="BackgroundImageFix" result="shape"/>
<feGaussianBlur stdDeviation="0" result="effect1_foregroundBlur_1570_859"/>
</filter>
<filter id="filter1_f_1570_859" x="51.3" y="361.8" width="883.4" height="176.4" filterUnits="userSpaceOnUse" color-interpolation-filters="sRGB">
<feFlood flood-opacity="0" result="BackgroundImageFix"/>
<feBlend mode="normal" in="SourceGraphic" in2="BackgroundImageFix" result="shape"/>
<feGaussianBlur stdDeviation="5.35" result="effect1_foregroundBlur_1570_859"/>
</filter>
<linearGradient id="paint0_linear_1570_859" x1="29" y1="116" x2="825" y2="116" gradientUnits="userSpaceOnUse">
<stop stop-color="#EFB778" stop-opacity="0.44"/>
<stop offset="1" stop-color="#EFB778"/>
</linearGradient>
</defs>
</svg>
