<?xml version="1.0" encoding="UTF-8"?>
<svg id="_图层_1" data-name="图层 1" xmlns="http://www.w3.org/2000/svg" viewBox="0 0 42.53 42.59">
  <defs>
    <style>
      .cls-1 {
        stroke-width: 0px;
      }
    </style>
  </defs>
  <path class="cls-1" d="m41.47,32.63c-3.65-1.31-6.27-4.8-6.27-8.9v-2.62c0-3.75-1.47-7.28-4.13-9.94-2.64-2.64-6.12-4.09-9.8-4.09h-.03c-7.67.01-13.91,6.27-13.91,13.96v2.7c0,4.1-2.62,7.59-6.27,8.9-.64.23-1.06.84-1.06,1.52v1.06c0,1.11,1.08,1.89,2.14,1.54,5.47-1.79,9.43-6.96,9.43-13.03v-2.7c0-5.34,4.36-9.7,9.69-9.7,2.55,0,4.97,1.01,6.8,2.84,1.86,1.86,2.89,4.33,2.89,6.94v2.62c0,6.07,3.96,11.23,9.43,13.03,1.05.34,2.14-.43,2.14-1.54v-1.06c0-.68-.42-1.3-1.06-1.52Z"/>
  <path class="cls-1" d="m22.42,23.73v-2.62c0-.44-.24-.75-.38-.89-.13-.13-.4-.35-.78-.35-.64,0-1.16.52-1.16,1.16v2.7c0,6.31-2.64,12.02-6.87,16.07-1.06,1.01-.34,2.8,1.12,2.8h13.81c1.46,0,2.18-1.79,1.12-2.8-4.23-4.05-6.87-9.76-6.87-16.07Z"/>
  <path class="cls-1" d="m40.9,0H1.62C.73,0,0,.73,0,1.62v26.37c0,1.4,1.65,2.14,2.69,1.22,1.52-1.34,2.49-3.31,2.49-5.49v-2.7c0-8.86,7.2-16.09,16.05-16.11h.03c4.26,0,8.28,1.67,11.32,4.72,3.07,3.07,4.76,7.14,4.76,11.46v2.62c0,2.19.96,4.15,2.49,5.49,1.05.92,2.7.18,2.7-1.22V1.62c0-.9-.73-1.62-1.62-1.62Z"/>
  <path class="cls-1" d="m41.25,39.21c-7.1-1.56-12.44-7.91-12.44-15.48v-2.62c0-2.04-.8-3.96-2.26-5.42-1.43-1.43-3.31-2.22-5.29-2.22h-.01c-4.16,0-7.53,3.38-7.53,7.55v2.71c0,7.58-5.33,13.93-12.44,15.48-.75.16-1.28.82-1.28,1.59v.17c0,.9.73,1.63,1.62,1.63h2.9c.2,0,.39-.03.58-.11,7.52-2.91,12.87-10.22,12.87-18.76v-2.7c0-1.82,1.48-3.3,3.3-3.31,1.15,0,1.93.61,2.3.97.38.38,1.01,1.19,1.01,2.41v2.62c0,8.54,5.35,15.86,12.87,18.76.18.07.38.11.58.11h2.9c.9,0,1.62-.73,1.62-1.63v-.17c0-.76-.53-1.42-1.28-1.59Z"/>
</svg>