<svg width="54" height="62" viewBox="0 0 54 62" fill="none" xmlns="http://www.w3.org/2000/svg">
<g filter="url(#filter0_n_725_1681)">
<path d="M0 46.5L26.8468 62V56.1244L5.84668 44V19L26.8468 7.5V0L0 15.5V46.5Z" fill="#414141"/>
<path d="M53.6936 15.5L26.8468 0V7.5L47.8469 19V44L26.8468 56.1244V62L53.6936 46.5V15.5Z" fill="#6D6D6D"/>
<path d="M26.8468 7.5L5.84668 19V44L26.8468 56.1244L47.8469 44V19L26.8468 7.5Z" fill="#565656"/>
</g>
<g filter="url(#filter1_d_725_1681)">
<path d="M27 14C23.1128 14 19.5303 15.3047 16.6666 17.5L22.5 27.6038L27 35.398L31.5 27.6038L37.3334 17.5C34.4697 15.3047 30.8872 14 27 14Z" fill="#FFB71B"/>
<path fill-rule="evenodd" clip-rule="evenodd" d="M27 35.398V48C28.5578 48 30.0667 47.7905 31.5 47.398V27.6038L27 35.398Z" fill="#FFC038"/>
<path d="M22.5 47.398C23.9333 47.7905 25.4422 48 27 48V35.398L22.5 27.6038V47.398Z" fill="#F2A809"/>
<path fill-rule="evenodd" clip-rule="evenodd" d="M31.5 47.398C38.705 45.4253 44 38.831 44 31C44 25.4984 41.3866 20.6071 37.3334 17.5L31.5 27.6038V47.398Z" fill="#FFCE65"/>
<path d="M16.6666 17.5C12.6134 20.6071 10 25.4984 10 31C10 38.831 15.295 45.4253 22.5 47.398V27.6038L16.6666 17.5Z" fill="#B78312"/>
</g>
<defs>
<filter id="filter0_n_725_1681" x="0" y="0" width="53.6934" height="62" filterUnits="userSpaceOnUse" color-interpolation-filters="sRGB">
<feFlood flood-opacity="0" result="BackgroundImageFix"/>
<feBlend mode="normal" in="SourceGraphic" in2="BackgroundImageFix" result="shape"/>
<feTurbulence type="fractalNoise" baseFrequency="0.625 0.625" stitchTiles="stitch" numOctaves="3" result="noise" seed="615" />
<feColorMatrix in="noise" type="luminanceToAlpha" result="alphaNoise" />
<feComponentTransfer in="alphaNoise" result="coloredNoise1">
<feFuncA type="discrete" tableValues="0 1 1 1 1 1 1 1 1 1 1 1 1 1 1 1 1 1 1 1 1 1 1 1 1 1 1 1 1 1 1 1 1 1 1 1 1 1 1 1 1 1 1 1 1 1 1 1 1 1 0 0 0 0 0 0 0 0 0 0 0 0 0 0 0 0 0 0 0 0 0 0 0 0 0 0 0 0 0 0 0 0 0 0 0 0 0 0 0 0 0 0 0 0 0 0 0 0 0 0 "/>
</feComponentTransfer>
<feComposite operator="in" in2="shape" in="coloredNoise1" result="noise1Clipped" />
<feFlood flood-color="rgba(0, 0, 0, 0.05)" result="color1Flood" />
<feComposite operator="in" in2="noise1Clipped" in="color1Flood" result="color1" />
<feMerge result="effect1_noise_725_1681">
<feMergeNode in="shape" />
<feMergeNode in="color1" />
</feMerge>
</filter>
<filter id="filter1_d_725_1681" x="4.9" y="8.9" width="44.2" height="44.2" filterUnits="userSpaceOnUse" color-interpolation-filters="sRGB">
<feFlood flood-opacity="0" result="BackgroundImageFix"/>
<feColorMatrix in="SourceAlpha" type="matrix" values="0 0 0 0 0 0 0 0 0 0 0 0 0 0 0 0 0 0 127 0" result="hardAlpha"/>
<feOffset/>
<feGaussianBlur stdDeviation="2.55"/>
<feComposite in2="hardAlpha" operator="out"/>
<feColorMatrix type="matrix" values="0 0 0 0 1 0 0 0 0 0.717647 0 0 0 0 0.105882 0 0 0 1 0"/>
<feBlend mode="normal" in2="BackgroundImageFix" result="effect1_dropShadow_725_1681"/>
<feBlend mode="normal" in="SourceGraphic" in2="effect1_dropShadow_725_1681" result="shape"/>
</filter>
</defs>
</svg>
