<svg width="58" height="63" viewBox="0 0 58 63" fill="none" xmlns="http://www.w3.org/2000/svg">
<path d="M2 46.5L28.8468 62V56.1244L7.84668 44V19L28.8468 7.5V0L2 15.5V46.5Z" fill="#414141"/>
<path d="M55.6936 15.5L28.8468 0V7.5L49.8469 19V44L28.8468 56.1244V62L55.6936 46.5V15.5Z" fill="#6D6D6D"/>
<path d="M28.8468 7.5L7.84668 19V44L28.8468 56.1244L49.8469 44V19L28.8468 7.5Z" fill="#565656"/>
<g filter="url(#filter0_d_725_1676)">
<path d="M28.847 21.4651L19.8467 28.6203V40.6949L28.8467 51.875L37.8467 40.6949V28.6203L28.847 21.4651Z" fill="#FF638A"/>
<path d="M37.8467 15.875L28.847 21.4651L37.8467 28.6203L46.8467 21.0179L37.8467 15.875Z" fill="#FF9CB5"/>
<path d="M46.8467 41.5893V21.0179L37.8467 28.6203V40.6949L28.8467 51.875L46.8467 41.5893Z" fill="#DF8BA0"/>
<path fill-rule="evenodd" clip-rule="evenodd" d="M28.8467 51.875L19.8467 40.6949V28.6203L10.8467 21.0179V41.5893L28.8467 51.875Z" fill="#C72F55"/>
<path d="M19.8467 15.875L10.8467 21.0179L19.8467 28.6203L28.847 21.4651L19.8467 15.875Z" fill="#E97F99"/>
</g>
<defs>
<filter id="filter0_d_725_1676" x="0.14668" y="5.175" width="57.4" height="57.4" filterUnits="userSpaceOnUse" color-interpolation-filters="sRGB">
<feFlood flood-opacity="0" result="BackgroundImageFix"/>
<feColorMatrix in="SourceAlpha" type="matrix" values="0 0 0 0 0 0 0 0 0 0 0 0 0 0 0 0 0 0 127 0" result="hardAlpha"/>
<feOffset/>
<feGaussianBlur stdDeviation="5.35"/>
<feComposite in2="hardAlpha" operator="out"/>
<feColorMatrix type="matrix" values="0 0 0 0 1 0 0 0 0 0.388235 0 0 0 0 0.541176 0 0 0 1 0"/>
<feBlend mode="normal" in2="BackgroundImageFix" result="effect1_dropShadow_725_1676"/>
<feBlend mode="normal" in="SourceGraphic" in2="effect1_dropShadow_725_1676" result="shape"/>
</filter>
</defs>
</svg>
