<?xml version="1.0" encoding="UTF-8"?>
<svg id="_图层_1" data-name="图层 1" xmlns="http://www.w3.org/2000/svg" viewBox="0 0 19.99 19.12">
  <defs>
    <style>
      .cls-1 {
        fill: #424242;
        stroke-width: 0px;
      }
    </style>
  </defs>
  <path class="cls-1" d="m12.96,19.11c-1.21-.04-2.7.09-4.18-.08C3.8,18.47-.15,14.31,0,9.2.12,5.42,2.74,1.94,6.53.6c4.93-1.75,10.48.46,12.57,5.1,1.52,3.37,1.08,6.58-1.1,9.56-.36.49-.38.48.07.93.3.3.53.64.57,1.08.1,1.04-.62,1.84-1.7,1.85-1.23.02-2.46,0-3.97,0Zm-.05-1.43c1.47,0,2.69,0,3.91,0,.15,0,.31.03.38-.16.06-.16-.07-.25-.16-.34-.24-.24-.48-.48-.72-.73-.58-.58-.58-.85,0-1.45,2.33-2.42,2.88-5.96,1.4-8.93C15.88,2.41,11.45.59,7.4,1.82,3.97,2.86,1.54,5.9,1.43,9.25c-.14,4.35,3.25,7.85,7.46,8.35,1.42.17,2.85.04,4.02.08Z"/>
  <path class="cls-1" d="m10.7,10.15c0,.65,0,1.31,0,1.96,0,.23.05.3.29.31.5.02.79.31.78.73-.01.42-.32.69-.81.7-.65,0-1.3,0-1.96,0-.48,0-.79-.3-.79-.72,0-.41.28-.69.75-.71.25,0,.32-.08.32-.33-.01-1.03,0-2.05,0-3.08,0-.18-.07-.3-.18-.43-.19-.22-.24-.47-.11-.75.12-.27.34-.4.63-.43.79-.07,1.09.2,1.09,1,0,.58,0,1.16,0,1.74Z"/>
  <path class="cls-1" d="m11.05,5.26c0,.59-.49,1.08-1.08,1.07-.59,0-1.07-.5-1.06-1.1.01-.57.49-1.04,1.06-1.05.59,0,1.08.48,1.08,1.07Z"/>
</svg>