<?xml version="1.0" encoding="UTF-8"?>
<svg id="_图层_1" data-name="图层 1" xmlns="http://www.w3.org/2000/svg" viewBox="0 0 20.89 19.5">
  <defs>
    <style>
      .cls-1 {
        fill: #424242;
        stroke-width: 0px;
      }
    </style>
  </defs>
  <path class="cls-1" d="m10.41,19.5c-2.33,0-4.65,0-6.98,0-2.74,0-4.27-2.58-2.95-4.98C2.81,10.29,5.16,6.06,7.49,1.82,8.14.65,9.1,0,10.45,0c1.35,0,2.3.67,2.95,1.84,2.34,4.26,4.71,8.51,7.05,12.77,1.14,2.08-.03,4.48-2.36,4.86-.23.04-.46.03-.69.03-2.33,0-4.65,0-6.98,0Zm.02-1.63c2.31,0,4.62,0,6.94,0,.19,0,.38,0,.57-.03,1.15-.24,1.65-1.42,1.05-2.51-2.33-4.23-4.68-8.46-7.01-12.69-.34-.62-.81-1.02-1.54-1.01-.73,0-1.19.41-1.53,1.03C6.58,6.86,4.25,11.07,1.93,15.28c-.75,1.36,0,2.59,1.56,2.59,2.31,0,4.62,0,6.94,0Z"/>
  <path class="cls-1" d="m9.62,8.93c0-.77,0-1.54,0-2.31,0-.58.33-.95.84-.94.48.01.8.37.8.93,0,1.54,0,3.09,0,4.63,0,.58-.34.95-.84.94-.48-.01-.79-.37-.8-.94,0-.77,0-1.54,0-2.31Z"/>
  <path class="cls-1" d="m11.26,14.64c0,.44-.38.79-.81.79-.45,0-.83-.38-.82-.83.01-.45.4-.81.86-.79.44.02.79.39.78.83Z"/>
</svg>