<?xml version="1.0" encoding="UTF-8"?>
<svg id="_图层_1" data-name="图层 1" xmlns="http://www.w3.org/2000/svg" viewBox="0 0 11.53 14.1">
  <defs>
    <style>
      .cls-1 {
        fill: #d90c0c;
        stroke-width: 0px;
      }
    </style>
  </defs>
  <path class="cls-1" d="m10.89,8.17c0,1.11,0,2.22,0,3.33,0,1.52-1.07,2.58-2.59,2.59-1.69,0-3.38,0-5.07,0-1.5,0-2.57-1.07-2.58-2.57,0-2.29,0-4.58,0-6.88,0-.07,0-.14,0-.21.03-.34.27-.58.61-.59.34-.01.62.22.66.56.01.1,0,.2,0,.3,0,2.25,0,4.5,0,6.76,0,.84.5,1.34,1.34,1.34,1.67,0,3.34,0,5.01,0,.82,0,1.33-.51,1.33-1.33,0-2.27,0-4.54,0-6.82,0-.12,0-.24.03-.36.08-.32.38-.5.71-.46.31.04.53.28.53.62,0,.75,0,1.5,0,2.25,0,.48,0,.96,0,1.44Z"/>
  <path class="cls-1" d="m5.74,3.2c-1.67,0-3.34,0-5.01,0-.29,0-.51-.09-.65-.35-.12-.22-.1-.44.04-.65.14-.21.35-.28.59-.28.73,0,1.46,0,2.19,0,.24,0,.32-.06.3-.3-.02-.3,0-.6,0-.9C3.21.25,3.45,0,3.92,0,5.15,0,6.38,0,7.62,0c.48,0,.71.24.72.73,0,.32.01.64,0,.96-.01.22.1.24.27.24.77,0,1.54,0,2.31,0,.36,0,.62.29.62.64,0,.33-.26.6-.6.63-.09,0-.18,0-.27,0-1.64,0-3.28,0-4.92,0Zm.03-1.28c.35,0,.7-.01,1.05,0,.29.02.23-.18.23-.34,0-.14.07-.32-.21-.32-.71.02-1.42.02-2.12,0-.28,0-.21.17-.21.31,0,.16-.07.35.22.34.35-.02.7,0,1.05,0Z"/>
  <path class="cls-1" d="m5.12,8.01c0,.71,0,1.42,0,2.13,0,.47-.24.75-.63.75-.39,0-.65-.29-.65-.77,0-1.43,0-2.86,0-4.29,0-.3.11-.52.39-.65.24-.11.47-.07.67.1.18.15.22.34.22.56,0,.72,0,1.44,0,2.16Z"/>
  <path class="cls-1" d="m6.41,8.01c0-.72,0-1.44,0-2.16,0-.44.25-.72.63-.72.39,0,.65.29.65.74,0,1.43,0,2.86,0,4.29,0,.45-.26.74-.65.74-.38,0-.63-.28-.63-.72,0-.72,0-1.44,0-2.16Z"/>
</svg>