<?xml version="1.0" encoding="UTF-8"?>
<svg id="_图层_1" data-name="图层 1" xmlns="http://www.w3.org/2000/svg" viewBox="0 0 21.6 21.59">
  <defs>
    <style>
      .cls-1 {
        fill: #424242;
        stroke-width: 0px;
      }
    </style>
  </defs>
  <path class="cls-1" d="m.1,17.72c0-2.01,1.61-3.67,3.62-3.74.17,0,.34,0,.49-.07,1.22-.56,2.09-1.45,2.53-2.73.12-.35.05-.69-.26-.94-1.19-.99-1.32-2.74.01-4.02,1.95-1.86,3.83-3.81,5.74-5.71.53-.53.77-.53,1.29-.01,2.53,2.53,5.06,5.06,7.59,7.58.52.52.51.76-.01,1.29-1.93,1.93-3.86,3.86-5.79,5.78-1.23,1.23-2.67,1.24-3.88.01-.34-.34-.69-.44-1.13-.28-1.19.46-2.03,1.29-2.58,2.42-.17.35-.09.74-.16,1.11-.37,1.92-2.14,3.26-4.07,3.06-1.92-.2-3.4-1.83-3.39-3.76Zm1.26-.01c0,1.36,1.08,2.49,2.43,2.53,1.36.04,2.52-1.01,2.57-2.37.02-.53.15-1.02.41-1.47.63-1.09,1.5-1.93,2.62-2.49,1.08-.54,2.14-.53,3.03.47.55.62,1.29.59,1.87.02.65-.63,1.27-1.28,1.93-1.91.2-.19.16-.29-.01-.46-2.22-2.21-4.43-4.42-6.64-6.64-.16-.16-.26-.18-.43,0-.65.67-1.32,1.32-1.97,1.98-.26.26-.38.57-.37.94.01.44.26.75.56,1.03.49.45.73,1,.69,1.67-.05.76-.38,1.42-.83,2.01-.94,1.2-2,2.16-3.66,2.25-1.25.07-2.18,1.21-2.19,2.44Zm15.99-6.4s.11-.09.17-.15c.75-.75,1.49-1.5,2.25-2.24.22-.21.11-.31-.05-.46-2.2-2.19-4.39-4.38-6.58-6.58-.18-.18-.29-.23-.49-.02-.71.74-1.45,1.47-2.18,2.19-.17.17-.21.27-.02.46,2.22,2.21,4.43,4.42,6.65,6.63.07.07.12.16.25.17Z"/>
  <g>
    <path class="cls-1" d="m21.18,8L13.6.41c-.29-.29-.5-.41-.71-.41-.25,0-.47.17-.72.43-.58.58-1.15,1.15-1.72,1.73-1.3,1.32-2.65,2.68-4.01,3.98-.66.63-1.01,1.42-.98,2.22.03.75.37,1.44.97,1.94.26.22.34.51.23.83-.42,1.22-1.25,2.11-2.48,2.67-.12.05-.25.06-.45.07C1.64,13.95,0,15.64,0,17.72c0,2,1.49,3.65,3.48,3.86.13.01.26.02.39.02,1.84,0,3.44-1.33,3.79-3.16.03-.14.03-.29.04-.44,0-.23.02-.45.11-.64.56-1.14,1.41-1.94,2.53-2.37.13-.05.24-.07.36-.07.23,0,.45.1.67.33.61.62,1.3.94,2,.94s1.4-.33,2.03-.96l5.79-5.78c.26-.25.43-.47.43-.72,0-.21-.12-.42-.41-.71Zm-5.04,4.4c-.37.36-.74.73-1.1,1.09-.27.27-.55.55-.82.82-.27.27-.58.41-.88.41s-.6-.15-.85-.42c-.5-.57-1.09-.86-1.76-.86-.43,0-.9.12-1.39.37-1.13.56-2.02,1.41-2.67,2.53-.26.45-.4.95-.42,1.51-.05,1.28-1.11,2.28-2.47,2.28h0c-1.29-.03-2.34-1.12-2.33-2.43,0-1.23.94-2.28,2.09-2.34,1.8-.1,2.9-1.22,3.74-2.29.52-.67.8-1.35.85-2.07.05-.69-.19-1.28-.72-1.75-.36-.33-.52-.61-.53-.96-.01-.34.1-.63.34-.87l.68-.68c.43-.43.87-.87,1.3-1.31.06-.06.11-.09.14-.09s.08.03.15.1c2.21,2.22,4.42,4.43,6.64,6.64.05.05.12.12.12.17,0,.03-.03.08-.1.15Zm3.55-3.55c-.54.52-1.07,1.05-1.6,1.59l-.65.65s-.08.07-.09.12c-.06,0-.1-.04-.19-.14l-1.81-1.81c-1.61-1.61-3.22-3.22-4.83-4.82-.07-.07-.1-.12-.1-.16s.04-.09.12-.16c.74-.72,1.47-1.44,2.18-2.19.07-.07.12-.11.17-.11s.1.04.19.13c2.19,2.2,4.39,4.39,6.59,6.59.07.07.13.13.13.17,0,.03-.03.08-.09.14Z"/>
    <path class="cls-1" d="m3.86,17.01c-.39,0-.71.31-.72.7-.01.39.29.72.67.74h.04c.39,0,.71-.31.72-.7.01-.39-.29-.71-.72-.74Z"/>
  </g>
  <path class="cls-1" d="m4.48,17.74c0,.35-.3.62-.66.6-.34-.02-.59-.3-.58-.64,0-.35.3-.62.66-.6.34.02.59.3.58.64Z"/>
</svg>