<?xml version="1.0" encoding="UTF-8"?>
<svg id="_图层_1" data-name="图层 1" xmlns="http://www.w3.org/2000/svg" viewBox="0 0 19.74 22.68">
  <defs>
    <style>
      .cls-1 {
        fill: #424242;
        stroke-width: 0px;
      }
    </style>
  </defs>
  <path class="cls-1" d="m18.58,3.14c-3.48-.38-6.07-1.31-8.14-2.92-.19-.15-.38-.22-.57-.22s-.38.07-.57.22C7.14,1.89,4.49,2.82.95,3.15.15,3.23-.06,3.46.01,4.24l.24,2.8c.15,1.67.29,3.33.42,5,.19,2.46,1.01,4.46,2.48,6.11,1.93,2.16,4.38,3.5,6.29,4.43.13.06.27.09.4.09.16,0,.33-.04.52-.14,1.81-.87,3.23-1.75,4.48-2.75,2.44-1.96,3.76-4.14,4.05-6.66.23-2.02.42-4.07.59-6.06.08-.87.15-1.74.24-2.62.04-1.11-.09-1.19-1.15-1.31Zm-8.83,17.96c-1.73-.87-3.93-2.12-5.63-4.1-1.21-1.42-1.85-3.17-2.01-5.53-.15-2.12-.34-4.17-.58-6.62q-.03-.27.22-.29c2.87-.29,5.52-1.23,7.89-2.78.11-.07.18-.1.23-.1.03,0,.09,0,.19.08,2.37,1.57,5.06,2.51,7.99,2.81.05,0,.18.02.18.06l-.23,2.51c-.18,1.95-.35,3.87-.56,5.78-.19,1.7-.97,3.24-2.39,4.7-1.25,1.29-2.79,2.35-4.98,3.44-.1.05-.16.07-.21.07-.03,0-.07,0-.11-.03Z"/>
  <path class="cls-1" d="m12.67,10.12c.13-.16.28-.34.31-.64l-.02-.1v-.04c-.03-.07-.06-.16-.11-.24-.14-.22-.35-.35-.59-.35s-.49.13-.69.37c-.79.92-1.58,1.85-2.35,2.79-.08.1-.12.13-.12.13-.01,0-.05-.04-.12-.14-.17-.24-.36-.48-.54-.71l-.29-.37c-.21-.28-.43-.41-.67-.41-.15,0-.3.06-.45.17-.17.13-.27.29-.29.47-.03.21.06.43.25.67,0,0,1.13,1.45,1.38,1.77.17.22.41.46.71.46s.55-.24.73-.46c.7-.83,1.4-1.65,2.1-2.48l.76-.9Z"/>
</svg>