<?xml version="1.0" encoding="UTF-8"?>
<svg id="_图层_1" data-name="图层 1" xmlns="http://www.w3.org/2000/svg" viewBox="0 0 21.15 21.15">
  <defs>
    <style>
      .cls-1 {
        stroke-width: 0px;
      }
    </style>
  </defs>
  <path class="cls-1" d="m10.58,21.15c-2.81,0-5.47-1.11-7.47-3.11C1.1,16.03,0,13.38,0,10.56,0,4.74,4.75,0,10.57,0c2.82,0,5.47,1.1,7.47,3.11,2,2.01,3.11,4.66,3.1,7.48,0,5.82-4.75,10.56-10.57,10.56h0Zm-.02-19.64c-4.98.02-9.03,4.08-9.04,9.05,0,2.42.94,4.7,2.65,6.41,1.71,1.72,3.99,2.66,6.41,2.66h0c2.42,0,4.7-.95,6.41-2.66,1.71-1.72,2.65-3.99,2.65-6.41,0-4.99-4.07-9.05-9.05-9.05h-.03Z"/>
  <path class="cls-1" d="m10.56,16.79c-1.65,0-3.21-.66-4.38-1.85-1.18-1.19-1.82-2.75-1.81-4.4.02-3.41,2.81-6.18,6.21-6.18h.02c1.64,0,3.19.66,4.37,1.84,1.18,1.18,1.83,2.73,1.83,4.37,0,1.65-.65,3.2-1.83,4.39-1.18,1.18-2.74,1.83-4.38,1.83h-.02Zm.01-10.91c-2.59,0-4.7,2.11-4.69,4.7,0,2.59,2.11,4.7,4.7,4.7,2.59,0,4.7-2.11,4.7-4.7,0-2.59-2.11-4.7-4.7-4.7h0Z"/>
  <path class="cls-1" d="m10.57,12.42c-.49,0-.95-.2-1.3-.55-.35-.35-.54-.82-.54-1.3,0-1.01.83-1.83,1.84-1.83.5,0,.96.2,1.31.55.35.35.54.82.54,1.3,0,1.01-.83,1.83-1.84,1.84h-.01Z"/>
</svg>