<?xml version="1.0" encoding="UTF-8"?>
<svg id="_图层_1" data-name="图层 1" xmlns="http://www.w3.org/2000/svg" viewBox="0 0 20.01 17.45">
  <defs>
    <style>
      .cls-1, .cls-2 {
        stroke-width: 0px;
      }

      .cls-2 {
        fill: #eb3030;
      }
    </style>
  </defs>
  <path class="cls-2" d="m2.35,1.33h.12s0-.2,0-.2l.19.2h12.61c1.77,0,3.22,1.33,3.37,3.07.15,1.75-1.08,3.33-2.8,3.58-.4.06-.84.09-1.34.09s-1.01-.03-1.52-.06c-.18-.01-.36-.02-.54-.03l1.19-1.17c.36-.35.4-.69.13-1.01-.16-.19-.34-.23-.46-.23-.2,0-.4.1-.6.3-.75.75-1.5,1.5-2.25,2.25-.45.45-.45.75,0,1.19l2.31,2.3c.17.17.35.25.53.25.17,0,.33-.07.47-.22.28-.29.26-.65-.12-1.03l-.21-.21-1.09-1.02h2.88c.52,0,.99-.06,1.45-.2,2.17-.66,3.62-2.89,3.3-5.06C19.61,1.71,17.7.01,15.32,0c-1.09,0-2.18,0-3.26,0H2.35c-.62,0-.74.4-.76.64-.01.18.04.34.14.46.13.15.35.23.62.24Z"/>
  <path class="cls-1" d="m19.27,16.12H4.92c-.21,0-.43,0-.64-.03-.99-.16-1.82-.68-2.35-1.46-.54-.81-.7-1.83-.46-2.86.37-1.55,1.41-2.37,3-2.37h2.8c-.36.41-.74.79-1.11,1.16l-.16.16c-.16.16-.24.33-.24.51,0,.12.04.29.22.46.14.13.29.2.46.2s.33-.08.48-.22c.82-.81,1.63-1.62,2.44-2.44.29-.29.31-.66.04-.94-.83-.85-1.67-1.7-2.53-2.52-.12-.12-.28-.18-.44-.18-.33,0-.62.25-.66.59-.04.32.16.51.28.63l1.26,1.25h-1.79c-.47,0-.93,0-1.39,0-1.5.03-2.67.7-3.39,1.93-.98,1.69-1.02,3.43-.13,5.03.89,1.61,2.33,2.42,4.27,2.42h14.36c.43,0,.71-.25.72-.65,0-.25-.09-.4-.17-.49-.13-.13-.31-.2-.55-.2Z"/>
</svg>