<?xml version="1.0" encoding="UTF-8"?>
<svg id="_图层_1" data-name="图层 1" xmlns="http://www.w3.org/2000/svg" viewBox="0 0 10.79 12.35">
  <defs>
    <style>
      .cls-1 {
        stroke-width: 0px;
      }
    </style>
  </defs>
  <path class="cls-1" d="m9.85,8.52c-.35-.23-.75-.35-1.16-.35-.51,0-1.01.19-1.4.55-.03.03-.05.05-.09.05-.02,0-.05,0-.08-.02-.98-.62-1.97-1.23-2.96-1.84-.08-.05-.09-.06-.06-.15.12-.38.12-.76,0-1.13-.04-.11-.02-.14.08-.2.97-.59,1.94-1.19,2.91-1.8.05-.03.08-.04.11-.04.02,0,.05,0,.11.06.42.36.88.55,1.36.55.29,0,.58-.07.87-.2.79-.35,1.21-.99,1.25-1.93v-.11c-.02-.09-.03-.19-.05-.28-.21-.98-1.05-1.67-2.04-1.67-.17,0-.34.02-.5.06-.55.13-1,.47-1.29.96-.29.49-.37,1.07-.22,1.63.03.12.02.14-.06.19-.99.6-1.97,1.21-3.03,1.86-.01,0-.04,0-.09-.06-.39-.35-.89-.55-1.41-.55-.57,0-1.1.23-1.51.65-.78.81-.77,2.08,0,2.88.4.42.94.65,1.5.65.51,0,1.01-.19,1.4-.54.06-.06.09-.06.1-.06.03,0,.06.01.12.05.95.6,1.91,1.19,2.87,1.77.13.08.14.12.11.26-.16.59-.04,1.23.32,1.73.36.51.92.82,1.53.87.05,0,.11,0,.16,0,.9,0,1.7-.57,1.99-1.42.3-.89-.03-1.89-.82-2.41Zm-1.17,2.9c-.64,0-1.16-.53-1.15-1.18,0-.63.52-1.14,1.15-1.15v-.1s0,0,0,0v.1c.31,0,.6.12.82.34.22.22.34.51.34.82,0,.64-.52,1.16-1.17,1.16Zm0-10.6v.1c.31,0,.6.12.82.35.22.22.34.52.34.83,0,.63-.52,1.15-1.17,1.15-.64,0-1.16-.52-1.16-1.16,0-.31.12-.61.34-.83.22-.22.51-.34.81-.34v-.1h0ZM2.1,4.91v.1c.64,0,1.16.52,1.16,1.16,0,.31-.12.6-.34.82-.22.22-.51.34-.82.34-.31,0-.6-.12-.82-.34s-.34-.51-.33-.83c0-.63.52-1.15,1.15-1.15v-.1h0Z"/>
</svg>