<?xml version="1.0" encoding="UTF-8"?>
<svg id="_图层_1" data-name="图层 1" xmlns="http://www.w3.org/2000/svg" viewBox="0 0 30.74 34.5">
  <defs>
    <style>
      .cls-1 {
        fill: #393939;
        stroke-width: 0px;
      }
    </style>
  </defs>
  <path class="cls-1" d="m15.29,15.37c-.16,1.32-.31,2.65-.47,3.97-.38,3.28-.75,6.55-1.12,9.83-.04.35-.21.55-.52.71-2.64,1.37-5.27,2.75-7.91,4.12-1.53.8-3.03.62-4.2-.46-1.11-1.03-1.39-2.58-.7-4.15,3.2-7.39,6.41-14.77,9.62-22.15.73-1.69,1.48-3.37,2.2-5.06C12.8.77,13.85,0,15.38,0c1.51,0,2.54.77,3.14,2.14,3.96,9.11,7.93,18.22,11.88,27.33.65,1.5.34,3.09-.76,4.09-1.18,1.07-2.66,1.23-4.2.43-2.62-1.36-5.23-2.74-7.85-4.09-.37-.19-.52-.44-.57-.83-.41-3.7-.84-7.4-1.26-11.1-.1-.87-.21-1.73-.32-2.6-.05,0-.1,0-.15,0Z"/>
</svg>