<?xml version="1.0" encoding="UTF-8"?>
<svg id="_图层_1" data-name="图层 1" xmlns="http://www.w3.org/2000/svg" viewBox="0 0 15.71 15.71">
  <defs>
    <style>
      .cls-1 {
        stroke-width: 0px;
      }
    </style>
  </defs>
  <path class="cls-1" d="m7.91,3.42c-.95,0-1.7.73-1.71,1.67-.01.95.72,1.71,1.66,1.73.95.02,1.75-.76,1.75-1.71,0-.93-.76-1.69-1.7-1.7Z"/>
  <path class="cls-1" d="m7.9,2.16c-3.13-.04-5.71,2.48-5.74,5.63-.04,3.16,2.51,5.74,5.68,5.75,3.14.02,5.69-2.51,5.72-5.66.03-3.13-2.49-5.68-5.65-5.73Zm-.02,10.03c-.94,0-1.69-.78-1.69-1.71,0-.93.78-1.7,1.71-1.7.95,0,1.74.8,1.71,1.75-.03.94-.78,1.67-1.73,1.66Zm.17-4.76c-2.55.21-3.7,1.84-2.99,4.43-1.62-1.28-2.31-2.85-2.02-4.76.3-1.92,1.44-3.21,3.26-3.88.54-.2,1.1-.27,1.67-.24,1.2.06,2.12,1.03,2.13,2.21,0,1.15-.9,2.14-2.05,2.24Z"/>
  <path class="cls-1" d="m15.71,5.04c0-.31-.09-.55-.32-.77-1.33-1.31-2.65-2.63-3.96-3.96C11.22.1,11,0,10.71,0c-1.9,0-3.8,0-5.71,0-.27,0-.49.07-.69.27C2.98,1.63,1.63,2.97.28,4.31.08,4.5,0,4.71,0,4.99c0,1.9,0,3.8,0,5.7,0,.3.09.52.3.72,1.33,1.31,2.65,2.63,3.96,3.96.24.24.49.33.82.33.93-.01,1.85,0,2.78,0,.94,0,1.88,0,2.83,0,.29,0,.52-.08.73-.29,1.33-1.34,2.66-2.67,4-4,.21-.21.3-.43.3-.73,0-1.88,0-3.77,0-5.65Zm-.82,5.35c0,.26-.06.45-.25.64-1.21,1.19-2.41,2.39-3.6,3.6-.18.18-.37.27-.63.26-1.7,0-3.39,0-5.09,0-.26,0-.45-.06-.64-.25-1.19-1.21-2.39-2.41-3.6-3.6-.18-.18-.27-.37-.26-.63,0-1.7,0-3.39,0-5.09,0-.26.06-.45.25-.64,1.21-1.19,2.41-2.39,3.6-3.6.2-.2.41-.27.68-.26.84.01,1.68,0,2.52,0,.82,0,1.65.01,2.47,0,.29,0,.51.07.72.29,1.18,1.2,2.37,2.38,3.56,3.56.18.18.26.37.26.63,0,1.7,0,3.39,0,5.09Z"/>
</svg>