<?xml version="1.0" encoding="UTF-8"?>
<svg id="_图层_1" data-name="图层 1" xmlns="http://www.w3.org/2000/svg" viewBox="0 0 22.78 18.31">
  <defs>
    <style>
      .cls-1 {
        stroke-width: 0px;
      }
    </style>
  </defs>
  <path class="cls-1" d="m13.62,0C8.57,0,4.46,4.11,4.46,9.16c0,.96.15,1.91.44,2.82L0,17.12l8.07-.69c1.59,1.21,3.55,1.87,5.55,1.87,5.05,0,9.16-4.11,9.16-9.15S18.67,0,13.62,0Zm0,16.81c-1.76,0-3.48-.61-4.85-1.73l-.24-.19-4.72.4,2.82-2.96-.17-.44c-.33-.88-.5-1.8-.5-2.73,0-4.22,3.44-7.66,7.66-7.66s7.66,3.43,7.66,7.66-3.44,7.65-7.66,7.65Z"/>
</svg>