<?xml version="1.0" encoding="UTF-8"?>
<svg id="_图层_1" data-name="图层 1" xmlns="http://www.w3.org/2000/svg" viewBox="0 0 12.82 20.68">
  <defs>
    <style>
      .cls-1 {
        fill: #eb3030;
        stroke-width: 0px;
      }
    </style>
  </defs>
  <path class="cls-1" d="m3.23,20.68c-.19,0-.35-.06-.46-.12-.33-.18-.66-.54-.44-1.28.33-1.07.65-2.15.98-3.22l.02-.05-1.53.12c-.11.02-.19.02-.27.02-.29.04-.83.11-1.18-.39-.41-.58-.05-1.1.07-1.27.54-.95,1.04-1.83,1.54-2.71l.18-.31-.7.17c-.22.06-.81.2-1.2-.2-.39-.4-.22-.99-.15-1.21l.73-2.53c.65-2.24,1.29-4.49,1.93-6.73C2.96.24,3.44-.08,4.17.02c1.7.23,3.39.45,5.09.66l2.56.33c.46.06.77.25.92.58.15.32.09.69-.16,1.08-.66,1.02-1.33,2.03-1.99,3.04l-.41.62.55-.08c.18-.03.36-.05.55-.08.25-.04.87-.12,1.19.5.29.56-.08,1.01-.2,1.16l-3.33,4.21c.25-.01.81-.04,1.08.54.18.39.1.78-.25,1.17l-5.74,6.49c-.29.33-.58.43-.82.43Zm.94-6.05c.31,0,.58.22.64.53.06.31-.03.55-.07.68l-.18.6c-.2.65-.39,1.3-.59,1.95l4.39-4.96c-.26.03-.54.05-.86.03-.24-.02-.45-.17-.54-.39-.1-.22-.07-.47.08-.66l3.82-4.85-1.89.26c-.25.03-.5-.08-.63-.29-.14-.21-.14-.48,0-.7l1.18-1.83c.6-.91,1.2-1.82,1.79-2.74l-2.2-.29c-1.7-.22-3.39-.43-5.09-.66,0,0,0,0,0,0-.64,2.25-1.29,4.49-1.93,6.74l-.65,2.24,1.85-.46c.25-.06.51.03.67.23.16.2.18.48.06.71l-.09.18c-.06.11-.1.2-.15.29l-.67,1.18c-.46.8-.91,1.6-1.37,2.41l2.39-.19s.04,0,.05,0Z"/>
</svg>