<?xml version="1.0" encoding="UTF-8"?>
<svg id="_图层_1" data-name="图层 1" xmlns="http://www.w3.org/2000/svg" viewBox="0 0 12.3 16.16">
  <defs>
    <style>
      .cls-1 {
        stroke-width: 0px;
      }
    </style>
  </defs>
  <path class="cls-1" d="m7.14,1.2v.81c0,.56,0,1.09,0,1.62,0,.76.62,1.35,1.4,1.35h.97s.63,0,.63,0h.69s.27,0,.27,0c0,1.47,0,2.94,0,4.41,0,1.62,0,3.25,0,4.87,0,.51-.18.68-.69.68h-4.26s-4.26,0-4.26,0c-.52,0-.69-.17-.69-.68,0-1.45,0-2.9,0-4.35v-1.86s0-1.89,0-1.89V2.01c0-.67.13-.8.79-.8h1.55s1.46,0,1.46,0c.72,0,1.43,0,2.14,0m.26-1.2s0,0-.01,0c-.8,0-1.59,0-2.39,0C4.02,0,3.05,0,2.08,0h-.09C.67,0,0,.68,0,2.01c0,2.02,0,4.04,0,6.06,0,2.07,0,4.14,0,6.21,0,1.17.72,1.88,1.89,1.88,1.42,0,2.84,0,4.26,0s2.84,0,4.26,0c1.17,0,1.89-.71,1.89-1.88,0-3.17,0-6.35,0-9.52,0-.59-.2-1.08-.64-1.48-.96-.9-1.91-1.8-2.86-2.71-.4-.38-.86-.56-1.41-.56h0Zm1.14,3.79c-.11,0-.19-.05-.2-.16,0-.71,0-1.41,0-2.2.85.81,1.64,1.56,2.5,2.36-.46,0-.9,0-1.32,0-.33,0-.65,0-.97,0h0Z"/>
  <path class="cls-1" d="m2.65,6.31c-.25,0-.43.1-.51.34-.07.2,0,.37.16.51.12.1.26.11.41.11.01,0,.03,0,.04,0,.93,0,1.86,0,2.79,0,.69,0,1.38,0,2.06,0,.36,0,.72,0,1.08,0,.26,0,.52,0,.78,0,.33,0,.55-.21.54-.49,0-.28-.22-.46-.57-.46-.5,0-1.01,0-1.51,0-.62,0-1.24,0-1.86,0-.23,0-.46,0-.69,0-.52,0-1.03,0-1.55,0-.39,0-.77,0-1.16,0h0Z"/>
  <path class="cls-1" d="m2.65,8.83c-.25,0-.43.1-.51.34-.07.2,0,.37.16.51.12.1.26.11.41.11.01,0,.03,0,.04,0,.88,0,1.76,0,2.63,0,.74,0,1.48,0,2.22,0,.36,0,.72,0,1.08,0,.26,0,.52,0,.78,0,.33,0,.55-.21.54-.49,0-.28-.22-.46-.57-.46-.49,0-.99,0-1.48,0-.63,0-1.26,0-1.89,0-.23,0-.46,0-.69,0-.51,0-1.03,0-1.54,0-.39,0-.78,0-1.17,0h0Z"/>
  <path class="cls-1" d="m3.73,11.36c-.36,0-.72,0-1.08,0-.32,0-.52.19-.53.46,0,.28.21.48.54.48.14,0,.28,0,.41,0,.22,0,.44,0,.65,0s.44,0,.66,0c.15,0,.29,0,.44,0,.32,0,.52-.18.52-.46,0-.29-.2-.48-.53-.48-.36,0-.72,0-1.08,0h0Z"/>
</svg>