<?xml version="1.0" encoding="UTF-8"?>
<svg id="_图层_1" data-name="图层 1" xmlns="http://www.w3.org/2000/svg" viewBox="0 0 21.13 23.22">
  <defs>
    <style>
      .cls-1 {
        stroke-width: 0px;
      }
    </style>
  </defs>
  <path class="cls-1" d="m9.46,1.3c1.8,0,3.59,0,5.39.01,1.51,0,2.81,1.2,2.85,2.68.05,1.73.01,3.46.01,5.18-.03.02-.07.03-.09.03-.06,0-.1-.03-.15-.06-1.23-.66-2.47-.98-3.71-.98-1.18,0-2.37.29-3.57.88-.07.04-.15.06-.23.1.25-.32.46-.65.23-1.08-.21-.38-.56-.42-.94-.42-.01,0-.03,0-.04,0-.49,0-.97,0-1.46,0s-1.01,0-1.52,0c-.26,0-.52,0-.78,0-.6,0-.94.28-.96.76-.01.51.34.81.96.81.21,0,.42,0,.63,0,1.24,0,2.48,0,3.73,0-1.11.7-1.96,1.66-2.74,2.7.09-.66-.13-1.05-.67-1.09-.19-.02-.39-.02-.58-.02s-.4,0-.6.02c-.38.03-.64.26-.7.65-.06.41.11.78.5.85.31.05.63.11.94.11.36,0,.71-.08,1.04-.34-.57,1.24-.96,2.52-.92,3.91.05,1.62.54,3.07,1.5,4.37.09.13.19.26.36.48-.43,0-.82,0-1.2,0-.19,0-.37,0-.56,0-.01,0-.03,0-.04,0-.39,0-.78,0-1.16,0-.28,0-.55,0-.83,0-1.58-.04-2.82-1.24-2.83-2.8-.02-4.64-.02-9.27,0-13.91,0-1.58,1.28-2.82,2.86-2.82,1.76,0,3.52-.01,5.28-.01m-2.34,4.76c.8,0,1.61,0,2.41,0,.79,0,1.58,0,2.37,0,.57,0,1.14,0,1.7,0,.58,0,.94-.32.94-.79,0-.47-.37-.79-.95-.79-1.37,0-2.74,0-4.11,0s-2.69,0-4.03,0c-.6,0-.94.28-.96.77-.01.51.34.81.96.81.55,0,1.11,0,1.66,0M9.46,0c-1.76,0-3.52,0-5.28.01C1.85.02.03,1.83.02,4.13c-.02,4.75-.02,9.43,0,13.92.01,2.23,1.81,4.03,4.09,4.09.29,0,.57.01.86.01h.59s.57,0,.57,0h.6s.56,0,.56,0h.64s2.6,0,2.6,0l-1.56-2.08-.15-.2-.2-.26c-.8-1.08-1.21-2.27-1.25-3.64-.03-1.02.22-2.05.8-3.32l.04-.08c.6-.78,1.33-1.62,2.27-2.22l.05-.02c.08-.03.15-.06.23-.1,1.01-.49,2.02-.74,3-.74,1.03,0,2.07.28,3.1.83.1.06.38.21.76.21.27,0,.54-.08.78-.23l.61-.38v-.72c0-.52,0-1.04,0-1.56,0-1.2.02-2.44-.02-3.67C18.94,1.79,17.07.02,14.85.01c-1.8,0-3.6-.01-5.4-.01h0Z"/>
  <path class="cls-1" d="m13.74,9.75s.01,0,.02,0c3.36,0,6.08,2.74,6.07,6.1,0,3.36-2.72,6.07-6.09,6.07h0c-3.36,0-6.08-2.73-6.07-6.09,0-3.35,2.73-6.07,6.08-6.07m1.01,6.89c.39,0,.79-.01,1.18-.04.43-.03.67-.35.68-.78,0-.41-.32-.73-.76-.75-.17,0-.34-.01-.52-.01-.16,0-.32,0-.48,0-.01,0-.02,0-.03,0-.21,0-.3-.08-.29-.31.01-.36.02-.73,0-1.09-.03-.44-.35-.75-.77-.76,0,0-.01,0-.02,0-.42,0-.76.31-.78.77-.02.36,0,.73,0,1.09,0,.36-.01.73,0,1.09.02.44.27.74.7.77.37.02.73.03,1.1.03m-1.01-8.19c-4.06,0-7.37,3.31-7.38,7.37,0,1.97.76,3.83,2.15,5.22,1.39,1.4,3.24,2.17,5.22,2.17,4.07,0,7.39-3.3,7.39-7.36,0-4.07-3.3-7.39-7.37-7.4h-.02Z"/>
</svg>