<?xml version="1.0" encoding="UTF-8"?>
<svg id="_图层_1" data-name="图层 1" xmlns="http://www.w3.org/2000/svg" viewBox="0 0 12.44 13.53">
  <defs>
    <style>
      .cls-1 {
        stroke-width: 0px;
      }
    </style>
  </defs>
  <path class="cls-1" d="m5.44,1.07c-.22-.18-.41-.34-.61-.48-.11-.08-.11-.15-.03-.26.3-.42.29-.42.69-.11.36.29.73.57,1.09.87.26.22.28.36.07.63-.33.43-.68.84-1,1.27-.22.3-.32,0-.45-.07-.14-.08-.29-.16-.1-.36.2-.22.38-.47.59-.74-.29-.06-.52.02-.75.08C2.31,2.54.59,4.86.7,7.6c.1,2.55,2.08,4.74,4.66,5.16,2.56.41,5.11-1.07,6.04-3.51.93-2.46,0-5.24-2.22-6.65-.11-.07-.32-.1-.3-.25.03-.17.14-.34.25-.49.09-.12.18.01.25.05,1.57.95,2.58,2.32,2.94,4.12.72,3.6-1.68,6.94-5.32,7.44C3.65,13.94.44,11.45.05,8.09-.35,4.7,1.82,1.76,5.19,1.14c.07-.01.14-.04.26-.07Z"/>
  <path class="cls-1" d="m6.23,4.26c1.05,0,1.88.85,1.87,1.91-.01,1.02-.87,1.87-1.9,1.86-1.04-.01-1.88-.87-1.87-1.92.01-1.03.86-1.86,1.9-1.85Zm-1.2,1.89c0,.67.53,1.19,1.2,1.18.65,0,1.16-.53,1.17-1.18,0-.67-.52-1.2-1.18-1.2-.66,0-1.19.53-1.18,1.2Z"/>
  <path class="cls-1" d="m6.23,8.53c.97,0,1.88.23,2.7.75.11.07.34.14.14.32-.13.13-.12.5-.5.28-1.56-.9-3.14-.9-4.7,0-.39.22-.37-.14-.51-.27-.2-.18,0-.25.13-.33.84-.52,1.75-.76,2.74-.75Z"/>
</svg>