<?xml version="1.0" encoding="UTF-8"?>
<svg id="_图层_1" data-name="图层 1" xmlns="http://www.w3.org/2000/svg" viewBox="0 0 20.43 23.25">
  <defs>
    <style>
      .cls-1 {
        stroke-width: 0px;
      }
    </style>
  </defs>
  <path class="cls-1" d="m12.94,17.44c-.39-.04-.61-.27-.71-.65-.26-.99-.52-1.99-.79-2.97-.52-1.87-1.69-3.12-3.51-3.75-.62-.21-1.24-.42-1.87-.62-.35-.11-.58-.33-.59-.71,0-.4.23-.63.6-.75.64-.21,1.28-.41,1.91-.64,1.78-.63,2.93-1.86,3.45-3.7.28-.99.54-1.98.79-2.97C12.32.28,12.53,0,12.95,0c.42,0,.63.27.73.66.26.99.52,1.99.8,2.97.52,1.85,1.68,3.09,3.48,3.72.62.22,1.24.42,1.87.62.36.12.61.34.61.74,0,.41-.25.62-.62.73-.61.2-1.22.41-1.83.61-1.82.62-3,1.87-3.52,3.74-.27.99-.54,1.98-.79,2.97-.1.4-.33.63-.74.66Zm4.44-8.73c-2.38-.94-3.78-2.62-4.43-5-.64,2.4-2.07,4.06-4.41,5,2.36.94,3.77,2.61,4.41,5,.65-2.4,2.07-4.07,4.43-5Z"/>
  <path class="cls-1" d="m5.07,23.25c-.43.04-.63-.21-.73-.58-.17-.64-.34-1.28-.52-1.92-.3-1.08-.99-1.81-2.03-2.18-.41-.15-.82-.27-1.23-.41C.22,18.04,0,17.81,0,17.43c0-.38.23-.6.58-.72.44-.14.88-.28,1.31-.45.98-.36,1.61-1.06,1.91-2.07.19-.65.36-1.31.53-1.97.1-.4.32-.66.74-.65.4,0,.61.26.71.64.17.64.34,1.28.52,1.92.3,1.07.97,1.78,2,2.15.42.15.85.28,1.27.43.33.11.54.33.55.69,0,.38-.2.62-.55.74-.44.15-.88.28-1.31.44-.99.37-1.65,1.07-1.95,2.09-.19.67-.36,1.34-.54,2.01-.1.35-.3.59-.7.55Zm0-8.23c-.26.59-.54,1.04-.9,1.43-.35.39-.78.69-1.27,1,1.01.55,1.7,1.33,2.18,2.41.47-1.11,1.19-1.86,2.17-2.43-1.01-.56-1.7-1.32-2.18-2.41Z"/>
  <path class="cls-1" d="m2.19,3.27c0-.75.21-1.08.7-1.1.5-.01.74.34.74,1.1v.09c0,.64-.25.99-.72.98-.47,0-.71-.34-.72-.99,0-.03,0-.06,0-.09Z"/>
  <path class="cls-1" d="m1.12,4.35c.73,0,1.07.23,1.07.72,0,.49-.34.74-1.05.74-.75,0-1.1-.24-1.09-.74,0-.49.34-.71,1.08-.71Z"/>
  <path class="cls-1" d="m4.71,4.35c.73,0,1.07.23,1.07.72,0,.49-.34.74-1.05.74-.1,0-.21,0-.31,0-.48-.02-.79-.32-.78-.74,0-.41.31-.69.76-.71.1,0,.21,0,.31,0Z"/>
  <path class="cls-1" d="m3.63,6.91s0,.09,0,.14c0,.6-.26.94-.72.94-.46,0-.71-.34-.72-.94,0-.15,0-.3,0-.45.02-.46.29-.77.7-.78.42-.01.72.31.74.79,0,.11,0,.21,0,.32Z"/>
  <path class="cls-1" d="m16.54,17.8c0-.75.21-1.08.7-1.09.5-.01.74.34.74,1.1,0,.03,0,.06,0,.09,0,.64-.26.99-.72.98-.47,0-.71-.34-.71-.99,0-.03,0-.06,0-.09Z"/>
  <path class="cls-1" d="m15.49,18.89c.13,0,.27-.01.4,0,.38.05.66.37.64.74-.02.4-.25.65-.64.7-.26.03-.53.02-.8,0-.42-.02-.71-.33-.71-.72,0-.4.29-.69.7-.73.13-.01.27,0,.4,0h0Z"/>
  <path class="cls-1" d="m19.05,18.89c.73,0,1.07.23,1.07.72,0,.49-.34.74-1.05.74-.75,0-1.1-.24-1.1-.74,0-.49.34-.71,1.08-.71Z"/>
  <path class="cls-1" d="m16.54,21.42s0-.09,0-.14c0-.61.26-.94.72-.94.46,0,.71.34.72.94,0,.15,0,.3,0,.45-.02.46-.3.77-.7.78-.42.01-.72-.31-.74-.79,0-.11,0-.21,0-.32Z"/>
</svg>