<?xml version="1.0" encoding="UTF-8"?>
<svg id="_图层_1" data-name="图层 1" xmlns="http://www.w3.org/2000/svg" viewBox="0 0 20.46 22.34">
  <defs>
    <style>
      .cls-1 {
        stroke-width: 0px;
      }
    </style>
  </defs>
  <path class="cls-1" d="m11.73,18.93c.08,0,.17-.03.26-.1.11-.08.17-.17.18-.28.02-.16-.08-.31-.17-.44-.05-.07-.1-.14-.15-.2-.11-.16-.23-.31-.36-.44-.42-.39-.41-.88-.35-1.32.07-.52.21-1.03.33-1.47.06-.2.1-.2.12-.2.04,0,.1.02.19.07.54.29,1.08.57,1.63.85l.75.39c.14.07.27.13.4.13.15,0,.27-.08.35-.24.19-.38-.16-.56-.36-.67l-.88-.46c-.53-.27-1.05-.55-1.58-.81-.1-.05-.16-.1-.17-.14-.01-.04,0-.1.06-.19l.11-.18c.21-.37.43-.74.61-1.12.12-.25.26-.34.6-.34h0c.31.01.63.01.94.01h1.36c.16,0,.57,0,.59-.42,0-.14-.03-.24-.1-.32-.12-.12-.31-.14-.5-.14h-1.27c-.29,0-.59,0-.91,0-.12,0-.16-.02-.17-.04-.01-.01-.03-.06,0-.19.16-.7.13-1.39-.1-2.08-.06-.18-.03-.24.14-.32.26-.13.52-.26.78-.4l.41-.22c.21-.11.55-.28.36-.67-.08-.16-.2-.25-.35-.25-.14,0-.27.07-.4.14l-.49.26c-.23.12-.46.24-.69.37-.06.03-.12.07-.17.07-.02,0-.06,0-.13-.11-.44-.67-1.05-1.24-1.81-1.67-.08-.05-.1-.08-.11-.09,0-.02,0-.05.06-.13.15-.23.3-.46.45-.69l.25-.39c.1-.16.31-.48-.04-.72-.09-.06-.17-.09-.25-.09-.2,0-.33.16-.43.32l-.21.32c-.18.28-.37.56-.54.85-.08.13-.13.14-.17.14-.04,0-.08,0-.13-.03-.8-.29-1.66-.44-2.62-.44-.35,0-.7.02-1.05.05-1.42.14-4.7.87-4.44,4.77.08,1.29-.24,2.18-1.04,2.9-.09.08-.16.18-.25.31-.24.33-.32.68-.21.95.07.17.23.39.64.47.89.19,1.19.66,1.04,1.63v.11c.02.75.47,1.27,1.19,1.39.23.04.46.06.7.06.13,0,.25,0,.38-.02.05,0,.09,0,.14,0,.28,0,.41.08.42.55.02.96.31,1.24,1.29,1.24h4.35c.84,0,.92-.05.95-.65,0-.05,0-.1,0-.16l.16.2c.11.13.24.3.43.3Zm-5.08-.56c-.28,0-.56,0-.87.01-.27,0-.37-.11-.38-.42,0-.06,0-.12-.01-.18-.01-.13-.03-.25.03-.32.04-.05.13-.08.26-.1.38-.04.73-.22,1.06-.4.4-.22.33-.49.25-.64-.08-.15-.2-.23-.35-.23-.09,0-.19.03-.28.09-.64.38-1.32.43-1.91.43-.23,0-.47,0-.7-.02-.19,0-.37-.02-.56-.02-.19,0-.34-.06-.44-.16-.11-.11-.16-.27-.15-.48,0-.34,0-.67-.02-1.1-.02-.55-.3-.91-.86-1.09-.3-.1-.68-.22-.71-.32-.03-.1.2-.35.43-.59.81-.84,1.12-1.74.98-2.83-.05-.4-.04-.85.03-1.35.17-1.21.82-2.05,1.95-2.49.8-.31,1.65-.47,2.52-.47.72,0,1.47.11,2.24.32.15.04.17.08.17.08,0,.01,0,.05-.09.18-.44.66-.87,1.33-1.29,2.01-.09.14-.15.18-.26.18-.04,0-.08,0-.13-.01-.22-.04-.43-.06-.65-.06-1.03,0-1.92.49-2.45,1.33-.66,1.06-.65,2.17.01,3.21.53.83,1.42,1.31,2.43,1.31.22,0,.45-.02.67-.07.05,0,.09-.02.13-.02.12,0,.19.05.29.17.55.72,1.1,1.44,1.65,2.16l.44.57c.21.27.18.58.15.9-.01.13-.02.25-.03.4h-.16s-.09,0-.09,0c0,0-.71,0-1.06,0h-2.27Zm3.57-11.88s.1.02.17.07c.62.39,1.07.8,1.44,1.32.03.04.08.1,0,.19l-2.52,1.33.05.09s0,0,0,0l-.07-.02-.18-.15c-.15-.12-.31-.25-.44-.4-.03-.03-.03-.05.06-.16l.06-.08s.36-.57.54-.85c.25-.39.5-.77.74-1.16.09-.14.13-.16.17-.16Zm-1.2,4.83c0,1.13-.91,2.06-2.06,2.07-1.16,0-2.07-.9-2.07-2.05,0-1.15.89-2.05,2.03-2.07l.02-.1s0,0,0,0v.1c1.16,0,2.07.9,2.07,2.05Zm-.3,2.52l-.06-.11c.07-.19.4-.38.68-.38.08,0,.14.01.2.04.13.07.27.13.41.19.31.13.63.27.76.48.1.17,0,.44-.12.72-.07.17-.14.34-.17.5-.01.06-.02.13-.03.19-.02.14-.03.27-.09.4,0,0-1.06-1.37-1.57-2.04Zm3.63-3.17c-.04.18-.1.24-.27.24h0c-.14-.01-.27-.01-.41-.01h-.61s-.54,0-.54,0c-.12,0-.24,0-.42.01-.15,0-.22-.04-.3-.27-.14-.37-.07-.53.31-.7.63-.29,1.25-.63,1.84-.96l.15-.08c.08-.04.13-.06.17-.06.02,0,.06,0,.1.18.13.55.12,1.09-.01,1.65Zm-2.23,2.05c-.19-.06-.31-.14-.36-.25-.05-.12-.04-.28.06-.51.06-.16.09-.2.22-.2v-.1s0,0,0,0v.1c.28,0,.56,0,.84,0h.98s-.17.31-.17.31c-.18.35-.35.67-.51,1-.05.11-.09.11-.1.11-.03,0-.07-.02-.13-.05l-.15-.09c-.21-.12-.43-.25-.67-.33Z"/>
  <path class="cls-1" d="m16.81,14.94h0c-1.02.02-1.86.86-1.86,1.88,0,.5.19.96.55,1.32.36.36.83.56,1.34.56h.02c1.04-.01,1.85-.83,1.85-1.87s-.83-1.88-1.89-1.88Zm.03.78l.03.09c.54.02.97.47.96,1.02,0,.55-.44.98-.99.98-.28,0-.54-.11-.74-.31-.19-.19-.29-.44-.28-.71,0-.54.47-.99,1.01-.99v-.09s0,0,0,0Z"/>
  <path class="cls-1" d="m13.17,18.57c-1.03,0-1.87.84-1.87,1.88,0,.5.2.98.55,1.33.36.36.82.55,1.32.55h.03c1.02-.01,1.85-.86,1.85-1.88,0-1.04-.81-1.86-1.88-1.89Zm.01,2.89c-.55,0-1.01-.45-1.01-1,0-.27.1-.52.29-.71.19-.19.44-.3.71-.3v-.1s0,0,0,0v.1c.55,0,.99.46.99,1,0,.54-.44,1-1,1.01Z"/>
  <path class="cls-1" d="m16.96,7.75h.01c1.02,0,1.86-.84,1.87-1.87,0-.5-.18-.97-.54-1.32-.36-.36-.84-.56-1.36-.56-1.04,0-1.86.82-1.86,1.85,0,.51.19.98.55,1.34.35.36.82.55,1.32.55Zm.01-2.97l.03.09c.54.02.98.48.97,1.01-.01.53-.48.99-1,.99-.27,0-.52-.11-.71-.3-.19-.19-.29-.45-.29-.73,0-.56.44-.98,1-.98v-.09s0,0,0,0Z"/>
  <path class="cls-1" d="m19.92,10.02c-.36-.36-.84-.56-1.37-.56-1.02,0-1.86.84-1.86,1.87,0,.5.19.97.55,1.32.36.36.83.56,1.34.56h.02c1.02-.01,1.86-.85,1.86-1.87,0-.49-.19-.96-.54-1.31Zm-1.34.22v.09c.55,0,1,.44,1.01.98.01.54-.43,1-1.01,1.02-.55,0-1-.44-1.01-.99-.01-.55.41-.99.97-1.01l.04-.09s0,0,0,0Z"/>
  <path class="cls-1" d="m12.58,3.75h0c.5,0,.97-.2,1.33-.56.36-.36.55-.84.55-1.34,0-1.03-.83-1.85-1.88-1.85-.51,0-.99.19-1.34.55-.35.35-.54.83-.54,1.34,0,1.02.84,1.86,1.86,1.86Zm.03-2.88c.55,0,.99.44.99.99,0,.54-.45,1-1,1.01-.55,0-1-.45-1-1.01,0-.27.1-.52.28-.71.19-.19.44-.29.72-.29v-.1s0,0,0,0l.02.1Z"/>
  <path class="cls-1" d="m6.62,11.7c-.07,0-.15-.1-.22-.2-.06-.07-.11-.15-.18-.2-.13-.11-.25-.16-.36-.16-.1,0-.19.04-.28.12-.09.09-.14.19-.14.3,0,.13.06.25.19.38l.2.2c.16.16.32.32.48.47.18.17.31.25.44.25.2,0,.34-.19.45-.37.37-.63.74-1.26,1.12-1.93.04-.07.07-.15.1-.21l.03-.08v-.02c0-.24-.12-.39-.33-.45l-.12-.02c-.15,0-.28.09-.39.26l-.64,1.11c-.04.06-.07.13-.1.2-.07.14-.14.3-.25.33Z"/>
</svg>