<?xml version="1.0" encoding="UTF-8"?>
<svg id="_图层_1" data-name="图层 1" xmlns="http://www.w3.org/2000/svg" viewBox="0 0 21.17 18.79">
  <defs>
    <style>
      .cls-1 {
        stroke-width: 0px;
      }
    </style>
  </defs>
  <path class="cls-1" d="m18.81,1.6c.42,0,.75.34.75.75v9.64c0,.41-.34.75-.75.75H5.9c-1,0-1.95.37-2.66,1.03l-1.64,1.45V2.35c0-.41.34-.75.75-.75h16.46m0-1.6H2.35C1.05,0,0,1.05,0,2.35v16.43l4.3-3.82c.43-.4,1-.62,1.6-.62h12.92c1.3,0,2.35-1.05,2.35-2.35V2.35c0-1.3-1.05-2.35-2.35-2.35h0Z"/>
  <g>
    <path class="cls-1" d="m4.93,5.69c-.84,0-1.53.68-1.53,1.53s.68,1.53,1.53,1.53,1.53-.68,1.53-1.53-.68-1.53-1.53-1.53Z"/>
    <path class="cls-1" d="m10.58,5.69c-.84,0-1.53.68-1.53,1.53s.68,1.53,1.53,1.53,1.53-.68,1.53-1.53-.68-1.53-1.53-1.53Z"/>
    <path class="cls-1" d="m16.24,5.69c-.84,0-1.53.68-1.53,1.53s.68,1.53,1.53,1.53,1.53-.68,1.53-1.53-.68-1.53-1.53-1.53Z"/>
  </g>
</svg>