<?xml version="1.0" encoding="UTF-8"?>
<svg id="_图层_1" data-name="图层 1" xmlns="http://www.w3.org/2000/svg" viewBox="0 0 15 15">
  <defs>
    <style>
      .cls-1 {
        fill: #eb7020;
        stroke-width: 0px;
      }
    </style>
  </defs>
  <path class="cls-1" d="m7.5,0c4.14,0,7.5,3.36,7.5,7.51,0,4.14-3.37,7.5-7.52,7.49C3.34,15,0,11.63,0,7.48,0,3.35,3.37,0,7.5,0Zm1.18,9.76c0-.79,0-1.57,0-2.36,0-.72-.5-1.23-1.18-1.23-.68,0-1.18.51-1.19,1.23,0,1.56,0,2.37,0,3.93,0,.74.52,1.26,1.2,1.25.67,0,1.16-.53,1.17-1.25,0-.77,0-.8,0-1.57Zm0-5.71c0-.66-.52-1.2-1.17-1.2-.66,0-1.19.52-1.2,1.18,0,.67.51,1.19,1.17,1.2.67,0,1.19-.51,1.2-1.17Z"/>
</svg>