<?xml version="1.0" encoding="UTF-8"?>
<svg id="_图层_1" data-name="图层 1" xmlns="http://www.w3.org/2000/svg" viewBox="0 0 16.52 13.15">
  <defs>
    <style>
      .cls-1 {
        stroke-width: 0px;
      }
    </style>
  </defs>
  <path class="cls-1" d="m13.63.5c-.15,0-.3.08-.45.23-.44.45-.88.9-1.31,1.37-.08.09-.15.13-.24.13-.05,0-.11-.02-.18-.05-1.02-.46-2.08-.67-3.31-.68-.03,0-.06,0-.1,0-.22,0-.53.04-.83.07-.18.02-.36.05-.54.09C4.05,2.24,2.13,3.84.66,6.1c-.22.34-.21.62,0,.95.8,1.25,1.78,2.32,3,3.14.24.16.22.24.03.42-.36.34-.69.71-1.03,1.07-.29.3-.32.6-.09.83.09.1.2.14.32.14.15,0,.3-.08.46-.24,3.51-3.65,7.02-7.3,10.52-10.96.27-.28.3-.58.08-.8-.1-.1-.2-.15-.32-.15h0ZM4.62,9.56s-.09-.02-.15-.06c-1.12-.71-2.05-1.64-2.82-2.75-.09-.13-.1-.23,0-.36,1.38-1.97,3.13-3.36,5.49-3.78.32-.06.67-.09,1.03-.09.96,0,2.01.2,2.77.56-.32.32-.61.59-.88.89-.05.06-.1.08-.14.08-.07,0-.13-.06-.2-.1-.47-.28-.99-.42-1.49-.42-1.09,0-2.13.63-2.63,1.75-.43.97-.37,1.92.14,2.84.09.15.1.24-.04.37-.32.31-.62.63-.92.96-.06.07-.12.1-.18.1h0Zm1.93-2.05c-.42-.76-.3-1.72.33-2.37.38-.4.87-.6,1.35-.6.32,0,.63.08.92.26-.86.9-1.73,1.8-2.6,2.71h0Z"/>
  <path class="cls-1" d="m13.43,3.46c-.13,0-.26.13-.52.4-.01.01-.03.03-.04.04-.18.13-.13.22.03.35.75.6,1.39,1.32,1.95,2.12.1.14.11.24,0,.39-1.72,2.37-3.81,3.84-6.52,3.84-.49,0-1.01-.05-1.55-.15-.03,0-.07-.01-.1-.01-.05,0-.1.02-.15.06-.23.23-.47.45-.75.71.14.06.19.08.25.1.74.21,1.48.33,2.23.33.53,0,1.06-.06,1.58-.17,2.67-.58,4.6-2.22,6.06-4.55.16-.26.14-.49-.01-.73-.54-.89-1.19-1.68-1.95-2.37-.26-.24-.39-.36-.52-.36h0Z"/>
  <path class="cls-1" d="m11.03,5.82c-.24.21-.44.46-.66.69-.12.13-.19.26-.22.43-.16.85-.73,1.43-1.55,1.61-.1.02-.2.02-.28.1-.26.26-.53.52-.79.78.02.03.04.06.05.09.25.05.49.08.72.08.8,0,1.51-.32,2.1-.99.7-.78.91-1.72.63-2.8h0Z"/>
</svg>