<svg xmlns="http://www.w3.org/2000/svg" width="500" height="500" viewBox="0 0 1000 1000">
  <defs>
    <style>
      .cls-1 {
        fill: #fff;
        fill-rule: evenodd;
      }
    </style>
  </defs>
  <path id="形状_39_第二版_拷贝_7" data-name="形状 39 （第二版） 拷贝 7" class="cls-1" d="M915.492,620.235a365.161,365.161,0,0,1-24.233,93.656c-11.069,27-27.607,56.161-51.5,87.614-23.342,30.732-47.23,54.974-68.662,71.5-24.84,19.155-61.061,36.392-105.011,54.38-70.266,28.76-202.373,39.54-284.6,14.849-7.5-2.252-15.371-4.573-22.741-7.316a265.09,265.09,0,0,1-36.6-16.883,3.889,3.889,0,0,1-1.267-3.228,3.691,3.691,0,0,1,2.454-2.595c5.177-2.109,26.757,7.743,36.43,10.227,7.473,1.919,23.691,7.007,39.214,9.074a333.863,333.863,0,0,0,33.869,2.922c42.508,1.361,84.379.18,123.186-9.063C661.507,900.249,726.305,853.1,757.892,799.089c30.4-51.974,36.221-96.246,20.277-131.522-15.838-35.042-48.568-62.286-88.074-71.284-14.241-3.244-30.778-.709-40.322,1.649-2.06.509-18.231,4.793-28.274,4.195-15.814-.943-20.773-8.337-22.965-12.779-6.478-13.13,7.589-26.132,11.627-30.767,3.693-4.237,6.06-6.391,9.863-10.853a142.293,142.293,0,0,0,32.939-73.517c3.836-27.287.132-58.932-16.9-78.817a21.411,21.411,0,0,1-5.057-14.576c0.112-2.279,2.17-4.721,3-7.047,0.87-2.437,5.521-4.862,5.86-5.038,21.108-10.984,62.039-11.937,122.774,3.21,54.08,13.487,90.306,44.828,105.528,60.576,15.2,15.732,27.775,35.681,37.223,58.812C913.29,510.664,922.575,563.559,915.492,620.235ZM514.77,591.675c-81.97,47.593-171.749,46.21-200.525-3.091s14.347-127.847,96.318-175.441A280.792,280.792,0,0,1,449,394.537c18.6-5.175,15.148,8.173,15.148,8.173S423.57,510.9,420.726,520.536s2.019,6.042,2.019,6.042l83.808-57.4c-0.016,0-1.687-2.684-4.062-3-7.132-.96-15.854-0.138-22.191-2.032-3.317-.99-5.53-2.012-6.748-3.816-5.561-8.239,1.16-21.456,9.777-46.537,4.189-12.191,7.612-23.526,19.044-30.672a35.791,35.791,0,0,1,8.736-3.929c45.083-4.341,83.068,8.074,99.98,37.048C639.864,465.534,596.742,544.082,514.77,591.675Zm30.16-239.983c-14.8-.5-25.693,3.13-28.032-1.92a5.606,5.606,0,0,1,0-3.95c0.99-3.419,8.217-6.605,24.4-6.582,35.3,0.051,60.468,18.039,68.549,25.774,1.283,1.228,1.958,2.677,1.209,3.69a2.453,2.453,0,0,1-3.185.493C600.419,364.587,564.863,352.364,544.93,351.692Zm-29.4-70.468c5.781,0.514,18.079,5.371,17.677,9.962S532.21,303.512,525.737,306a18.423,18.423,0,0,1-3.752,1.038c-2.171.346-3.7,0.064-5.743,0.612a14.318,14.318,0,0,0-6.695,4.733c-6.253,7.278-14.307,24.159-18.465,30.557-0.833,1.283-3.208,1.632-3.882,1.415-0.928-.3-0.2-3.917-0.2-3.917l19.358-54.924S509.747,280.709,515.526,281.224Zm55.03-223.95c-3.633.193-7.244,0.32-10.6,0.6-31.805-.219-64.147,2.786-99.855,8.478a553.311,553.311,0,0,0-69.671,16.113c-85.527,25.508-141.861,68.971-160.546,97.684-18.749,28.811-24.552,52.556-27.045,71.012-3.023,22.375,3.932,47.612,12.5,64.658,11.18,22.242,42.687,48.47,111.742,53.653,22.483,1.688,45.77.2,57.168-.053,21.875-.488,64.411-7.564,76.736-10.618a3.489,3.489,0,0,1,4.165,1.612c0.529,1.053.01,2.517-1.01,4.028-7.622,3.707-15.316,7.044-23.224,10.071-51.426,14.987-105.96,22.944-161.529,13.129-32.857-5.8-54.565-16.369-71.717-31.256a152.266,152.266,0,0,1-17.5-18.6c-19.182-23.738-25.808-62.627-23.693-75.769,0.675-4.2-1.522-7.616-4.691-7.825-1.186-.078-3.785,1.026-5.5,2.576-11.034,9.99-15.53,19.635-22.381,33.859-7.894,16.39-13.83,38.265-17.765,57.412-8.877,43.2-2.873,103.583,9.736,137.252,12.679,33.858,30.437,65.442,54.539,91.776C218.947,619.154,271.518,648.95,329,658.7c27.187,4.613,56.433,3.933,86.238-.032a290.178,290.178,0,0,0,56.466-13.3c3.055-1.088,25.325-11.352,28.891-12.661a5.716,5.716,0,0,1,3.856-.161,5.549,5.549,0,0,1,2.125,1.562c1.9,2.112-.752,5.294-1.295,5.734-2.912,2.358-41.75,27.87-92.153,36.132-50.343,8.252-105.636-.987-132.857-8.763a274.727,274.727,0,0,1-84.489-41.511C153.8,595.094,126.315,559.6,108.1,522A264.212,264.212,0,0,1,85.5,450.042c-12.2-71.888.941-144.265,33.321-203.426,14.456-26.414,36.937-56.306,69.875-86.627,35.746-32.9,80.264-61.3,134.089-81.553,25.983-9.775,51.453-18.654,85.645-24.284,20.868-3.436,46.8-8.335,75.9-9.823,16.3-.834,21.061.254,38.648,0.2,13.895-.043,44.836,3.524,54.248,7.794a3.748,3.748,0,0,1,.693,2.786,3.107,3.107,0,0,1-1.076,1.648C574.737,56.95,572.668,57.162,570.556,57.274Z"/>
</svg>
