<?xml version="1.0" encoding="UTF-8"?>
<svg id="_图层_1" data-name="图层 1" xmlns="http://www.w3.org/2000/svg" viewBox="0 0 6.74 10.89">
  <defs>
    <style>
      .cls-1 {
        stroke-width: 0px;
      }
    </style>
  </defs>
  <path class="cls-1" d="m5.19,6.73c.11,0,.19-.02.24-.14.12-.3.32-.55.51-.8.65-.81.89-1.75.75-2.79C6.5,1.52,5.39.33,4.02.06,2.58-.22,1.17.46.45,1.77-.27,3.07-.12,4.68.83,5.83c.18.22.35.45.46.72.05.11.14.18.26.18.43,0,.86,0,1.29,0l-.33-2.02c-.04-.08-.07-.15-.11-.23-.41-.47-.48-1.12-.19-1.65.24-.44.68-.7,1.17-.7.09,0,.18,0,.27.03.52.1.96.58,1.04,1.15.06.44-.03.78-.3,1.12-.04.05-.09.11-.14.17l-.32,2.13h1.27Z"/>
  <path class="cls-1" d="m2.83,6.73h0"/>
  <path class="cls-1" d="m3.36,8.19c-.63,0-1.27,0-1.9,0-.26,0-.45-.13-.53-.39-.07-.23,0-.42.16-.58.11-.1.24-.13.38-.13,1.27,0,2.54,0,3.8,0,.35,0,.57.24.57.56,0,.32-.23.54-.58.55-.63,0-1.27,0-1.9,0Z"/>
  <path class="cls-1" d="m3.38,8.55c.62,0,1.23,0,1.85,0,.39,0,.62.22.61.56,0,.33-.24.54-.61.54-1.24,0-2.48,0-3.73,0-.36,0-.6-.22-.6-.55,0-.33.23-.54.6-.55.63,0,1.25,0,1.88,0Z"/>
  <path class="cls-1" d="m2.05,10.02h2.62c-.1.42-.64.82-1.15.86-.63.05-1.21-.28-1.46-.86Z"/>
</svg>