<?xml version="1.0" encoding="UTF-8"?>
<svg id="_图层_1" data-name="图层 1" xmlns="http://www.w3.org/2000/svg" viewBox="0 0 28.77 28.77">
  <defs>
    <style>
      .cls-1 {
        stroke-width: 0px;
      }
    </style>
  </defs>
  <path class="cls-1" d="m0,0v28.77h28.77V0H0Zm23.49,13.3h-8.2v6.8l-.07.83c-.35,2.17-2.22,3.83-4.48,3.83-2.52,0-4.56-2.04-4.56-4.56s2.04-4.56,4.56-4.56c.57,0,1.11.12,1.61.31V4.44h11.15v8.86Z"/>
  <rect class="cls-1" x="15.4" y="7.35" width="5.15" height="2.86"/>
  <path class="cls-1" d="m10.88,18.64c-.81,0-1.46.65-1.46,1.46s.65,1.46,1.46,1.46,1.46-.65,1.46-1.46-.65-1.46-1.46-1.46Z"/>
</svg>