<?xml version="1.0" standalone="no"?>
<!DOCTYPE svg PUBLIC "-//W3C//DTD SVG 20010904//EN"
 "http://www.w3.org/TR/2001/REC-SVG-20010904/DTD/svg10.dtd">
<svg version="1.0" xmlns="http://www.w3.org/2000/svg"
 width="18.000000pt" height="18.000000pt" viewBox="0 0 18.000000 18.000000"
 preserveAspectRatio="xMidYMid meet">

<g transform="translate(0.000000,18.000000) scale(0.100000,-0.100000)"
fill="#000000" stroke="none">
<path d="M103 149 c-29 -8 -33 -14 -33 -43 0 -25 -5 -35 -20 -39 -24 -6 -26
-25 -4 -34 20 -7 34 13 34 49 0 23 5 28 35 34 25 4 35 11 35 25 0 21 -1 21
-47 8z"/>
<path d="M113 74 c-7 -19 2 -28 22 -21 19 8 19 23 0 31 -9 3 -18 -1 -22 -10z"/>
</g>
</svg>
