<?xml version="1.0" encoding="UTF-8"?>
<svg id="_图层_1" data-name="图层 1" xmlns="http://www.w3.org/2000/svg" viewBox="0 0 9.78 10.22">
  <defs>
    <style>
      .cls-1 {
        stroke-width: 0px;
      }
    </style>
  </defs>
  <path class="cls-1" d="m3.25,6.92c0-1.1,0-3.33,0-4.41,0-1.02.14-1.2,1.12-1.44C5.75.73,7.13.38,8.51.05c.76-.19,1.27.2,1.27.98,0,1.67,0,4.5,0,6.16,0,.13-.01.26-.05.38-.23.79-1.11,1.35-2.09,1.33-.97-.01-1.78-.57-2-1.38-.27-.99.58-2.01,1.76-2.12.47-.04.92.03,1.43.25,0-.38,0-1.88,0-2.22,0-.18-.13-.16-.25-.13-1.39.35-2.79.7-4.18,1.04-.21.05-.21.19-.21.36,0,.74-.03,2.64,0,3.38.04.88-.28,1.54-1.08,1.9-.88.39-1.74.32-2.5-.29-.83-.67-.82-1.82,0-2.49.62-.5,1.33-.61,2.09-.43.17.04.33.1.54.16Z"/>
</svg>