<?xml version="1.0" encoding="UTF-8"?>
<svg id="_图层_1" data-name="图层 1" xmlns="http://www.w3.org/2000/svg" viewBox="0 0 9.9 9.88">
  <defs>
    <style>
      .cls-1 {
        stroke-width: 0px;
      }
    </style>
  </defs>
  <path class="cls-1" d="m4.96,9.88C2.21,9.88,0,7.68,0,4.93,0,2.2,2.22,0,4.97,0c2.71,0,4.93,2.22,4.93,4.93s-2.21,4.96-4.94,4.96ZM7.1,1.19c.04.07.08.14.12.22.79,1.47.11,3.46-1.82,3.76-.29.04-.58.01-.87.07-.93.2-1.59,1-1.6,1.94,0,.98.66,1.87,1.58,2.08.36.09.73.06,1.1,0,3.09-.47,4.7-3.95,3.06-6.6-.39-.63-.91-1.13-1.57-1.47Zm-1.29,1.43c0-.47-.38-.86-.86-.86-.47,0-.85.38-.85.84,0,.47.37.86.85.87.47,0,.86-.38.86-.85Z"/>
  <path class="cls-1" d="m5.81,7.26c0,.48-.38.86-.85.86-.47,0-.85-.37-.86-.84,0-.48.37-.87.84-.87.47,0,.86.38.87.85Z"/>
</svg>