<?xml version="1.0" encoding="UTF-8"?>
<svg id="_图层_1" data-name="图层 1" xmlns="http://www.w3.org/2000/svg" viewBox="0 0 8.54 10.72">
  <defs>
    <style>
      .cls-1 {
        stroke-width: 0px;
      }
    </style>
  </defs>
  <path class="cls-1" d="m4.27,10.71c-.84,0-1.68-.02-2.53,0-.65.02-1.25-.06-1.59-.7-.34-.63-.05-1.17.29-1.71.7-1.08,1.36-2.18,2.06-3.26.24-.37.37-.74.34-1.18-.02-.33.05-.7-.48-.68-.35.01-.27-.27-.29-.48-.02-.28.1-.4.39-.4,1.21,0,2.41,0,3.62,0,.21,0,.4.03.38.31-.01.18.07.39-.12.54-.78.58-.87.97-.35,1.81.71,1.14,1.42,2.28,2.15,3.4.34.52.57,1.05.25,1.64-.34.64-.94.71-1.59.7-.84-.02-1.68,0-2.53,0Zm-2-3.58h3.96c-.59-1.23-1.71-2.14-1.47-3.62.06-.38-.32-.28-.55-.31-.4-.04-.5.19-.45.51.14.84-.25,1.5-.7,2.16-.27.38-.5.79-.8,1.26Z"/>
  <path class="cls-1" d="m5.56,1.28c-.06.38-.26.63-.66.62-.39,0-.63-.24-.62-.63.01-.38.25-.61.64-.61.41,0,.58.26.64.62Z"/>
  <path class="cls-1" d="m6.18,0c.33.02.52.2.53.51,0,.27-.16.46-.46.48-.3.02-.48-.14-.51-.42-.04-.31.12-.52.44-.58Z"/>
</svg>