<?xml version="1.0" encoding="UTF-8"?>
<svg id="_图层_1" data-name="图层 1" xmlns="http://www.w3.org/2000/svg" viewBox="0 0 9.5 9.49">
  <defs>
    <style>
      .cls-1 {
        stroke-width: 0px;
      }
    </style>
  </defs>
  <path class="cls-1" d="m9.48,4.94c-1.47-.84-2.92-1.03-4.45-.64-.6.15-.79-.41-1.06-.76-.8-1.05-.77-1.1.52-1.37,1.22-.26,2.44-.23,3.68-.03.57.1.87.39,1.03.9.19.59.36,1.18.29,1.9Z"/>
  <path class="cls-1" d="m6.64,4.65c.52-.05.75.12.52.8-.42,1.23-1.03,2.34-1.83,3.37-.47.61-1,.83-1.72.55-.16-.06-.34-.09-.49-.16-.26-.12-.67-.14-.72-.43-.04-.27.36-.34.57-.51.79-.64,1.36-1.43,1.72-2.37.43-1.13.62-1.26,1.95-1.25Z"/>
  <path class="cls-1" d="m2.47.61c.05,1.66.63,2.97,1.73,4.07.39.4.03.84-.13,1.23-.49,1.21-.6,1.22-1.41.24-.76-.92-1.3-1.97-1.71-3.09-.25-.67-.13-1.17.4-1.63.32-.27.62-.56,1.12-.81Z"/>
  <path class="cls-1" d="m.38,3.11c.53,1.58,1.34,2.94,2.47,4.1.06.06.13.2.1.25-.25.39-.65.6-1.03.81-.33.19-.49-.12-.67-.3C-.08,6.56-.32,4.31.38,3.11Z"/>
  <path class="cls-1" d="m5.61,9.35c1.05-1.28,1.79-2.61,2.17-4.12.08-.32.22-.36.53-.25,1.13.41,1.26.68.74,1.78-.65,1.38-1.94,2.39-3.44,2.58Z"/>
  <path class="cls-1" d="m8.3,1.56c-1.75-.2-3.29-.19-4.8.27-.12.04-.23.07-.33-.06-.42-.52-.07-1.52.59-1.66,1.7-.36,3.13.12,4.54,1.44Z"/>
</svg>